<?plantuml 1.2026.1?><svg xmlns="http://www.w3.org/2000/svg" xmlns:xlink="http://www.w3.org/1999/xlink" contentStyleType="text/css" data-diagram-type="STATE" height="2395px" preserveAspectRatio="none" style="width:1453px;height:2395px;background:#FFFFFF;" version="1.1" viewBox="0 0 1453 2395" width="1453px" zoomAndPan="magnify"><defs/><g><!--cluster HI_SetBootOrder--><g class="cluster" data-qualified-name="HI_SetBootOrder" data-source-line="17" id="ent0006"><path d="M515.49,358 L848.49,358 A12.5,12.5 0 0 1 860.99,370.5 L860.99,379.4883 L502.99,379.4883 L502.99,370.5 A12.5,12.5 0 0 1 515.49,358" fill="#FFFFFF"/><rect fill="none" height="551" rx="12.5" ry="12.5" style="stroke:#000000;stroke-width:0.5;" width="358" x="502.99" y="358"/><line style="stroke:#000000;stroke-width:0.5;" x1="502.99" x2="860.99" y1="379.4883" y2="379.4883"/><text fill="#000000" font-family="sans-serif" font-size="14" lengthAdjust="spacing" textLength="90.0088" x="636.9856" y="375.5352">SetBootOrder</text></g><!--cluster HI_Measuring--><g class="cluster" data-qualified-name="HI_Measuring" data-source-line="27" id="ent0013"><path d="M818.49,1069 L1357.49,1069 A12.5,12.5 0 0 1 1369.99,1081.5 L1369.99,1090.4883 L805.99,1090.4883 L805.99,1081.5 A12.5,12.5 0 0 1 818.49,1069" fill="#FFFFFF"/><rect fill="none" height="228" rx="12.5" ry="12.5" style="stroke:#000000;stroke-width:0.5;" width="564" x="805.99" y="1069"/><line style="stroke:#000000;stroke-width:0.5;" x1="805.99" x2="1369.99" y1="1090.4883" y2="1090.4883"/><text fill="#000000" font-family="sans-serif" font-size="14" lengthAdjust="spacing" textLength="91.9297" x="1042.0252" y="1086.5352">HI_Measuring</text></g><!--cluster HI_UefiSetup--><g class="cluster" data-qualified-name="HI_UefiSetup" data-source-line="32" id="ent0016"><path d="M352.49,1346 L638.49,1346 A12.5,12.5 0 0 1 650.99,1358.5 L650.99,1367.4883 L339.99,1367.4883 L339.99,1358.5 A12.5,12.5 0 0 1 352.49,1346" fill="#FFFFFF"/><rect fill="none" height="701" rx="12.5" ry="12.5" style="stroke:#000000;stroke-width:0.5;" width="311" x="339.99" y="1346"/><line style="stroke:#000000;stroke-width:0.5;" x1="339.99" x2="650.99" y1="1367.4883" y2="1367.4883"/><text fill="#000000" font-family="sans-serif" font-size="14" lengthAdjust="spacing" textLength="64.7705" x="463.1047" y="1363.5352">UefiSetup</text></g><!--cluster HI_WaitingForLockdown--><g class="cluster" data-qualified-name="HI_WaitingForLockdown" data-source-line="41" id="ent0023"><path d="M1248.49,2080 L1427.49,2080 A12.5,12.5 0 0 1 1439.99,2092.5 L1439.99,2101.4883 L1235.99,2101.4883 L1235.99,2092.5 A12.5,12.5 0 0 1 1248.49,2080" fill="#FFFFFF"/><rect fill="none" height="212" rx="12.5" ry="12.5" style="stroke:#000000;stroke-width:0.5;" width="204" x="1235.99" y="2080"/><line style="stroke:#000000;stroke-width:0.5;" x1="1235.99" x2="1439.99" y1="2101.4883" y2="2101.4883"/><text fill="#000000" font-family="sans-serif" font-size="14" lengthAdjust="spacing" textLength="140.5947" x="1267.6926" y="2097.5352">WaitingForLockdown</text></g><g class="entity" data-qualified-name="HI_SetBootOrder.hi_sbo_if_zero_dpu" id="ent0007"><polygon fill="#F1F1F1" points="789.99,504,801.99,516,789.99,528,777.99,516,789.99,504" style="stroke:#181818;stroke-width:0.5;"/></g><g><rect fill="#FFFFFF" height="50" rx="12.5" ry="12.5" style="stroke:#000000;stroke-width:0.5;" width="110.0088" x="734.99" y="393"/><line style="stroke:#000000;stroke-width:0.5;" x1="734.99" x2="844.9988" y1="419.4883" y2="419.4883"/><text fill="#000000" font-family="sans-serif" font-size="14" lengthAdjust="spacing" textLength="90.0088" x="744.99" y="411.5352">SetBootOrder</text></g><g><rect fill="#FFFFFF" height="50" rx="12.5" ry="12.5" style="stroke:#000000;stroke-width:0.5;" width="251.957" x="519.01" y="605"/><line style="stroke:#000000;stroke-width:0.5;" x1="519.01" x2="770.967" y1="631.4883" y2="631.4883"/><text fill="#000000" font-family="sans-serif" font-size="14" lengthAdjust="spacing" textLength="231.957" x="529.01" y="623.5352">WaitForSetBootOrderJobScheduled</text></g><g><rect fill="#FFFFFF" height="50" rx="12.5" ry="12.5" style="stroke:#000000;stroke-width:0.5;" width="99.1602" x="624.41" y="732"/><line style="stroke:#000000;stroke-width:0.5;" x1="624.41" x2="723.5702" y1="758.4883" y2="758.4883"/><text fill="#000000" font-family="sans-serif" font-size="14" lengthAdjust="spacing" textLength="79.1602" x="634.41" y="750.5352">RebootHost</text></g><g><rect fill="#FFFFFF" height="50" rx="12.5" ry="12.5" style="stroke:#000000;stroke-width:0.5;" width="261.1855" x="583.4" y="843"/><line style="stroke:#000000;stroke-width:0.5;" x1="583.4" x2="844.5855" y1="869.4883" y2="869.4883"/><text fill="#000000" font-family="sans-serif" font-size="14" lengthAdjust="spacing" textLength="241.1855" x="593.4" y="861.5352">WaitForSetBootOrderJobCompletion</text></g><g><rect fill="#FFFFFF" height="50" rx="12.5" ry="12.5" style="stroke:#000000;stroke-width:0.5;" width="191.165" x="822.41" y="1104"/><line style="stroke:#000000;stroke-width:0.5;" x1="822.41" x2="1013.575" y1="1130.4883" y2="1130.4883"/><text fill="#000000" font-family="sans-serif" font-size="14" lengthAdjust="spacing" textLength="171.165" x="832.41" y="1122.5352">WaitingForMeasurements</text></g><g><rect fill="#FFFFFF" height="50" rx="12.5" ry="12.5" style="stroke:#000000;stroke-width:0.5;" width="120.5908" x="934.7" y="1231"/><line style="stroke:#000000;stroke-width:0.5;" x1="934.7" x2="1055.2908" y1="1257.4883" y2="1257.4883"/><text fill="#000000" font-family="sans-serif" font-size="14" lengthAdjust="spacing" textLength="100.5908" x="944.7" y="1249.5352">PendingBundle</text></g><g><rect fill="#FFFFFF" height="50" rx="12.5" ry="12.5" style="stroke:#000000;stroke-width:0.5;" width="97.6494" x="365.17" y="1381"/><line style="stroke:#000000;stroke-width:0.5;" x1="365.17" x2="462.8194" y1="1407.4883" y2="1407.4883"/><text fill="#000000" font-family="sans-serif" font-size="14" lengthAdjust="spacing" textLength="77.6494" x="375.17" y="1399.5352">UnlockHost</text></g><g><rect fill="#FFFFFF" height="50" rx="12.5" ry="12.5" style="stroke:#000000;stroke-width:0.5;" width="130.9404" x="478.52" y="1508"/><line style="stroke:#000000;stroke-width:0.5;" x1="478.52" x2="609.4604" y1="1534.4883" y2="1534.4883"/><text fill="#000000" font-family="sans-serif" font-size="14" lengthAdjust="spacing" textLength="110.9404" x="488.52" y="1526.5352">SetUefiPassword</text></g><g><rect fill="#FFFFFF" height="50" rx="12.5" ry="12.5" style="stroke:#000000;stroke-width:0.5;" width="225.6182" x="356.18" y="1635"/><line style="stroke:#000000;stroke-width:0.5;" x1="356.18" x2="581.7982" y1="1661.4883" y2="1661.4883"/><text fill="#000000" font-family="sans-serif" font-size="14" lengthAdjust="spacing" textLength="205.6182" x="366.18" y="1653.5352">WaitForPasswordJobScheduled</text></g><g><rect fill="#FFFFFF" height="50" rx="12.5" ry="12.5" style="stroke:#000000;stroke-width:0.5;" width="125.417" x="356.28" y="1752.5"/><line style="stroke:#000000;stroke-width:0.5;" x1="356.28" x2="481.697" y1="1778.9883" y2="1778.9883"/><text fill="#000000" font-family="sans-serif" font-size="14" lengthAdjust="spacing" textLength="105.417" x="366.28" y="1771.0352">PowercycleHost</text></g><g><rect fill="#FFFFFF" height="50" rx="12.5" ry="12.5" style="stroke:#000000;stroke-width:0.5;" width="234.8467" x="355.57" y="1870"/><line style="stroke:#000000;stroke-width:0.5;" x1="355.57" x2="590.4167" y1="1896.4883" y2="1896.4883"/><text fill="#000000" font-family="sans-serif" font-size="14" lengthAdjust="spacing" textLength="214.8467" x="365.57" y="1888.5352">WaitForPasswordJobCompletion</text></g><g><rect fill="#FFFFFF" height="50" rx="12.5" ry="12.5" style="stroke:#000000;stroke-width:0.5;" width="119.5654" x="515.21" y="1981"/><line style="stroke:#000000;stroke-width:0.5;" x1="515.21" x2="634.7754" y1="2007.4883" y2="2007.4883"/><text fill="#000000" font-family="sans-serif" font-size="14" lengthAdjust="spacing" textLength="99.5654" x="525.21" y="1999.5352">LockdownHost</text></g><g><rect fill="#FFFFFF" height="50" rx="12.5" ry="12.5" style="stroke:#000000;stroke-width:0.5;" width="171.0811" x="1252.45" y="2115"/><line style="stroke:#000000;stroke-width:0.5;" x1="1252.45" x2="1423.5311" y1="2141.4883" y2="2141.4883"/><text fill="#000000" font-family="sans-serif" font-size="14" lengthAdjust="spacing" textLength="151.0811" x="1262.45" y="2133.5352">TimeWaitForDPUDown</text></g><g><rect fill="#FFFFFF" height="50" rx="12.5" ry="12.5" style="stroke:#000000;stroke-width:0.5;" width="117.2617" x="1279.36" y="2226"/><line style="stroke:#000000;stroke-width:0.5;" x1="1279.36" x2="1396.6217" y1="2252.4883" y2="2252.4883"/><text fill="#000000" font-family="sans-serif" font-size="14" lengthAdjust="spacing" textLength="97.2617" x="1289.36" y="2244.5352">WaitForDPUUp</text></g><g><rect fill="#FFFFFF" height="50" rx="12.5" ry="12.5" style="stroke:#000000;stroke-width:0.5;" width="239.9189" x="556.03" y="118"/><line style="stroke:#000000;stroke-width:0.5;" x1="556.03" x2="795.9489" y1="144.4883" y2="144.4883"/><text fill="#000000" font-family="sans-serif" font-size="14" lengthAdjust="spacing" textLength="219.9189" x="566.03" y="136.5352">DpuDiscoveringState/Initializing</text></g><g><rect fill="#FFFFFF" height="50" rx="12.5" ry="12.5" style="stroke:#000000;stroke-width:0.5;" width="284.7422" x="763.62" y="7"/><line style="stroke:#000000;stroke-width:0.5;" x1="763.62" x2="1048.3622" y1="33.4883" y2="33.4883"/><text fill="#000000" font-family="sans-serif" font-size="14" lengthAdjust="spacing" textLength="264.7422" x="773.62" y="25.5352">DpuInitState/WaitingForNetworkConfig</text></g><g><rect fill="#FFFFFF" height="50" rx="12.5" ry="12.5" style="stroke:#000000;stroke-width:0.5;" width="213.9834" x="7" y="956"/><line style="stroke:#000000;stroke-width:0.5;" x1="7" x2="220.9834" y1="982.4883" y2="982.4883"/><text fill="#000000" font-family="sans-serif" font-size="14" lengthAdjust="spacing" textLength="193.9834" x="17" y="974.5352">DPUReprovision/RebootHost</text></g><g><rect fill="#FFFFFF" height="50" rx="12.5" ry="12.5" style="stroke:#000000;stroke-width:0.5;" width="219.8418" x="256.07" y="956"/><line style="stroke:#000000;stroke-width:0.5;" x1="256.07" x2="475.9118" y1="982.4883" y2="982.4883"/><text fill="#000000" font-family="sans-serif" font-size="14" lengthAdjust="spacing" textLength="199.8418" x="266.07" y="974.5352">Validation/MachineValidating</text></g><g class="entity" data-qualified-name="hi_attestation_enabled" id="ent0012"><polygon fill="#F1F1F1" points="713.99,969,725.99,981,713.99,993,701.99,981,713.99,969" style="stroke:#181818;stroke-width:0.5;"/></g><g><rect fill="#FFFFFF" height="50" rx="12.5" ry="12.5" style="stroke:#000000;stroke-width:0.5;" width="150.1631" x="830.91" y="118"/><line style="stroke:#000000;stroke-width:0.5;" x1="830.91" x2="981.0731" y1="144.4883" y2="144.4883"/><text fill="#000000" font-family="sans-serif" font-size="14" lengthAdjust="spacing" textLength="130.1631" x="840.91" y="136.5352">EnableIpmiOverLan</text></g><g><rect fill="#FFFFFF" height="50" rx="12.5" ry="12.5" style="stroke:#000000;stroke-width:0.5;" width="243.207" x="668.39" y="245"/><line style="stroke:#000000;stroke-width:0.5;" x1="668.39" x2="911.597" y1="271.4883" y2="271.4883"/><text fill="#000000" font-family="sans-serif" font-size="14" lengthAdjust="spacing" textLength="223.207" x="678.39" y="263.5352">WaitingForPlatformConfiguration</text></g><g><rect fill="#FFFFFF" height="50" rx="12.5" ry="12.5" style="stroke:#000000;stroke-width:0.5;" width="157.8193" x="667.08" y="1381"/><line style="stroke:#000000;stroke-width:0.5;" x1="667.08" x2="824.8993" y1="1407.4883" y2="1407.4883"/><text fill="#000000" font-family="sans-serif" font-size="14" lengthAdjust="spacing" textLength="137.8193" x="677.08" y="1399.5352">WaitingForDiscovery</text></g><g><rect fill="#FFFFFF" height="50" rx="12.5" ry="12.5" style="stroke:#000000;stroke-width:0.5;" width="94.8262" x="328.58" y="1104"/><line style="stroke:#000000;stroke-width:0.5;" x1="328.58" x2="423.4062" y1="1130.4883" y2="1130.4883"/><text fill="#000000" font-family="sans-serif" font-size="14" lengthAdjust="spacing" textLength="74.8262" x="338.58" y="1122.5352">Discovered</text></g><g><rect fill="#FFFFFF" height="50" rx="12.5" ry="12.5" style="stroke:#000000;stroke-width:0.5;" width="212.0488" x="1231.97" y="2339"/><line style="stroke:#000000;stroke-width:0.5;" x1="1231.97" x2="1444.0188" y1="2365.4883" y2="2365.4883"/><text fill="#000000" font-family="sans-serif" font-size="14" lengthAdjust="spacing" textLength="192.0488" x="1241.97" y="2357.5352">BomValidating/MatchingSku</text></g><g><rect fill="#FFFFFF" height="50" rx="12.5" ry="12.5" style="stroke:#000000;stroke-width:0.5;" width="60.5098" x="359.74" y="1231"/><line style="stroke:#000000;stroke-width:0.5;" x1="359.74" x2="420.2498" y1="1257.4883" y2="1257.4883"/><text fill="#000000" font-family="sans-serif" font-size="14" lengthAdjust="spacing" textLength="40.5098" x="369.74" y="1249.5352">Ready</text></g><g><rect fill="#FFFFFF" height="50" rx="12.5" ry="12.5" style="stroke:#000000;stroke-width:0.5;" width="59.9424" x="1133.02" y="956"/><line style="stroke:#000000;stroke-width:0.5;" x1="1133.02" x2="1192.9624" y1="982.4883" y2="982.4883"/><text fill="#000000" font-family="sans-serif" font-size="14" lengthAdjust="spacing" textLength="39.9424" x="1143.02" y="974.5352">Failed</text></g><g><rect fill="#FFFFFF" height="50" rx="12.5" ry="12.5" style="stroke:#000000;stroke-width:0.5;" width="117.9453" x="511.02" y="956"/><line style="stroke:#000000;stroke-width:0.5;" x1="511.02" x2="628.9653" y1="982.4883" y2="982.4883"/><text fill="#000000" font-family="sans-serif" font-size="14" lengthAdjust="spacing" textLength="97.9453" x="521.02" y="974.5352">BomValidating</text></g><g class="entity" data-qualified-name="GMN2" data-source-line="56" id="ent0003"><path d="M161.04,122.69 L161.04,163.3111 A0,0 0 0 0 161.04,163.3111 L520.9477,163.3111 A0,0 0 0 0 520.9477,163.3111 L520.9477,147 L555.7,143 L520.9477,139 L520.9477,132.69 L510.9477,122.69 L161.04,122.69 A0,0 0 0 0 161.04,122.69" fill="#FEFFDD" style="stroke:#181818;stroke-width:0.5;"/><path d="M510.9477,122.69 L510.9477,132.69 L520.9477,132.69 L510.9477,122.69" fill="#FEFFDD" style="stroke:#181818;stroke-width:0.5;"/><text fill="#000000" font-family="sans-serif" font-size="13" lengthAdjust="spacing" textLength="338.9077" x="167.04" y="140.2584">In reallity any DpuDiscoveringState can be entry point</text><text fill="#000000" font-family="sans-serif" font-size="13" lengthAdjust="spacing" textLength="216.144" x="167.04" y="155.5689">but effectively only DD_Initializing</text></g><!--link DpuDiscoveringState_DD_Initializing to HI_WaitingForPlatformConfiguration--><g class="link" data-entity-1="ent0002" data-entity-2="ent0027" data-link-type="dependency" data-source-line="61" id="lnk2"><path d="M698.24,168.4 C718.33,190.42 743.6862,218.2274 763.7562,240.2274" fill="none" id="DpuDiscoveringState_DD_Initializing-to-HI_WaitingForPlatformConfiguration" style="stroke:#181818;stroke-width:1;"/><polygon fill="#181818" points="767.8,244.66,764.6894,235.3152,764.4302,240.9662,758.7793,240.7069,767.8,244.66" style="stroke:#181818;stroke-width:1;"/><text fill="#000000" font-family="sans-serif" font-size="13" lengthAdjust="spacing" textLength="47.6328" x="740.82" y="211.5684">No DPU</text></g><!--link DpuInitState_DI_WaitingForNetworkConfig to HI_EnableIpmiOverLan--><g class="link" data-entity-1="ent0003" data-entity-2="ent0026" data-link-type="dependency" data-source-line="62" id="lnk3"><path d="M905.99,57.46 C905.99,75.41 905.99,93.69 905.99,111.62" fill="none" id="DpuInitState_DI_WaitingForNetworkConfig-to-HI_EnableIpmiOverLan" style="stroke:#181818;stroke-width:1;"/><polygon fill="#181818" points="905.99,117.62,909.99,108.62,905.99,112.62,901.99,108.62,905.99,117.62" style="stroke:#181818;stroke-width:1;"/></g><!--link Failed to HI_WFL_TimeWaitForDPUDown--><g class="link" data-entity-1="ent0004" data-entity-2="ent0024" data-link-type="dependency" data-source-line="63" id="lnk5"><path d="M1193.4,985.8 C1258.81,995.86 1406.99,1029.52 1406.99,1128 C1406.99,1128 1406.99,1128 1406.99,2007 C1406.99,2048.37 1383.804,2084.9175 1363.584,2110.0175" fill="none" id="Failed-to-HI_WFL_TimeWaitForDPUDown" style="stroke:#181818;stroke-width:1;"/><polygon fill="#181818" points="1359.82,2114.69,1368.581,2110.1907,1362.9567,2110.7963,1362.3511,2105.1719,1359.82,2114.69" style="stroke:#181818;stroke-width:1;"/></g><!--link Failed to HI_M_WaitingForMeasurements--><g class="link" data-entity-1="ent0004" data-entity-2="ent0014" data-link-type="dependency" data-source-line="64" id="lnk6"><path d="M1132.95,999.9 C1089.25,1025.94 1013.1743,1071.2786 964.0543,1100.5486" fill="none" id="Failed-to-HI_M_WaitingForMeasurements" style="stroke:#181818;stroke-width:1;"/><polygon fill="#181818" points="958.9,1103.62,968.679,1102.4491,963.1952,1101.0605,964.5838,1095.5767,958.9,1103.62" style="stroke:#181818;stroke-width:1;"/></g><!--link HI_EnableIpmiOverLan to HI_WaitingForPlatformConfiguration--><g class="link" data-entity-1="ent0026" data-entity-2="ent0027" data-link-type="dependency" data-source-line="66" id="lnk7"><path d="M883.35,168.4 C862.91,190.42 837.0818,218.2624 816.6618,240.2624" fill="none" id="HI_EnableIpmiOverLan-to-HI_WaitingForPlatformConfiguration" style="stroke:#181818;stroke-width:1;"/><polygon fill="#181818" points="812.58,244.66,821.6344,240.7848,815.9815,240.9953,815.7709,235.3424,812.58,244.66" style="stroke:#181818;stroke-width:1;"/><text fill="#000000" font-family="sans-serif" font-size="13" lengthAdjust="spacing" textLength="177.5757" x="855.94" y="211.5684">Enable IPMI over LAN access</text></g><!--link HI_WaitingForPlatformConfiguration to HI_SBO_SetBootOrder--><g class="link" data-entity-1="ent0027" data-entity-2="ent0008" data-link-type="dependency" data-source-line="67" id="lnk8"><path d="M789.99,295.44 C789.99,322.55 789.99,360.02 789.99,386.97" fill="none" id="HI_WaitingForPlatformConfiguration-to-HI_SBO_SetBootOrder" style="stroke:#181818;stroke-width:1;"/><polygon fill="#181818" points="789.99,392.97,793.99,383.97,789.99,387.97,785.99,383.97,789.99,392.97" style="stroke:#181818;stroke-width:1;"/><text fill="#000000" font-family="sans-serif" font-size="13" lengthAdjust="spacing" textLength="204.2803" x="790.99" y="338.5684">Call machine setup/Restart Host</text></g><!--link HI_SBO_SetBootOrder to hi_sbo_if_zero_dpu--><g class="link" data-entity-1="ent0008" data-entity-2="ent0007" data-link-type="dependency" data-source-line="69" id="lnk9"><path d="M789.99,443.47 C789.99,462.69 789.99,482.6 789.99,497.38" fill="none" id="HI_SBO_SetBootOrder-to-hi_sbo_if_zero_dpu" style="stroke:#181818;stroke-width:1;"/><polygon fill="#181818" points="789.99,503.38,793.99,494.38,789.99,498.38,785.99,494.38,789.99,503.38" style="stroke:#181818;stroke-width:1;"/></g><!--link hi_sbo_if_zero_dpu to HI_SBO_WaitForSetBootOrderJobCompletion--><g class="link" data-entity-1="ent0007" data-entity-2="ent0011" data-link-type="dependency" data-source-line="70" id="lnk10"><path d="M790.97,527.5 C792.9,550.7 796.3,608.05 787.99,655 C775.53,725.44 745.376,798.3502 727.906,837.1002" fill="none" id="hi_sbo_if_zero_dpu-to-HI_SBO_WaitForSetBootOrderJobCompletion" style="stroke:#181818;stroke-width:1;"/><polygon fill="#181818" points="725.44,842.57,732.7855,836.0093,727.495,838.0118,725.4925,832.7213,725.44,842.57" style="stroke:#181818;stroke-width:1;"/><text fill="#000000" font-family="sans-serif" font-size="13" lengthAdjust="spacing" textLength="47.6328" x="782.13" y="698.5684">No DPU</text></g><!--link hi_sbo_if_zero_dpu to HI_SBO_WaitForSetBootOrderJobScheduled--><g class="link" data-entity-1="ent0007" data-entity-2="ent0009" data-link-type="dependency" data-source-line="71" id="lnk11"><path d="M783.76,521.81 C765.55,535.88 716.2289,573.9829 681.1989,601.0329" fill="none" id="hi_sbo_if_zero_dpu-to-HI_SBO_WaitForSetBootOrderJobScheduled" style="stroke:#181818;stroke-width:1;"/><polygon fill="#181818" points="676.45,604.7,686.0181,602.3653,680.4074,601.6441,681.1287,596.0334,676.45,604.7" style="stroke:#181818;stroke-width:1;"/><text fill="#000000" font-family="sans-serif" font-size="13" lengthAdjust="spacing" textLength="25.9302" x="735.74" y="571.5684">DPU</text></g><!--link HI_SBO_WaitForSetBootOrderJobScheduled to HI_SBO_RebootHost--><g class="link" data-entity-1="ent0009" data-entity-2="ent0010" data-link-type="dependency" data-source-line="72" id="lnk12"><path d="M650.65,655.4 C655.76,677.42 661.8825,703.8156 666.9925,725.8156" fill="none" id="HI_SBO_WaitForSetBootOrderJobScheduled-to-HI_SBO_RebootHost" style="stroke:#181818;stroke-width:1;"/><polygon fill="#181818" points="668.35,731.66,670.21,721.9884,667.2188,726.7897,662.4175,723.7984,668.35,731.66" style="stroke:#181818;stroke-width:1;"/></g><!--link HI_SBO_RebootHost to HI_SBO_WaitForSetBootOrderJobCompletion--><g class="link" data-entity-1="ent0010" data-entity-2="ent0011" data-link-type="dependency" data-source-line="73" id="lnk13"><path d="M682.97,782.46 C689.56,800.41 696.3929,819.0573 702.9729,836.9873" fill="none" id="HI_SBO_RebootHost-to-HI_SBO_WaitForSetBootOrderJobCompletion" style="stroke:#181818;stroke-width:1;"/><polygon fill="#181818" points="705.04,842.62,705.6945,832.7929,703.3174,837.9261,698.1842,835.549,705.04,842.62" style="stroke:#181818;stroke-width:1;"/></g><!--link HI_SBO_SetBootOrder to HI_SBO_WaitForSetBootOrderJobCompletion--><g class="link" data-entity-1="ent0008" data-entity-2="ent0011" data-link-type="dependency" data-source-line="74" id="lnk14"><path d="M812.89,443.39 C827.61,461.65 843.99,488.04 843.99,515 C843.99,515 843.99,515 843.99,758 C843.99,797.03 814.4739,822.0449 780.8739,839.8149" fill="none" id="HI_SBO_SetBootOrder-to-HI_SBO_WaitForSetBootOrderJobCompletion" style="stroke:#181818;stroke-width:1;"/><polygon fill="#181818" points="775.57,842.62,785.3959,841.9483,779.9899,840.2824,781.6558,834.8764,775.57,842.62" style="stroke:#181818;stroke-width:1;"/></g><!--link HI_SBO_WaitForSetBootOrderJobCompletion to hi_attestation_enabled--><g class="link" data-entity-1="ent0011" data-entity-2="ent0012" data-link-type="dependency" data-source-line="75" id="lnk15"><path d="M713.99,893.36 C713.99,916.72 713.99,944.95 713.99,962.58" fill="none" id="HI_SBO_WaitForSetBootOrderJobCompletion-to-hi_attestation_enabled" style="stroke:#181818;stroke-width:1;"/><polygon fill="#181818" points="713.99,968.58,717.99,959.58,713.99,963.58,709.99,959.58,713.99,968.58" style="stroke:#181818;stroke-width:1;"/></g><!--link hi_attestation_enabled to HI_M_WaitingForMeasurements--><g class="link" data-entity-1="ent0012" data-entity-2="ent0014" data-link-type="dependency" data-source-line="77" id="lnk16"><path d="M720.78,986.86 C745.88,1004.82 829.6409,1064.7679 879.1009,1100.1679" fill="none" id="hi_attestation_enabled-to-HI_M_WaitingForMeasurements" style="stroke:#181818;stroke-width:1;"/><polygon fill="#181818" points="883.98,1103.66,878.9895,1095.1691,879.9141,1100.7499,874.3333,1101.6746,883.98,1103.66" style="stroke:#181818;stroke-width:1;"/><text fill="#000000" font-family="sans-serif" font-size="13" lengthAdjust="spacing" textLength="148.605" x="810.87" y="1049.5684">if attestation is enabled</text></g><!--link hi_attestation_enabled to HI_WaitingForDiscovery--><g class="link" data-entity-1="ent0012" data-entity-2="ent0028" data-link-type="dependency" data-source-line="78" id="lnk17"><path d="M708.6,987.93 C686.42,1013.05 604.49,1113.42 627.99,1201 C647.08,1272.13 693.9764,1339.3539 722.3264,1375.8039" fill="none" id="hi_attestation_enabled-to-HI_WaitingForDiscovery" style="stroke:#181818;stroke-width:1;"/><polygon fill="#181818" points="726.01,1380.54,723.6419,1370.9801,722.9403,1376.5932,717.3271,1375.8916,726.01,1380.54" style="stroke:#181818;stroke-width:1;"/><text fill="#000000" font-family="sans-serif" font-size="13" lengthAdjust="spacing" textLength="151.8613" x="628.99" y="1197.5684">if attestation is disabled</text></g><!--link HI_M_WaitingForMeasurements to HI_M_WaitingForMeasurements--><g class="link" data-entity-1="ent0014" data-entity-2="ent0014" data-link-type="dependency" data-source-line="80" id="lnk18"><path d="M1013.94,1117.5 C1034.07,1118.69 1048.57,1122.52 1048.57,1129 C1048.57,1135.48 1040.0595,1138.9659 1019.9295,1140.1559" fill="none" id="HI_M_WaitingForMeasurements-to-HI_M_WaitingForMeasurements" style="stroke:#181818;stroke-width:1;"/><polygon fill="#181818" points="1013.94,1140.51,1023.1604,1143.9719,1018.9313,1140.2149,1022.6883,1135.9859,1013.94,1140.51" style="stroke:#181818;stroke-width:1;"/><text fill="#000000" font-family="sans-serif" font-size="13" lengthAdjust="spacing" textLength="310.7305" x="1054.57" y="1134.0684">Waiting for machine to send measurement report</text></g><!--link HI_M_WaitingForMeasurements to HI_M_PendingBundle--><g class="link" data-entity-1="ent0014" data-entity-2="ent0015" data-link-type="dependency" data-source-line="81" id="lnk19"><path d="M894.03,1154.38 C883.21,1168.42 874.71,1186.17 883.99,1201 C895.36,1219.17 909.2452,1229.0636 928.6952,1237.2036" fill="none" id="HI_M_WaitingForMeasurements-to-HI_M_PendingBundle" style="stroke:#181818;stroke-width:1;"/><polygon fill="#181818" points="934.23,1239.52,927.472,1232.3555,929.6176,1237.5897,924.3835,1239.7353,934.23,1239.52" style="stroke:#181818;stroke-width:1;"/><text fill="#000000" font-family="sans-serif" font-size="13" lengthAdjust="spacing" textLength="140.2896" x="884.99" y="1197.5684">Wait for golden values</text></g><!--link HI_M_PendingBundle to HI_M_WaitingForMeasurements--><g class="link" data-entity-1="ent0015" data-entity-2="ent0014" data-link-type="dependency" data-source-line="84" id="lnk22"><path d="M1019.51,1230.67 C1030.6,1216.65 1039.35,1198.9 1029.99,1184 C1022.18,1171.57 1015.8025,1164.9535 1003.0325,1157.5035" fill="none" id="HI_M_PendingBundle-to-HI_M_WaitingForMeasurements" style="stroke:#181818;stroke-width:1;"/><polygon fill="#181818" points="997.85,1154.48,1003.6081,1162.4702,1002.1688,1156.9996,1007.6394,1155.5602,997.85,1154.48" style="stroke:#181818;stroke-width:1;"/><text fill="#000000" font-family="sans-serif" font-size="13" lengthAdjust="spacing" textLength="182.9458" x="1034.94" y="1197.5684">Measurements wiped, restart</text></g><!--link HI_M_WaitingForMeasurements to HI_WaitingForDiscovery--><g class="link" data-entity-1="ent0014" data-entity-2="ent0028" data-link-type="dependency" data-source-line="82" id="lnk20"><path d="M856.09,1154.33 C822.76,1170.8 784.23,1195.99 762.99,1231 C734.57,1277.84 737.051,1339.1744 741.411,1374.7944" fill="none" id="HI_M_WaitingForMeasurements-to-HI_WaitingForDiscovery" style="stroke:#181818;stroke-width:1;"/><polygon fill="#181818" points="742.14,1380.75,745.0169,1371.3307,741.5325,1375.787,737.0762,1372.3027,742.14,1380.75" style="stroke:#181818;stroke-width:1;"/><text fill="#000000" font-family="sans-serif" font-size="13" lengthAdjust="spacing" textLength="152.9976" x="763.99" y="1261.0684">Measurements validated</text></g><!--link HI_M_PendingBundle to HI_M_PendingBundle--><g class="link" data-entity-1="ent0015" data-entity-2="ent0015" data-link-type="dependency" data-source-line="83" id="lnk21"><path d="M1055.48,1244.1 C1074.9,1244.22 1090.29,1248.19 1090.29,1256 C1090.29,1263.81 1080.8999,1267.7429 1061.4799,1267.8629" fill="none" id="HI_M_PendingBundle-to-HI_M_PendingBundle" style="stroke:#181818;stroke-width:1;"/><polygon fill="#181818" points="1055.48,1267.9,1064.5045,1271.8443,1060.4799,1267.8691,1064.4551,1263.8445,1055.48,1267.9" style="stroke:#181818;stroke-width:1;"/><text fill="#000000" font-family="sans-serif" font-size="13" lengthAdjust="spacing" textLength="269.8516" x="1096.29" y="1261.0684">Waiting for matching measurement bundle</text></g><!--link HI_M_PendingBundle to HI_WaitingForDiscovery--><g class="link" data-entity-1="ent0015" data-entity-2="ent0028" data-link-type="dependency" data-source-line="85" id="lnk23"><path d="M953.87,1281.44 C907.74,1308.86 838.488,1350.0249 792.328,1377.4549" fill="none" id="HI_M_PendingBundle-to-HI_WaitingForDiscovery" style="stroke:#181818;stroke-width:1;"/><polygon fill="#181818" points="787.17,1380.52,796.9504,1379.361,791.4684,1377.9658,792.8636,1372.4837,787.17,1380.52" style="stroke:#181818;stroke-width:1;"/><text fill="#000000" font-family="sans-serif" font-size="13" lengthAdjust="spacing" textLength="152.9976" x="901.12" y="1326.5684">Measurements validated</text></g><!--link HI_WaitingForDiscovery to HI_WaitingForDiscovery--><g class="link" data-entity-1="ent0028" data-entity-2="ent0028" data-link-type="dependency" data-source-line="87" id="lnk24"><path d="M825.31,1394.26 C845.11,1395.08 859.9,1398.99 859.9,1406 C859.9,1413.01 851.1049,1416.6717 831.3049,1417.4917" fill="none" id="HI_WaitingForDiscovery-to-HI_WaitingForDiscovery" style="stroke:#181818;stroke-width:1;"/><polygon fill="#181818" points="825.31,1417.74,834.4678,1421.3642,830.3057,1417.5331,834.1368,1413.371,825.31,1417.74" style="stroke:#181818;stroke-width:1;"/><text fill="#000000" font-family="sans-serif" font-size="13" lengthAdjust="spacing" textLength="152.2231" x="865.9" y="1411.0684">Wait for scout to update</text></g><!--link HI_WaitingForDiscovery to HI_USS_SetUefiPassword--><g class="link" data-entity-1="ent0028" data-entity-2="ent0018" data-link-type="dependency" data-source-line="88" id="lnk25"><path d="M706.56,1431.4 C670.97,1453.42 623.9824,1482.5033 588.4224,1504.5033" fill="none" id="HI_WaitingForDiscovery-to-HI_USS_SetUefiPassword" style="stroke:#181818;stroke-width:1;"/><polygon fill="#181818" points="583.32,1507.66,593.0782,1506.3265,587.572,1505.0294,588.8692,1499.5233,583.32,1507.66" style="stroke:#181818;stroke-width:1;"/><text fill="#000000" font-family="sans-serif" font-size="13" lengthAdjust="spacing" textLength="144.9487" x="658.09" y="1474.5684">Discovery is Successful</text></g><!--link HI_USS_UnlockHost to HI_USS_SetUefiPassword--><g class="link" data-entity-1="ent0017" data-entity-2="ent0018" data-link-type="dependency" data-source-line="90" id="lnk26"><path d="M439.37,1431.4 C462.27,1453.42 491.475,1481.5013 514.355,1503.5013" fill="none" id="HI_USS_UnlockHost-to-HI_USS_SetUefiPassword" style="stroke:#181818;stroke-width:1;"/><polygon fill="#181818" points="518.68,1507.66,514.9649,1498.5387,515.0758,1504.1945,509.4201,1504.3054,518.68,1507.66" style="stroke:#181818;stroke-width:1;"/></g><!--link HI_USS_SetUefiPassword to HI_USS_WaitForPasswordJobScheduled--><g class="link" data-entity-1="ent0018" data-entity-2="ent0019" data-link-type="dependency" data-source-line="91" id="lnk27"><path d="M529.35,1558.4 C516.14,1580.42 499.8887,1607.5161 486.6787,1629.5161" fill="none" id="HI_USS_SetUefiPassword-to-HI_USS_WaitForPasswordJobScheduled" style="stroke:#181818;stroke-width:1;"/><polygon fill="#181818" points="483.59,1634.66,491.6523,1629.0032,486.1639,1630.3734,484.7938,1624.885,483.59,1634.66" style="stroke:#181818;stroke-width:1;"/><text fill="#000000" font-family="sans-serif" font-size="13" lengthAdjust="spacing" textLength="70.9224" x="511.98" y="1601.5684">job created</text></g><!--link HI_USS_SetUefiPassword to HI_USS_LockdownHost--><g class="link" data-entity-1="ent0018" data-entity-2="ent0022" data-link-type="dependency" data-source-line="92" id="lnk28"><path d="M570.13,1558.28 C578,1566.93 585.88,1577.22 590.99,1588 C600.06,1607.15 596.8,1613.92 598.99,1635 C612.08,1761.05 631.32,1795.44 607.99,1920 C604,1941.32 597.3402,1958.7103 589.6802,1975.3403" fill="none" id="HI_USS_SetUefiPassword-to-HI_USS_LockdownHost" style="stroke:#181818;stroke-width:1;"/><polygon fill="#181818" points="587.17,1980.79,594.5684,1974.289,589.2618,1976.2486,587.3022,1970.942,587.17,1980.79" style="stroke:#181818;stroke-width:1;"/><text fill="#000000" font-family="sans-serif" font-size="13" lengthAdjust="spacing" textLength="21.6646" x="649.747" y="1759.5684">Fail</text><text fill="#000000" font-family="sans-serif" font-size="13" lengthAdjust="spacing" textLength="61.0327" x="630.0629" y="1774.8789">AND !Dell</text><text fill="#000000" font-family="sans-serif" font-size="13" lengthAdjust="spacing" textLength="81.4785" x="619.84" y="1790.1895">AND !Lenovo</text><text fill="#000000" font-family="sans-serif" font-size="13" lengthAdjust="spacing" textLength="75.7466" x="622.706" y="1805.5">AND !Nvidia</text></g><!--link HI_USS_WaitForPasswordJobScheduled to HI_USS_PowercycleHost--><g class="link" data-entity-1="ent0019" data-entity-2="ent0020" data-link-type="dependency" data-source-line="93" id="lnk29"><path d="M458.39,1685.49 C449.9,1705.1 440.4435,1726.9437 431.9635,1746.5337" fill="none" id="HI_USS_WaitForPasswordJobScheduled-to-HI_USS_PowercycleHost" style="stroke:#181818;stroke-width:1;"/><polygon fill="#181818" points="429.58,1752.04,436.8261,1745.3696,431.5663,1747.4515,429.4844,1742.1916,429.58,1752.04" style="stroke:#181818;stroke-width:1;"/></g><!--link HI_USS_PowercycleHost to HI_USS_WaitForPasswordJobCompletion--><g class="link" data-entity-1="ent0020" data-entity-2="ent0021" data-link-type="dependency" data-source-line="94" id="lnk30"><path d="M430.44,1802.99 C439.61,1822.6 449.8586,1844.5148 459.0186,1864.1048" fill="none" id="HI_USS_PowercycleHost-to-HI_USS_WaitForPasswordJobCompletion" style="stroke:#181818;stroke-width:1;"/><polygon fill="#181818" points="461.56,1869.54,461.3713,1859.6929,459.4422,1865.0107,454.1244,1863.0815,461.56,1869.54" style="stroke:#181818;stroke-width:1;"/></g><!--link HI_USS_WaitForPasswordJobCompletion to HI_USS_LockdownHost--><g class="link" data-entity-1="ent0021" data-entity-2="ent0022" data-link-type="dependency" data-source-line="95" id="lnk31"><path d="M495.88,1920.46 C512.68,1938.41 531.3002,1958.3092 548.0802,1976.2392" fill="none" id="HI_USS_WaitForPasswordJobCompletion-to-HI_USS_LockdownHost" style="stroke:#181818;stroke-width:1;"/><polygon fill="#181818" points="552.18,1980.62,548.9508,1971.3156,548.7635,1976.9693,543.1097,1976.782,552.18,1980.62" style="stroke:#181818;stroke-width:1;"/></g><!--link HI_USS_LockdownHost to HI_WFL_TimeWaitForDPUDown--><g class="link" data-entity-1="ent0022" data-entity-2="ent0024" data-link-type="dependency" data-source-line="97" id="lnk32"><path d="M635.18,2017.41 C769.87,2040.71 1090.0278,2096.1074 1246.0778,2123.0974" fill="none" id="HI_USS_LockdownHost-to-HI_WFL_TimeWaitForDPUDown" style="stroke:#181818;stroke-width:1;"/><polygon fill="#181818" points="1251.99,2124.12,1243.8034,2118.6447,1247.0631,2123.2679,1242.44,2126.5276,1251.99,2124.12" style="stroke:#181818;stroke-width:1;"/></g><!--link HI_WFL_TimeWaitForDPUDown to HI_WFL_WaitForDPUUp--><g class="link" data-entity-1="ent0024" data-entity-2="ent0025" data-link-type="dependency" data-source-line="99" id="lnk33"><path d="M1337.99,2165.46 C1337.99,2183.41 1337.99,2201.69 1337.99,2219.62" fill="none" id="HI_WFL_TimeWaitForDPUDown-to-HI_WFL_WaitForDPUUp" style="stroke:#181818;stroke-width:1;"/><polygon fill="#181818" points="1337.99,2225.62,1341.99,2216.62,1337.99,2220.62,1333.99,2216.62,1337.99,2225.62" style="stroke:#181818;stroke-width:1;"/></g><!--link HI_WFL_WaitForDPUUp to BomValidating_BV_MatchingSku--><g class="link" data-entity-1="ent0025" data-entity-2="ent0030" data-link-type="dependency" data-source-line="100" id="lnk34"><path d="M1337.99,2276.36 C1337.99,2294.87 1337.99,2314.2 1337.99,2332.7" fill="none" id="HI_WFL_WaitForDPUUp-to-BomValidating_BV_MatchingSku" style="stroke:#181818;stroke-width:1;"/><polygon fill="#181818" points="1337.99,2338.7,1341.99,2329.7,1337.99,2333.7,1333.99,2329.7,1337.99,2338.7" style="stroke:#181818;stroke-width:1;"/></g><!--link BomValidating to HI_Discovered--><g class="link" data-entity-1="ent0035" data-entity-2="ent0029" data-link-type="dependency" data-source-line="102" id="lnk36"><path d="M537.52,1006.44 C501.6,1033.47 448.8737,1073.1517 413.0437,1100.1217" fill="none" id="BomValidating-to-HI_Discovered" style="stroke:#181818;stroke-width:1;"/><polygon fill="#181818" points="408.25,1103.73,417.8462,1101.5133,412.2448,1100.723,413.035,1095.1217,408.25,1103.73" style="stroke:#181818;stroke-width:1;"/></g><!--link Validation_V_MachineValidating to HI_Discovered--><g class="link" data-entity-1="ent0005" data-entity-2="ent0029" data-link-type="dependency" data-source-line="103" id="lnk37"><path d="M367.67,1006.44 C369.52,1033.55 372.0891,1071.0341 373.9391,1097.9841" fill="none" id="Validation_V_MachineValidating-to-HI_Discovered" style="stroke:#181818;stroke-width:1;"/><polygon fill="#181818" points="374.35,1103.97,377.7242,1094.7172,374.0076,1098.9817,369.743,1095.2651,374.35,1103.97" style="stroke:#181818;stroke-width:1;"/></g><!--link DPUReprovision_DR_RebootHost to HI_Discovered--><g class="link" data-entity-1="ent0004" data-entity-2="ent0029" data-link-type="dependency" data-source-line="104" id="lnk38"><path d="M157.84,1006.44 C206.35,1033.47 278.799,1073.839 327.189,1100.809" fill="none" id="DPUReprovision_DR_RebootHost-to-HI_Discovered" style="stroke:#181818;stroke-width:1;"/><polygon fill="#181818" points="332.43,1103.73,326.5159,1095.8545,328.0625,1101.2958,322.6212,1102.8424,332.43,1103.73" style="stroke:#181818;stroke-width:1;"/></g><!--link HI_Discovered to HI_Discovered--><g class="link" data-entity-1="ent0029" data-entity-2="ent0029" data-link-type="dependency" data-source-line="105" id="lnk39"><path d="M423.83,1117.15 C442.67,1116.56 458.4,1120.5 458.4,1129 C458.4,1137.5 448.667,1141.641 429.827,1141.041" fill="none" id="HI_Discovered-to-HI_Discovered" style="stroke:#181818;stroke-width:1;"/><polygon fill="#181818" points="423.83,1140.85,432.6981,1145.1345,428.8275,1141.0092,432.9528,1137.1385,423.83,1140.85" style="stroke:#181818;stroke-width:1;"/><text fill="#000000" font-family="sans-serif" font-size="13" lengthAdjust="spacing" textLength="76.4258" x="464.4" y="1134.0684">need reboot</text></g><!--link HI_Discovered to Ready--><g class="link" data-entity-1="ent0029" data-entity-2="ent0031" data-link-type="dependency" data-source-line="106" id="lnk40"><path d="M378.72,1154.4 C381.19,1176.42 384.1306,1202.6975 386.6006,1224.6975" fill="none" id="HI_Discovered-to-Ready" style="stroke:#181818;stroke-width:1;"/><polygon fill="#181818" points="387.27,1230.66,390.2409,1221.2699,386.7121,1225.6912,382.2908,1222.1625,387.27,1230.66" style="stroke:#181818;stroke-width:1;"/><text fill="#000000" font-family="sans-serif" font-size="13" lengthAdjust="spacing" textLength="57.002" x="384.83" y="1197.5684">rebooted</text></g><!--link Ready to HI_USS_UnlockHost--><g class="link" data-entity-1="ent0031" data-entity-2="ent0017" data-link-type="dependency" data-source-line="107" id="lnk41"><path d="M391.06,1281.45 C391.92,1295.68 393.42,1313.93 395.99,1330 C398.72,1347.06 401.7399,1360.1684 405.5799,1374.7284" fill="none" id="Ready-to-HI_USS_UnlockHost" style="stroke:#181818;stroke-width:1;"/><polygon fill="#181818" points="407.11,1380.53,408.6826,1370.8075,405.8349,1375.6953,400.9471,1372.8476,407.11,1380.53" style="stroke:#181818;stroke-width:1;"/><text fill="#000000" font-family="sans-serif" font-size="13" lengthAdjust="spacing" textLength="168.0352" x="396.99" y="1326.5684">Need setup BIOS password</text></g></g></svg>