<?plantuml 1.2026.1?><svg xmlns="http://www.w3.org/2000/svg" xmlns:xlink="http://www.w3.org/1999/xlink" contentStyleType="text/css" data-diagram-type="STATE" height="1645px" preserveAspectRatio="none" style="width:1486px;height:1645px;background:#FFFFFF;" version="1.1" viewBox="0 0 1486 1645" width="1486px" zoomAndPan="magnify"><defs/><g><g><rect fill="#FFFFFF" height="50" rx="12.5" ry="12.5" style="stroke:#181818;stroke-width:0.5;" width="161.21" x="437.4" y="134"/><line style="stroke:#181818;stroke-width:0.5;" x1="437.4" x2="598.61" y1="160.4883" y2="160.4883"/><text fill="#000000" font-family="sans-serif" font-size="14" lengthAdjust="spacing" textLength="141.21" x="447.4" y="152.5352">DpuDiscoveringState</text></g><g><rect fill="#FFFFFF" height="50" rx="12.5" ry="12.5" style="stroke:#181818;stroke-width:0.5;" width="69.9297" x="582.04" y="276"/><line style="stroke:#181818;stroke-width:0.5;" x1="582.04" x2="651.9697" y1="302.4883" y2="302.4883"/><text fill="#000000" font-family="sans-serif" font-size="14" lengthAdjust="spacing" textLength="49.9297" x="592.04" y="294.5352">DPUInit</text></g><g><rect fill="#FFFFFF" height="50" rx="12.5" ry="12.5" style="stroke:#181818;stroke-width:0.5;" width="73.2656" x="491.37" y="403"/><line style="stroke:#181818;stroke-width:0.5;" x1="491.37" x2="564.6356" y1="429.4883" y2="429.4883"/><text fill="#000000" font-family="sans-serif" font-size="14" lengthAdjust="spacing" textLength="53.2656" x="501.37" y="421.5352">HostInit</text></g><g><rect fill="#FFFFFF" height="50" rx="12.5" ry="12.5" style="stroke:#181818;stroke-width:0.5;" width="155.4336" x="916.28" y="530"/><line style="stroke:#181818;stroke-width:0.5;" x1="916.28" x2="1071.7136" y1="556.4883" y2="556.4883"/><text fill="#000000" font-family="sans-serif" font-size="14" lengthAdjust="spacing" textLength="135.4336" x="926.28" y="548.5352">HostInit/Discovered</text></g><g><rect fill="#FFFFFF" height="50" rx="12.5" ry="12.5" style="stroke:#181818;stroke-width:0.5;" width="117.9453" x="544.03" y="1447"/><line style="stroke:#181818;stroke-width:0.5;" x1="544.03" x2="661.9753" y1="1473.4883" y2="1473.4883"/><text fill="#000000" font-family="sans-serif" font-size="14" lengthAdjust="spacing" textLength="97.9453" x="554.03" y="1465.5352">BomValidating</text></g><g><rect fill="#FFFFFF" height="50" rx="12.5" ry="12.5" style="stroke:#181818;stroke-width:0.5;" width="88.0928" x="982.95" y="1589"/><line style="stroke:#181818;stroke-width:0.5;" x1="982.95" x2="1071.0428" y1="1615.4883" y2="1615.4883"/><text fill="#000000" font-family="sans-serif" font-size="14" lengthAdjust="spacing" textLength="68.0928" x="992.95" y="1607.5352">Validation</text></g><g><rect fill="#FFFFFF" height="50" rx="12.5" ry="12.5" style="stroke:#181818;stroke-width:0.5;" width="90.6084" x="676.7" y="783"/><line style="stroke:#181818;stroke-width:0.5;" x1="676.7" x2="767.3084" y1="809.4883" y2="809.4883"/><text fill="#000000" font-family="sans-serif" font-size="14" lengthAdjust="spacing" textLength="70.6084" x="686.7" y="801.5352">Measuring</text></g><g><rect fill="#FFFFFF" height="50" rx="12.5" ry="12.5" style="stroke:#181818;stroke-width:0.5;" width="60.5098" x="497.75" y="641"/><line style="stroke:#181818;stroke-width:0.5;" x1="497.75" x2="558.2598" y1="667.4883" y2="667.4883"/><text fill="#000000" font-family="sans-serif" font-size="14" lengthAdjust="spacing" textLength="40.5098" x="507.75" y="659.5352">Ready</text></g><g><rect fill="#FFFFFF" height="50" rx="12.5" ry="12.5" style="stroke:#181818;stroke-width:0.5;" width="82.0088" x="531" y="1067"/><line style="stroke:#181818;stroke-width:0.5;" x1="531" x2="613.0088" y1="1093.4883" y2="1093.4883"/><text fill="#000000" font-family="sans-serif" font-size="14" lengthAdjust="spacing" textLength="62.0088" x="541" y="1085.5352">Assigned</text></g><g><rect fill="#FFFFFF" height="50" rx="12.5" ry="12.5" style="stroke:#181818;stroke-width:0.5;" width="130.8174" x="436.59" y="925"/><line style="stroke:#181818;stroke-width:0.5;" x1="436.59" x2="567.4074" y1="951.4883" y2="951.4883"/><text fill="#000000" font-family="sans-serif" font-size="14" lengthAdjust="spacing" textLength="110.8174" x="446.59" y="943.5352">HostReprovision</text></g><g><rect fill="#FFFFFF" height="50" rx="12.5" ry="12.5" style="stroke:#181818;stroke-width:0.5;" width="127.4814" x="802.26" y="783"/><line style="stroke:#181818;stroke-width:0.5;" x1="802.26" x2="929.7414" y1="809.4883" y2="809.4883"/><text fill="#000000" font-family="sans-serif" font-size="14" lengthAdjust="spacing" textLength="107.4814" x="812.26" y="801.5352">DPUReprovision</text></g><g><rect fill="#FFFFFF" height="50" rx="12.5" ry="12.5" style="stroke:#181818;stroke-width:0.5;" width="181.3281" x="631.34" y="1209"/><line style="stroke:#181818;stroke-width:0.5;" x1="631.34" x2="812.6681" y1="1235.4883" y2="1235.4883"/><text fill="#000000" font-family="sans-serif" font-size="14" lengthAdjust="spacing" textLength="161.3281" x="641.34" y="1227.5352">PostAssignedMeasuring</text></g><g><rect fill="#FFFFFF" height="50" rx="12.5" ry="12.5" style="stroke:#181818;stroke-width:0.5;" width="147.7432" x="529.13" y="1336"/><line style="stroke:#181818;stroke-width:0.5;" x1="529.13" x2="676.8732" y1="1362.4883" y2="1362.4883"/><text fill="#000000" font-family="sans-serif" font-size="14" lengthAdjust="spacing" textLength="127.7432" x="539.13" y="1354.5352">WaitingForCleanup</text></g><g><rect fill="#FFFFFF" height="50" rx="12.5" ry="12.5" style="stroke:#181818;stroke-width:0.5;" width="165.3936" x="825.3" y="7"/><line style="stroke:#181818;stroke-width:0.5;" x1="825.3" x2="990.6936" y1="33.4883" y2="33.4883"/><text fill="#000000" font-family="sans-serif" font-size="14" lengthAdjust="spacing" textLength="145.3936" x="835.3" y="25.5352">AnyNotAssignedState</text></g><g><rect fill="#FFFFFF" height="50" rx="12.5" ry="12.5" style="stroke:#181818;stroke-width:0.5;" width="59.9424" x="812.03" y="134"/><line style="stroke:#181818;stroke-width:0.5;" x1="812.03" x2="871.9724" y1="160.4883" y2="160.4883"/><text fill="#000000" font-family="sans-serif" font-size="14" lengthAdjust="spacing" textLength="39.9424" x="822.03" y="152.5352">Failed</text></g><g><rect fill="#FFFFFF" height="50" rx="12.5" ry="12.5" style="stroke:#181818;stroke-width:0.5;" width="113.5088" x="785.25" y="276"/><line style="stroke:#181818;stroke-width:0.5;" x1="785.25" x2="898.7588" y1="302.4883" y2="302.4883"/><text fill="#000000" font-family="sans-serif" font-size="14" lengthAdjust="spacing" textLength="93.5088" x="795.25" y="294.5352">ForceDeletion</text></g><ellipse cx="518" cy="32" fill="#222222" rx="10" ry="10" style="stroke:#222222;stroke-width:1;"/><ellipse cx="842" cy="428" fill="none" rx="11" ry="11" style="stroke:#222222;stroke-width:1;"/><ellipse cx="842" cy="428" fill="#222222" rx="6" ry="6" style="stroke:#222222;stroke-width:1;"/><!--link *start* to DpuDiscoveringState--><g class="link" data-entity-1="ent0002" data-entity-2="ent0002" data-link-type="dependency" data-source-line="22" id="lnk3"><path d="M518,42.4 C518,61.59 518,99.82 518,127.67" fill="none" id="*start*-to-DpuDiscoveringState" style="stroke:#181818;stroke-width:1;"/><polygon fill="#181818" points="518,133.67,522,124.67,518,128.67,514,124.67,518,133.67" style="stroke:#181818;stroke-width:1;"/><text fill="#000000" font-family="sans-serif" font-size="13" lengthAdjust="spacing" textLength="222.9106" x="519" y="100.5684">Site Explorer creates managed host</text></g><!--link DpuDiscoveringState to DPUInit--><g class="link" data-entity-1="ent0002" data-entity-2="ent0003" data-link-type="dependency" data-source-line="24" id="lnk4"><path d="M535.24,184.39 C553.42,210.08 578.3965,245.4006 596.4865,270.9906" fill="none" id="DpuDiscoveringState-to-DPUInit" style="stroke:#181818;stroke-width:1;"/><polygon fill="#181818" points="599.95,275.89,598.0211,266.2319,597.0638,271.8072,591.4885,270.8499,599.95,275.89" style="stroke:#181818;stroke-width:1;"/><text fill="#000000" font-family="sans-serif" font-size="13" lengthAdjust="spacing" textLength="207.3843" x="577.37" y="227.5684">All DPU Security Boot Configured</text><text fill="#000000" font-family="sans-serif" font-size="13" lengthAdjust="spacing" textLength="74.5215" x="643.8014" y="242.8789">DPU Reboot</text></g><!--link DpuDiscoveringState to HostInit--><g class="link" data-entity-1="ent0002" data-entity-2="ent0004" data-link-type="dependency" data-source-line="25" id="lnk5"><path d="M516.62,184.5 C515.04,216.9 513.03,275.79 516,326 C517.55,352.26 520.5102,376.2305 523.4302,396.6405" fill="none" id="DpuDiscoveringState-to-HostInit" style="stroke:#181818;stroke-width:1;"/><polygon fill="#181818" points="524.28,402.58,526.9651,393.1042,523.5719,397.6304,519.0457,394.2372,524.28,402.58" style="stroke:#181818;stroke-width:1;"/><text fill="#000000" font-family="sans-serif" font-size="13" lengthAdjust="spacing" textLength="47.6328" x="517" y="306.0684">No DPU</text></g><!--link DPUInit to HostInit--><g class="link" data-entity-1="ent0003" data-entity-2="ent0004" data-link-type="dependency" data-source-line="27" id="lnk6"><path d="M599.63,326.4 C583.95,348.42 564.4809,375.773 548.8109,397.773" fill="none" id="DPUInit-to-HostInit" style="stroke:#181818;stroke-width:1;"/><polygon fill="#181818" points="545.33,402.66,553.8094,397.65,548.2308,398.5875,547.2933,393.0088,545.33,402.66" style="stroke:#181818;stroke-width:1;"/><text fill="#000000" font-family="sans-serif" font-size="13" lengthAdjust="spacing" textLength="67.6597" x="578.83" y="369.5684">DPU Ready</text></g><!--link HostInit to BomValidating--><g class="link" data-entity-1="ent0004" data-entity-2="ent0006" data-link-type="dependency" data-source-line="29" id="lnk7"><path d="M490.88,429.92 C371.62,433.89 6,454.17 6,554 C6,554 6,554 6,1362 C6,1416.26 386.5907,1453.2819 537.5907,1465.8619" fill="none" id="HostInit-to-BomValidating" style="stroke:#181818;stroke-width:1;"/><polygon fill="#181818" points="543.57,1466.36,534.9332,1461.6266,538.5873,1465.9449,534.269,1469.599,543.57,1466.36" style="stroke:#181818;stroke-width:1;"/><text fill="#000000" font-family="sans-serif" font-size="13" lengthAdjust="spacing" textLength="103.6445" x="7" y="955.0684">Host Configured</text></g><!--link HostInit to HostInit_HI_Discovered--><g class="link" data-entity-1="ent0004" data-entity-2="ent0005" data-link-type="dependency" data-source-line="30" id="lnk8"><path d="M564.96,438.91 C640.52,459.18 808.3249,504.1955 910.0249,531.4755" fill="none" id="HostInit-to-HostInit_HI_Discovered" style="stroke:#181818;stroke-width:1;"/><polygon fill="#181818" points="915.82,533.03,908.1636,526.8348,910.9907,531.7346,906.091,534.5617,915.82,533.03" style="stroke:#181818;stroke-width:1;"/><text fill="#000000" font-family="sans-serif" font-size="13" lengthAdjust="spacing" textLength="130.6602" x="789.9" y="496.5684">see HostInit diagram</text></g><!--link HostInit_HI_Discovered to Ready--><g class="link" data-entity-1="ent0005" data-entity-2="ent0009" data-link-type="dependency" data-source-line="31" id="lnk9"><path d="M916,574.24 C811.33,598.73 636.1022,639.7131 564.3822,656.4931" fill="none" id="HostInit_HI_Discovered-to-Ready" style="stroke:#181818;stroke-width:1;"/><polygon fill="#181818" points="558.54,657.86,568.2146,659.7045,563.4085,656.7209,566.3921,651.9149,558.54,657.86" style="stroke:#181818;stroke-width:1;"/></g><!--link BomValidating to Validation--><g class="link" data-entity-1="ent0006" data-entity-2="ent0007" data-link-type="dependency" data-source-line="33" id="lnk10"><path d="M662.42,1494.42 C712.32,1512.23 785.58,1537.97 850,1559 C894.9,1573.66 940.8379,1587.5831 976.7279,1598.2331" fill="none" id="BomValidating-to-Validation" style="stroke:#181818;stroke-width:1;"/><polygon fill="#181818" points="982.48,1599.94,974.9898,1593.545,977.6866,1598.5176,972.7139,1601.2144,982.48,1599.94" style="stroke:#181818;stroke-width:1;"/><text fill="#000000" font-family="sans-serif" font-size="13" lengthAdjust="spacing" textLength="64.2637" x="893.5801" y="1540.5684">BOM Valid</text><text fill="#000000" font-family="sans-serif" font-size="13" lengthAdjust="spacing" textLength="149.4238" x="851" y="1555.8789">AND Validation Enabled</text></g><!--link BomValidating to HostInit_HI_Discovered--><g class="link" data-entity-1="ent0006" data-entity-2="ent0005" data-link-type="dependency" data-source-line="34" id="lnk11"><path d="M662.45,1465.8 C808.1,1452.26 1171,1413.37 1171,1362 C1171,665 1171,665 1171,665 C1171,615.2 1125.2896,589.2228 1077.8696,574.1928" fill="none" id="BomValidating-to-HostInit_HI_Discovered" style="stroke:#181818;stroke-width:1;"/><polygon fill="#181818" points="1072.15,572.38,1079.5208,578.9123,1076.9163,573.8907,1081.9379,571.2862,1072.15,572.38" style="stroke:#181818;stroke-width:1;"/><text fill="#000000" font-family="sans-serif" font-size="13" lengthAdjust="spacing" textLength="64.2637" x="1217.0842" y="1018.5684">BOM Valid</text><text fill="#000000" font-family="sans-serif" font-size="13" lengthAdjust="spacing" textLength="154.4321" x="1172" y="1033.8789">AND Validation Disabled</text></g><!--link Validation to HostInit_HI_Discovered--><g class="link" data-entity-1="ent0007" data-entity-2="ent0005" data-link-type="dependency" data-source-line="36" id="lnk12"><path d="M1071.23,1613.29 C1159.7,1611.31 1350,1593.1 1350,1473 C1350,665 1350,665 1350,665 C1350,607.31 1182.8742,577.8198 1078.0842,564.7998" fill="none" id="Validation-to-HostInit_HI_Discovered" style="stroke:#181818;stroke-width:1;"/><polygon fill="#181818" points="1072.13,564.06,1080.5681,569.1392,1077.0918,564.6765,1081.5545,561.2002,1072.13,564.06" style="stroke:#181818;stroke-width:1;"/><text fill="#000000" font-family="sans-serif" font-size="13" lengthAdjust="spacing" textLength="127.7466" x="1351" y="1097.0684">Validation Complete</text></g><!--link Measuring to Ready--><g class="link" data-entity-1="ent0008" data-entity-2="ent0009" data-link-type="dependency" data-source-line="37" id="lnk13"><path d="M708.81,782.65 C697.47,763.68 679.57,737.83 658,721 C628.03,697.63 592.2735,684.3979 564.2835,676.2979" fill="none" id="Measuring-to-Ready" style="stroke:#181818;stroke-width:1;"/><polygon fill="#181818" points="558.52,674.63,566.0533,680.9742,563.3229,676.0199,568.2772,673.2895,558.52,674.63" style="stroke:#181818;stroke-width:1;"/><text fill="#000000" font-family="sans-serif" font-size="13" lengthAdjust="spacing" textLength="127.3022" x="689.39" y="742.0684">Measurements Valid</text></g><!--link Ready to Measuring--><g class="link" data-entity-1="ent0009" data-entity-2="ent0008" data-link-type="dependency" data-source-line="43" id="lnk18"><path d="M517.83,691.12 C511.65,709.96 507.31,735.76 521,753 C557.61,799.1 593.35,767.01 650,783 C658.62,785.43 662.035,786.4118 670.785,789.2618" fill="none" id="Ready-to-Measuring" style="stroke:#181818;stroke-width:1;"/><polygon fill="#181818" points="676.49,791.12,669.1713,784.5294,671.7358,789.5715,666.6937,792.136,676.49,791.12" style="stroke:#181818;stroke-width:1;"/><text fill="#000000" font-family="sans-serif" font-size="13" lengthAdjust="spacing" textLength="127.5562" x="522" y="734.5684">Redo Measurements</text><text fill="#000000" font-family="sans-serif" font-size="13" lengthAdjust="spacing" textLength="50.4448" x="560.5557" y="749.8789">Request</text></g><!--link Ready to HostInit--><g class="link" data-entity-1="ent0009" data-entity-2="ent0004" data-link-type="dependency" data-source-line="39" id="lnk14"><path d="M528,640.77 C528,595.53 528,504.71 528,459.37" fill="none" id="Ready-to-HostInit" style="stroke:#181818;stroke-width:1;"/><polygon fill="#181818" points="528,453.37,524,462.37,528,458.37,532,462.37,528,453.37" style="stroke:#181818;stroke-width:1;"/><text fill="#000000" font-family="sans-serif" font-size="13" lengthAdjust="spacing" textLength="91.5586" x="529" y="552.5684">BIOS Password</text><text fill="#000000" font-family="sans-serif" font-size="13" lengthAdjust="spacing" textLength="87.166" x="531.1963" y="567.8789">Setup Needed</text></g><!--link Ready to Assigned--><g class="link" data-entity-1="ent0009" data-entity-2="ent0010" data-link-type="dependency" data-source-line="40" id="lnk15"><path d="M497.36,671.89 C462.64,678.55 405.5,693 364,721 C286.13,773.55 210.48,807.24 244,895 C274.21,974.1 298.9,992.62 371,1037 C420.85,1067.68 482.154,1080.3572 524.814,1086.1172" fill="none" id="Ready-to-Assigned" style="stroke:#181818;stroke-width:1;"/><polygon fill="#181818" points="530.76,1086.92,522.3762,1081.7517,525.805,1086.251,521.3057,1089.6798,530.76,1086.92" style="stroke:#181818;stroke-width:1;"/><text fill="#000000" font-family="sans-serif" font-size="13" lengthAdjust="spacing" textLength="114.1436" x="245" y="884.0684">Instance Assigned</text></g><!--link Ready to HostReprovision--><g class="link" data-entity-1="ent0009" data-entity-2="ent0011" data-link-type="dependency" data-source-line="41" id="lnk16"><path d="M497.52,676.52 C455.44,691.5 381.21,725.03 350,783 C318.7,841.15 389.6845,892.0304 445.1345,921.8204" fill="none" id="Ready-to-HostReprovision" style="stroke:#181818;stroke-width:1;"/><polygon fill="#181818" points="450.42,924.66,444.3848,916.8769,446.0154,922.2937,440.5987,923.9243,450.42,924.66" style="stroke:#181818;stroke-width:1;"/><text fill="#000000" font-family="sans-serif" font-size="13" lengthAdjust="spacing" textLength="107.0151" x="351" y="805.5684">Host Reprovision</text><text fill="#000000" font-family="sans-serif" font-size="13" lengthAdjust="spacing" textLength="50.4448" x="379.2852" y="820.8789">Request</text></g><!--link HostReprovision to Ready--><g class="link" data-entity-1="ent0011" data-entity-2="ent0009" data-link-type="dependency" data-source-line="52" id="lnk25"><path d="M499.01,924.68 C494.54,882.6 488.23,793.73 504,721 C506.2,710.87 507.8248,705.754 512.1048,696.704" fill="none" id="HostReprovision-to-Ready" style="stroke:#181818;stroke-width:1;"/><polygon fill="#181818" points="514.67,691.28,507.2062,697.7059,512.5324,695.8,514.4383,701.1261,514.67,691.28" style="stroke:#181818;stroke-width:1;"/><text fill="#000000" font-family="sans-serif" font-size="13" lengthAdjust="spacing" textLength="138.3916" x="496.31" y="813.0684">Reprovision Complete</text></g><!--link Ready to DPUReprovision--><g class="link" data-entity-1="ent0009" data-entity-2="ent0012" data-link-type="dependency" data-source-line="42" id="lnk17"><path d="M558.69,669.07 C625.91,674.15 783.42,689.2 825,721 C844.71,736.07 853.7963,757.2283 859.2663,776.9483" fill="none" id="Ready-to-DPUReprovision" style="stroke:#181818;stroke-width:1;"/><polygon fill="#181818" points="860.87,782.73,862.3188,772.9883,859.5335,777.9119,854.6099,775.1266,860.87,782.73" style="stroke:#181818;stroke-width:1;"/><text fill="#000000" font-family="sans-serif" font-size="13" lengthAdjust="spacing" textLength="103.9175" x="849.69" y="734.5684">DPU Reprovision</text><text fill="#000000" font-family="sans-serif" font-size="13" lengthAdjust="spacing" textLength="50.4448" x="876.4263" y="749.8789">Request</text></g><!--link Ready to BomValidating--><g class="link" data-entity-1="ent0009" data-entity-2="ent0006" data-link-type="dependency" data-source-line="44" id="lnk19"><path d="M497.28,672 C409.52,687.13 164,735.82 164,807 C164,807 164,807 164,1362 C164,1439.35 417.9786,1461.8785 537.7986,1468.3085" fill="none" id="Ready-to-BomValidating" style="stroke:#181818;stroke-width:1;"/><polygon fill="#181818" points="543.79,1468.63,535.0173,1464.1535,538.7972,1468.3621,534.5886,1472.142,543.79,1468.63" style="stroke:#181818;stroke-width:1;"/><text fill="#000000" font-family="sans-serif" font-size="13" lengthAdjust="spacing" textLength="96.1162" x="165" y="1089.5684">BOM Validation</text><text fill="#000000" font-family="sans-serif" font-size="13" lengthAdjust="spacing" textLength="50.4448" x="187.8357" y="1104.8789">Request</text></g><!--link Ready to Validation--><g class="link" data-entity-1="ent0009" data-entity-2="ent0007" data-link-type="dependency" data-source-line="45" id="lnk20"><path d="M558.53,668.66 C652.6,674.07 933.41,692.48 962,721 C982.3,741.25 1027,1204.33 1027,1233 C1027,1233 1027,1233 1027,1473 C1027,1513.59 1027,1554.8 1027,1582.72" fill="none" id="Ready-to-Validation" style="stroke:#181818;stroke-width:1;"/><polygon fill="#181818" points="1027,1588.72,1031,1579.72,1027,1583.72,1023,1579.72,1027,1588.72" style="stroke:#181818;stroke-width:1;"/><text fill="#000000" font-family="sans-serif" font-size="13" lengthAdjust="spacing" textLength="119.5137" x="1023.71" y="1160.5684">Machine Validation</text><text fill="#000000" font-family="sans-serif" font-size="13" lengthAdjust="spacing" textLength="50.4448" x="1058.2444" y="1175.8789">Request</text></g><!--link Assigned to PostAssignedMeasuring--><g class="link" data-entity-1="ent0010" data-entity-2="ent0013" data-link-type="dependency" data-source-line="47" id="lnk21"><path d="M598.13,1117.39 C625.58,1143 664.1036,1178.9662 691.5336,1204.5662" fill="none" id="Assigned-to-PostAssignedMeasuring" style="stroke:#181818;stroke-width:1;"/><polygon fill="#181818" points="695.92,1208.66,692.0695,1199.595,692.2646,1205.2485,686.6111,1205.4436,695.92,1208.66" style="stroke:#181818;stroke-width:1;"/><text fill="#000000" font-family="sans-serif" font-size="13" lengthAdjust="spacing" textLength="149.2397" x="661.44" y="1168.0684">Measurements required</text></g><!--link Assigned to WaitingForCleanup--><g class="link" data-entity-1="ent0010" data-entity-2="ent0014" data-link-type="dependency" data-source-line="48" id="lnk22"><path d="M566.42,1117.45 C559.88,1150.06 551.1,1209.43 561,1259 C566.47,1286.38 576.7867,1310.2586 586.8967,1330.1986" fill="none" id="Assigned-to-WaitingForCleanup" style="stroke:#181818;stroke-width:1;"/><polygon fill="#181818" points="589.61,1335.55,589.1077,1325.714,587.3489,1331.0905,581.9724,1329.3317,589.61,1335.55" style="stroke:#181818;stroke-width:1;"/><text fill="#000000" font-family="sans-serif" font-size="13" lengthAdjust="spacing" textLength="51.4922" x="562" y="1239.0684">Cleanup</text></g><!--link Assigned to HostReprovision--><g class="link" data-entity-1="ent0010" data-entity-2="ent0011" data-link-type="dependency" data-source-line="49" id="lnk23"><path d="M561.68,1066.61 C554.15,1049.23 543.46,1025.43 533,1005 C527.97,995.19 525.0476,989.806 519.7176,980.646" fill="none" id="Assigned-to-HostReprovision" style="stroke:#181818;stroke-width:1;"/><polygon fill="#181818" points="516.7,975.46,517.7691,985.2507,519.2147,979.7816,524.6837,981.2272,516.7,975.46" style="stroke:#181818;stroke-width:1;"/><text fill="#000000" font-family="sans-serif" font-size="13" lengthAdjust="spacing" textLength="154.3877" x="548.71" y="1026.0684">Host reprovision needed</text></g><!--link HostReprovision to Assigned--><g class="link" data-entity-1="ent0011" data-entity-2="ent0010" data-link-type="dependency" data-source-line="53" id="lnk26"><path d="M436.2,971.58 C399.21,986.71 364.24,1009.4 385,1037 C402.52,1060.29 475.4112,1075.7259 524.9712,1083.9659" fill="none" id="HostReprovision-to-Assigned" style="stroke:#181818;stroke-width:1;"/><polygon fill="#181818" points="530.89,1084.95,522.6679,1079.5281,525.9577,1084.1299,521.3558,1087.4197,530.89,1084.95" style="stroke:#181818;stroke-width:1;"/><text fill="#000000" font-family="sans-serif" font-size="13" lengthAdjust="spacing" textLength="138.3916" x="386" y="1026.0684">Reprovision Complete</text></g><!--link Assigned to DPUReprovision--><g class="link" data-entity-1="ent0010" data-entity-2="ent0012" data-link-type="dependency" data-source-line="50" id="lnk24"><path d="M613.19,1082.86 C643.3,1075.2 683.66,1061.18 712,1037 C780.01,978.95 758.82,934.13 813,863 C820.88,852.66 826.3331,846.4683 835.2831,837.5783" fill="none" id="Assigned-to-DPUReprovision" style="stroke:#181818;stroke-width:1;"/><polygon fill="#181818" points="839.54,833.35,830.3358,836.8546,835.9926,836.8736,835.9736,842.5304,839.54,833.35" style="stroke:#181818;stroke-width:1;"/></g><!--link DPUReprovision to Assigned--><g class="link" data-entity-1="ent0012" data-entity-2="ent0010" data-link-type="dependency" data-source-line="55" id="lnk27"><path d="M861.57,833.36 C851.52,880.98 822.3,986.19 753,1037 C711.35,1067.54 658.3755,1080.0626 619.2055,1085.8526" fill="none" id="DPUReprovision-to-Assigned" style="stroke:#181818;stroke-width:1;"/><polygon fill="#181818" points="613.27,1086.73,622.7582,1089.3709,618.2163,1085.9989,621.5883,1081.4569,613.27,1086.73" style="stroke:#181818;stroke-width:1;"/><text fill="#000000" font-family="sans-serif" font-size="13" lengthAdjust="spacing" textLength="141.8955" x="833.18" y="955.0684">if came from Assigned</text></g><!--link DPUReprovision to HostInit_HI_Discovered--><g class="link" data-entity-1="ent0012" data-entity-2="ent0005" data-link-type="dependency" data-source-line="56" id="lnk28"><path d="M928.31,782.72 C941.21,775.02 953.46,765.23 962,753 C998.91,700.16 999.4813,626.0966 996.8113,586.2666" fill="none" id="DPUReprovision-to-HostInit_HI_Discovered" style="stroke:#181818;stroke-width:1;"/><polygon fill="#181818" points="996.41,580.28,993.0209,589.5274,996.7444,585.2688,1001.003,588.9923,996.41,580.28" style="stroke:#181818;stroke-width:1;"/><text fill="#000000" font-family="sans-serif" font-size="13" lengthAdjust="spacing" textLength="121.9321" x="997.14" y="671.0684">if came from Ready</text></g><!--link DPUReprovision to HostReprovision--><g class="link" data-entity-1="ent0012" data-entity-2="ent0011" data-link-type="dependency" data-source-line="57" id="lnk29"><path d="M802.06,828.65 C796.31,830.2 790.56,831.68 785,833 C712.06,850.34 687.87,833.37 619,863 C584.26,877.95 554.5669,900.9278 532.1969,920.6878" fill="none" id="DPUReprovision-to-HostReprovision" style="stroke:#181818;stroke-width:1;"/><polygon fill="#181818" points="527.7,924.66,537.0934,921.6996,531.4474,921.3498,531.7972,915.7038,527.7,924.66" style="stroke:#181818;stroke-width:1;"/><text fill="#000000" font-family="sans-serif" font-size="13" lengthAdjust="spacing" textLength="104.1143" x="620" y="876.5684">Host reprovision</text><text fill="#000000" font-family="sans-serif" font-size="13" lengthAdjust="spacing" textLength="62.9688" x="640.5728" y="891.8789">requested</text></g><!--link WaitingForCleanup to BomValidating--><g class="link" data-entity-1="ent0014" data-entity-2="ent0006" data-link-type="dependency" data-source-line="59" id="lnk30"><path d="M603,1386.46 C603,1404.41 603,1422.69 603,1440.62" fill="none" id="WaitingForCleanup-to-BomValidating" style="stroke:#181818;stroke-width:1;"/><polygon fill="#181818" points="603,1446.62,607,1437.62,603,1441.62,599,1437.62,603,1446.62" style="stroke:#181818;stroke-width:1;"/></g><!--link PostAssignedMeasuring to WaitingForCleanup--><g class="link" data-entity-1="ent0013" data-entity-2="ent0014" data-link-type="dependency" data-source-line="61" id="lnk31"><path d="M698.77,1259.4 C677.81,1281.42 651.2577,1309.3149 630.3077,1331.3149" fill="none" id="PostAssignedMeasuring-to-WaitingForCleanup" style="stroke:#181818;stroke-width:1;"/><polygon fill="#181818" points="626.17,1335.66,635.2732,1331.9009,629.6181,1332.0391,629.4798,1326.384,626.17,1335.66" style="stroke:#181818;stroke-width:1;"/><text fill="#000000" font-family="sans-serif" font-size="13" lengthAdjust="spacing" textLength="153.9941" x="670.62" y="1302.5684">Measurements complete</text></g><!--link AnyNotAssignedState to Failed--><g class="link" data-entity-1="ent0015" data-entity-2="ent0016" data-link-type="dependency" data-source-line="63" id="lnk32"><path d="M848.32,57.5 C836.6,65.16 825.83,74.87 819,87 C810.8,101.57 813.7871,114.2345 821.6671,128.4245" fill="none" id="AnyNotAssignedState-to-Failed" style="stroke:#181818;stroke-width:1;"/><polygon fill="#181818" points="824.58,133.67,823.7076,123.8599,822.1526,129.2988,816.7136,127.7437,824.58,133.67" style="stroke:#181818;stroke-width:1;"/><text fill="#000000" font-family="sans-serif" font-size="13" lengthAdjust="spacing" textLength="131.4854" x="820" y="100.5684">Any failure condition</text></g><!--link Failed to AnyNotAssignedState--><g class="link" data-entity-1="ent0016" data-entity-2="ent0015" data-link-type="dependency" data-source-line="64" id="lnk33"><path d="M872.23,152.93 C899.39,146.61 937.73,132.87 956,104 C965.95,88.28 959.0456,75.1584 944.9756,61.5684" fill="none" id="Failed-to-AnyNotAssignedState" style="stroke:#181818;stroke-width:1;"/><polygon fill="#181818" points="940.66,57.4,944.3545,66.5297,944.2563,60.8737,949.9123,60.7755,940.66,57.4" style="stroke:#181818;stroke-width:1;"/><text fill="#000000" font-family="sans-serif" font-size="13" lengthAdjust="spacing" textLength="187.0464" x="960.77" y="100.5684">Recovery (see Failed diagram)</text></g><!--link Failed to ForceDeletion--><g class="link" data-entity-1="ent0016" data-entity-2="ent0017" data-link-type="dependency" data-source-line="65" id="lnk34"><path d="M842,184.39 C842,210.08 842,244.3 842,269.89" fill="none" id="Failed-to-ForceDeletion" style="stroke:#181818;stroke-width:1;"/><polygon fill="#181818" points="842,275.89,846,266.89,842,270.89,838,266.89,842,275.89" style="stroke:#181818;stroke-width:1;"/><text fill="#000000" font-family="sans-serif" font-size="13" lengthAdjust="spacing" textLength="140.6069" x="843" y="235.0684">Admin forced deletion</text></g><!--link Failed to Failed--><g class="link" data-entity-1="ent0016" data-entity-2="ent0016" data-link-type="dependency" data-source-line="66" id="lnk35"><path d="M872.41,147.79 C890.26,145.4 906.97,149.14 906.97,159 C906.97,168.86 896.2069,173.3963 878.3569,171.0063" fill="none" id="Failed-to-Failed" style="stroke:#181818;stroke-width:1;"/><polygon fill="#181818" points="872.41,170.21,880.7996,175.369,877.3658,170.8735,881.8612,167.4398,872.41,170.21" style="stroke:#181818;stroke-width:1;"/><text fill="#000000" font-family="sans-serif" font-size="13" lengthAdjust="spacing" textLength="153.3721" x="912.97" y="164.0684">Unrecoverable condition</text></g><!--link ForceDeletion to *end*--><g class="link" data-entity-1="ent0017" data-entity-2="ent0036" data-link-type="dependency" data-source-line="68" id="lnk37"><path d="M842,326.4 C842,353.82 842,391.08 842,410.7" fill="none" id="ForceDeletion-to-*end*" style="stroke:#181818;stroke-width:1;"/><polygon fill="#181818" points="842,416.7,846,407.7,842,411.7,838,407.7,842,416.7" style="stroke:#181818;stroke-width:1;"/><text fill="#000000" font-family="sans-serif" font-size="13" lengthAdjust="spacing" textLength="151.5693" x="843" y="369.5684">Force deletion complete</text></g></g></svg>