<?plantuml 1.2026.1?><svg xmlns="http://www.w3.org/2000/svg" xmlns:xlink="http://www.w3.org/1999/xlink" contentStyleType="text/css" data-diagram-type="STATE" height="1409px" preserveAspectRatio="none" style="width:875px;height:1409px;background:#FFFFFF;" version="1.1" viewBox="0 0 875 1409" width="875px" zoomAndPan="magnify"><defs/><g><!--cluster C_SecureEraseBoss--><g class="cluster" data-qualified-name="C_SecureEraseBoss" data-source-line="16" id="ent0005"><path d="M63.5,246 L545.5,246 A12.5,12.5 0 0 1 558,258.5 L558,267.4883 L51,267.4883 L51,258.5 A12.5,12.5 0 0 1 63.5,246" fill="#FFFFFF"/><rect fill="none" height="450" rx="12.5" ry="12.5" style="stroke:#000000;stroke-width:0.5;" width="507" x="51" y="246"/><line style="stroke:#000000;stroke-width:0.5;" x1="51" x2="558" y1="267.4883" y2="267.4883"/><text fill="#000000" font-family="sans-serif" font-size="14" lengthAdjust="spacing" textLength="111.6377" x="248.6812" y="263.5352">SecureEraseBoss</text></g><!--cluster C_CreateBossVolume--><g class="cluster" data-qualified-name="C_CreateBossVolume" data-source-line="23" id="ent0011"><path d="M19.5,745 L619.5,745 A12.5,12.5 0 0 1 632,757.5 L632,766.4883 L7,766.4883 L7,757.5 A12.5,12.5 0 0 1 19.5,745" fill="#FFFFFF"/><rect fill="none" height="561" rx="12.5" ry="12.5" style="stroke:#000000;stroke-width:0.5;" width="625" x="7" y="745"/><line style="stroke:#000000;stroke-width:0.5;" x1="7" x2="632" y1="766.4883" y2="766.4883"/><text fill="#000000" font-family="sans-serif" font-size="14" lengthAdjust="spacing" textLength="142.9531" x="248.0234" y="762.5352">C_CreateBossVolume</text></g><g><rect fill="#FFFFFF" height="50" rx="12.5" ry="12.5" style="stroke:#000000;stroke-width:0.5;" width="97.6494" x="282.18" y="281"/><line style="stroke:#000000;stroke-width:0.5;" x1="282.18" x2="379.8294" y1="307.4883" y2="307.4883"/><text fill="#000000" font-family="sans-serif" font-size="14" lengthAdjust="spacing" textLength="77.6494" x="292.18" y="299.5352">UnlockHost</text></g><g><rect fill="#FFFFFF" height="50" rx="12.5" ry="12.5" style="stroke:#000000;stroke-width:0.5;" width="131.6377" x="228.18" y="392"/><line style="stroke:#000000;stroke-width:0.5;" x1="228.18" x2="359.8177" y1="418.4883" y2="418.4883"/><text fill="#000000" font-family="sans-serif" font-size="14" lengthAdjust="spacing" textLength="111.6377" x="238.18" y="410.5352">SecureEraseBoss</text></g><g><rect fill="#FFFFFF" height="50" rx="12.5" ry="12.5" style="stroke:#000000;stroke-width:0.5;" width="171.1768" x="208.41" y="503"/><line style="stroke:#000000;stroke-width:0.5;" x1="208.41" x2="379.5868" y1="529.4883" y2="529.4883"/><text fill="#000000" font-family="sans-serif" font-size="14" lengthAdjust="spacing" textLength="151.1768" x="218.41" y="521.5352">WaitForJobCompletion</text></g><g><rect fill="#FFFFFF" height="50" rx="12.5" ry="12.5" style="stroke:#000000;stroke-width:0.5;" width="134.6797" x="66.66" y="630"/><line style="stroke:#000000;stroke-width:0.5;" x1="66.66" x2="201.3397" y1="656.4883" y2="656.4883"/><text fill="#000000" font-family="sans-serif" font-size="14" lengthAdjust="spacing" textLength="114.6797" x="76.66" y="648.5352">HandleJobFailure</text></g><g><rect fill="#FFFFFF" height="50" rx="12.5" ry="12.5" style="stroke:#000000;stroke-width:0.5;" width="146.2666" x="211.87" y="780"/><line style="stroke:#000000;stroke-width:0.5;" x1="211.87" x2="358.1366" y1="806.4883" y2="806.4883"/><text fill="#000000" font-family="sans-serif" font-size="14" lengthAdjust="spacing" textLength="126.2666" x="221.87" y="798.5352">CreateBossVolume</text></g><g><rect fill="#FFFFFF" height="50" rx="12.5" ry="12.5" style="stroke:#000000;stroke-width:0.5;" width="161.9482" x="204.03" y="891"/><line style="stroke:#000000;stroke-width:0.5;" x1="204.03" x2="365.9782" y1="917.4883" y2="917.4883"/><text fill="#000000" font-family="sans-serif" font-size="14" lengthAdjust="spacing" textLength="141.9482" x="214.03" y="909.5352">WaitForJobScheduled</text></g><g><rect fill="#FFFFFF" height="50" rx="12.5" ry="12.5" style="stroke:#000000;stroke-width:0.5;" width="99.1602" x="235.42" y="1002"/><line style="stroke:#000000;stroke-width:0.5;" x1="235.42" x2="334.5802" y1="1028.4883" y2="1028.4883"/><text fill="#000000" font-family="sans-serif" font-size="14" lengthAdjust="spacing" textLength="79.1602" x="245.42" y="1020.5352">RebootHost</text></g><g><rect fill="#FFFFFF" height="50" rx="12.5" ry="12.5" style="stroke:#000000;stroke-width:0.5;" width="171.1768" x="199.41" y="1113"/><line style="stroke:#000000;stroke-width:0.5;" x1="199.41" x2="370.5868" y1="1139.4883" y2="1139.4883"/><text fill="#000000" font-family="sans-serif" font-size="14" lengthAdjust="spacing" textLength="151.1768" x="209.41" y="1131.5352">WaitForJobCompletion</text></g><g><rect fill="#FFFFFF" height="50" rx="12.5" ry="12.5" style="stroke:#000000;stroke-width:0.5;" width="82.6787" x="533.66" y="1240"/><line style="stroke:#000000;stroke-width:0.5;" x1="533.66" x2="616.3387" y1="1266.4883" y2="1266.4883"/><text fill="#000000" font-family="sans-serif" font-size="14" lengthAdjust="spacing" textLength="62.6787" x="543.66" y="1258.5352">LockHost</text></g><g><rect fill="#FFFFFF" height="50" rx="12.5" ry="12.5" style="stroke:#000000;stroke-width:0.5;" width="134.6797" x="22.66" y="1240"/><line style="stroke:#000000;stroke-width:0.5;" x1="22.66" x2="157.3397" y1="1266.4883" y2="1266.4883"/><text fill="#000000" font-family="sans-serif" font-size="14" lengthAdjust="spacing" textLength="114.6797" x="32.66" y="1258.5352">HandleJobFailure</text></g><g><rect fill="#FFFFFF" height="50" rx="12.5" ry="12.5" style="stroke:#000000;stroke-width:0.5;" width="294.0117" x="242.99" y="7"/><line style="stroke:#000000;stroke-width:0.5;" x1="242.99" x2="537.0017" y1="33.4883" y2="33.4883"/><text fill="#000000" font-family="sans-serif" font-size="14" lengthAdjust="spacing" textLength="274.0117" x="252.99" y="25.5352">Assigned/A_WaitingForNetworkReconfig</text></g><g><rect fill="#FFFFFF" height="50" rx="12.5" ry="12.5" style="stroke:#000000;stroke-width:0.5;" width="59.9424" x="572.03" y="7"/><line style="stroke:#000000;stroke-width:0.5;" x1="572.03" x2="631.9724" y1="33.4883" y2="33.4883"/><text fill="#000000" font-family="sans-serif" font-size="14" lengthAdjust="spacing" textLength="39.9424" x="582.03" y="25.5352">Failed</text></g><g><rect fill="#FFFFFF" height="50" rx="12.5" ry="12.5" style="stroke:#000000;stroke-width:0.5;" width="50" x="471" y="118"/><line style="stroke:#000000;stroke-width:0.5;" x1="471" x2="521" y1="144.4883" y2="144.4883"/><text fill="#000000" font-family="sans-serif" font-size="14" lengthAdjust="spacing" textLength="22.0049" x="484.9976" y="136.5352">Init</text></g><g><rect fill="#FFFFFF" height="50" rx="12.5" ry="12.5" style="stroke:#000000;stroke-width:0.5;" width="123.4004" x="577.3" y="630"/><line style="stroke:#000000;stroke-width:0.5;" x1="577.3" x2="700.7004" y1="656.4883" y2="656.4883"/><text fill="#000000" font-family="sans-serif" font-size="14" lengthAdjust="spacing" textLength="103.4004" x="587.3" y="648.5352">C_HostCleanup</text></g><g><rect fill="#FFFFFF" height="50" rx="12.5" ry="12.5" style="stroke:#000000;stroke-width:0.5;" width="198.6641" x="666.67" y="7"/><line style="stroke:#000000;stroke-width:0.5;" x1="666.67" x2="865.3341" y1="33.4883" y2="33.4883"/><text fill="#000000" font-family="sans-serif" font-size="14" lengthAdjust="spacing" textLength="178.6641" x="676.67" y="25.5352">DisableBIOSBMCLockdown</text></g><g><rect fill="#FFFFFF" height="50" rx="12.5" ry="12.5" style="stroke:#000000;stroke-width:0.5;" width="250.3779" x="520.81" y="1353"/><line style="stroke:#000000;stroke-width:0.5;" x1="520.81" x2="771.1879" y1="1379.4883" y2="1379.4883"/><text fill="#000000" font-family="sans-serif" font-size="14" lengthAdjust="spacing" textLength="230.3779" x="530.81" y="1371.5352">BomValidating/UpdatingInventory</text></g><!--link Failed to C_Init--><g class="link" data-entity-1="ent0003" data-entity-2="ent0004" data-link-type="dependency" data-source-line="39" id="lnk2"><path d="M578.21,57.46 C560.75,75.41 541.3335,95.389 523.8935,113.319" fill="none" id="Failed-to-C_Init" style="stroke:#181818;stroke-width:1;"/><polygon fill="#181818" points="519.71,117.62,528.8525,113.9575,523.1962,114.0358,523.1179,108.3795,519.71,117.62" style="stroke:#181818;stroke-width:1;"/></g><!--link Assigned_A_WaitingForNetworkReconfig to C_Init--><g class="link" data-entity-1="ent0002" data-entity-2="ent0004" data-link-type="dependency" data-source-line="40" id="lnk3"><path d="M413.79,57.46 C431.25,75.41 450.6665,95.389 468.1065,113.319" fill="none" id="Assigned_A_WaitingForNetworkReconfig-to-C_Init" style="stroke:#181818;stroke-width:1;"/><polygon fill="#181818" points="472.29,117.62,468.8821,108.3795,468.8038,114.0358,463.1475,113.9575,472.29,117.62" style="stroke:#181818;stroke-width:1;"/></g><!--link C_Init to C_SEB_UnlockHost--><g class="link" data-entity-1="ent0004" data-entity-2="ent0006" data-link-type="dependency" data-source-line="41" id="lnk4"><path d="M470.94,168.45 C439.84,198.8 391.4048,246.0602 360.3148,276.3902" fill="none" id="C_Init-to-C_SEB_UnlockHost" style="stroke:#181818;stroke-width:1;"/><polygon fill="#181818" points="356.02,280.58,365.2554,277.1585,359.599,277.0885,359.669,271.4321,356.02,280.58" style="stroke:#181818;stroke-width:1;"/><text fill="#000000" font-family="sans-serif" font-size="13" lengthAdjust="spacing" textLength="37.1338" x="496.452" y="211.5684">If Dell</text><text fill="#000000" font-family="sans-serif" font-size="13" lengthAdjust="spacing" textLength="152.1978" x="438.92" y="226.8789">AND has Boss controller</text></g><!--link C_Init to C_HostCleanup--><g class="link" data-entity-1="ent0004" data-entity-2="ent0010" data-link-type="dependency" data-source-line="42" id="lnk5"><path d="M521.43,150.49 C545.37,157.93 580.39,172.53 600,198 C629.74,236.61 624,256.26 624,305 C624,305 624,305 624,529 C624,564.19 628.8921,598.6504 633.3021,623.7604" fill="none" id="C_Init-to-C_HostCleanup" style="stroke:#181818;stroke-width:1;"/><polygon fill="#181818" points="634.34,629.67,636.7229,620.1138,633.4751,624.7454,628.8435,621.4976,634.34,629.67" style="stroke:#181818;stroke-width:1;"/><text fill="#000000" font-family="sans-serif" font-size="13" lengthAdjust="spacing" textLength="62.1626" x="662.1116" y="414.5684">If not Dell</text><text fill="#000000" font-family="sans-serif" font-size="13" lengthAdjust="spacing" textLength="136.3857" x="625" y="429.8789">OR no Boss controller</text></g><!--link C_SEB_UnlockHost to C_SEB_SecureEraseBoss--><g class="link" data-entity-1="ent0006" data-entity-2="ent0007" data-link-type="dependency" data-source-line="44" id="lnk6"><path d="M322.7,331.46 C316.6,349.41 310.2868,368.0078 304.2068,385.9378" fill="none" id="C_SEB_UnlockHost-to-C_SEB_SecureEraseBoss" style="stroke:#181818;stroke-width:1;"/><polygon fill="#181818" points="302.28,391.62,308.9584,384.3812,303.8857,386.8848,301.3821,381.8122,302.28,391.62" style="stroke:#181818;stroke-width:1;"/></g><!--link C_SEB_SecureEraseBoss to C_SEB_WaitForJobCompletion--><g class="link" data-entity-1="ent0007" data-entity-2="ent0008" data-link-type="dependency" data-source-line="45" id="lnk7"><path d="M294,442.46 C294,460.41 294,478.69 294,496.62" fill="none" id="C_SEB_SecureEraseBoss-to-C_SEB_WaitForJobCompletion" style="stroke:#181818;stroke-width:1;"/><polygon fill="#181818" points="294,502.62,298,493.62,294,497.62,290,493.62,294,502.62" style="stroke:#181818;stroke-width:1;"/></g><!--link C_SEB_WaitForJobCompletion to C_HostCleanup--><g class="link" data-entity-1="ent0008" data-entity-2="ent0010" data-link-type="dependency" data-source-line="46" id="lnk8"><path d="M361.34,553.4 C423.89,576.06 510.6386,607.4968 571.4086,629.5068" fill="none" id="C_SEB_WaitForJobCompletion-to-C_HostCleanup" style="stroke:#181818;stroke-width:1;"/><polygon fill="#181818" points="577.05,631.55,569.9501,624.7242,572.3488,629.8473,567.2258,632.2461,577.05,631.55" style="stroke:#181818;stroke-width:1;"/><text fill="#000000" font-family="sans-serif" font-size="13" lengthAdjust="spacing" textLength="72.833" x="488.16" y="596.5684">Job success</text></g><!--link C_SEB_WaitForJobCompletion to C_SEB_HandleJobFailure--><g class="link" data-entity-1="ent0008" data-entity-2="ent0009" data-link-type="dependency" data-source-line="47" id="lnk9"><path d="M262.77,553.4 C234.58,575.42 198.0488,603.967 169.8788,625.967" fill="none" id="C_SEB_WaitForJobCompletion-to-C_SEB_HandleJobFailure" style="stroke:#181818;stroke-width:1;"/><polygon fill="#181818" points="165.15,629.66,174.7052,627.2729,169.0907,626.5825,169.7811,620.9679,165.15,629.66" style="stroke:#181818;stroke-width:1;"/><text fill="#000000" font-family="sans-serif" font-size="13" lengthAdjust="spacing" textLength="43.7988" x="224.58" y="596.5684">Job fail</text></g><!--link C_SEB_WaitForJobCompletion to C_SEB_WaitForJobCompletion--><g class="link" data-entity-1="ent0008" data-entity-2="ent0008" data-link-type="dependency" data-source-line="48" id="lnk10"><path d="M379.9,517.81 C399.88,518.67 414.59,522.07 414.59,528 C414.59,533.94 405.8744,537.072 385.8944,537.932" fill="none" id="C_SEB_WaitForJobCompletion-to-C_SEB_WaitForJobCompletion" style="stroke:#181818;stroke-width:1;"/><polygon fill="#181818" points="379.9,538.19,389.0637,541.7993,384.8954,537.975,388.7197,533.8067,379.9,538.19" style="stroke:#181818;stroke-width:1;"/><text fill="#000000" font-family="sans-serif" font-size="13" lengthAdjust="spacing" textLength="130.2983" x="420.59" y="533.0684">Wait job to complete</text></g><!--link C_SEB_HandleJobFailure to C_SEB_HandleJobFailure--><g class="link" data-entity-1="ent0009" data-entity-2="ent0009" data-link-type="dependency" data-source-line="49" id="lnk11"><path d="M201.42,649.06 C221.1,649.27 236.34,651.25 236.34,655 C236.34,658.75 227.0997,660.666 207.4197,660.876" fill="none" id="C_SEB_HandleJobFailure-to-C_SEB_HandleJobFailure" style="stroke:#181818;stroke-width:1;"/><polygon fill="#181818" points="201.42,660.94,210.4622,664.8437,206.4197,660.8866,210.3768,656.8442,201.42,660.94" style="stroke:#181818;stroke-width:1;"/><text fill="#000000" font-family="sans-serif" font-size="13" lengthAdjust="spacing" textLength="59.4077" x="284.2726" y="652.5684">Power off</text><text fill="#000000" font-family="sans-serif" font-size="13" lengthAdjust="spacing" textLength="143.2729" x="242.34" y="667.8789">OR Power on if needed</text></g><!--link C_SEB_HandleJobFailure to C_SEB_HandleJobFailure--><g class="link" data-entity-1="ent0009" data-entity-2="ent0009" data-link-type="dependency" data-source-line="51" id="lnk13"><path d="M201.66,645.5 C280.26,640.33 391.34,643.5 391.34,655 C391.34,666.5 286.2471,670.0638 207.6471,664.8938" fill="none" id="C_SEB_HandleJobFailure-to-C_SEB_HandleJobFailure-1" style="stroke:#181818;stroke-width:1;"/><polygon fill="#181818" points="201.66,664.5,210.3781,669.0821,206.6492,664.8282,210.9031,661.0993,201.66,664.5" style="stroke:#181818;stroke-width:1;"/><text fill="#000000" font-family="sans-serif" font-size="13" lengthAdjust="spacing" textLength="138.4106" x="397.34" y="660.0684">Power cycle (Off / On)</text></g><!--link C_SEB_HandleJobFailure to C_SEB_SecureEraseBoss--><g class="link" data-entity-1="ent0009" data-entity-2="ent0007" data-link-type="dependency" data-source-line="50" id="lnk12"><path d="M131.76,629.58 C130.09,597.75 131.51,541.62 157,503 C174.81,476.02 199.0777,458.7916 226.2377,445.0316" fill="none" id="C_SEB_HandleJobFailure-to-C_SEB_SecureEraseBoss" style="stroke:#181818;stroke-width:1;"/><polygon fill="#181818" points="231.59,442.32,221.7538,442.8192,227.1298,444.5797,225.3693,449.9556,231.59,442.32" style="stroke:#181818;stroke-width:1;"/><text fill="#000000" font-family="sans-serif" font-size="13" lengthAdjust="spacing" textLength="32.4365" x="158" y="533.0684">Retry</text></g><!--link C_HostCleanup to C_HostCleanup--><g class="link" data-entity-1="ent0010" data-entity-2="ent0010" data-link-type="dependency" data-source-line="52" id="lnk14"><path d="M700.85,643.1 C720.33,643.28 735.7,647.25 735.7,655 C735.7,662.75 726.3297,666.6646 706.8497,666.8446" fill="none" id="C_HostCleanup-to-C_HostCleanup" style="stroke:#181818;stroke-width:1;"/><polygon fill="#181818" points="700.85,666.9,709.8866,670.8167,705.8498,666.8538,709.8127,662.817,700.85,666.9" style="stroke:#181818;stroke-width:1;"/><text fill="#000000" font-family="sans-serif" font-size="13" lengthAdjust="spacing" textLength="102.3877" x="741.7" y="660.0684">Wait for cleanup</text></g><!--link C_HostCleanup to C_SBV_CreateBossVolume--><g class="link" data-entity-1="ent0010" data-entity-2="ent0012" data-link-type="dependency" data-source-line="53" id="lnk15"><path d="M605.03,680.3 C591.08,689.14 574.38,698.34 558,704 C532.16,712.93 523.35,704.71 497,712 C437.45,728.48 378.1848,755.7133 336.1448,776.9633" fill="none" id="C_HostCleanup-to-C_SBV_CreateBossVolume" style="stroke:#181818;stroke-width:1;"/><polygon fill="#181818" points="330.79,779.67,340.6267,779.1798,335.2523,777.4144,337.0177,772.0401,330.79,779.67" style="stroke:#181818;stroke-width:1;"/><text fill="#000000" font-family="sans-serif" font-size="13" lengthAdjust="spacing" textLength="158.0947" x="498" y="725.5684">if Boss controller present</text></g><!--link C_HostCleanup to BomValidating_BV_UpdatingInventory--><g class="link" data-entity-1="ent0010" data-entity-2="ent0019" data-link-type="dependency" data-source-line="54" id="lnk16"><path d="M651.02,680.48 C664.05,709.3 683,758.97 683,804 C683,804 683,804 683,1266 C683,1297.08 672.3913,1325.2581 661.7613,1347.2481" fill="none" id="C_HostCleanup-to-BomValidating_BV_UpdatingInventory" style="stroke:#181818;stroke-width:1;"/><polygon fill="#181818" points="659.15,1352.65,666.6683,1346.2879,661.3261,1348.1484,659.4657,1342.8062,659.15,1352.65" style="stroke:#181818;stroke-width:1;"/><text fill="#000000" font-family="sans-serif" font-size="13" lengthAdjust="spacing" textLength="183.1235" x="684" y="1032.0684">if Boss controller not present</text></g><!--link C_SBV_CreateBossVolume to C_SBV_WaitForJobScheduled--><g class="link" data-entity-1="ent0012" data-entity-2="ent0013" data-link-type="dependency" data-source-line="56" id="lnk17"><path d="M285,830.46 C285,848.41 285,866.69 285,884.62" fill="none" id="C_SBV_CreateBossVolume-to-C_SBV_WaitForJobScheduled" style="stroke:#181818;stroke-width:1;"/><polygon fill="#181818" points="285,890.62,289,881.62,285,885.62,281,881.62,285,890.62" style="stroke:#181818;stroke-width:1;"/></g><!--link C_SBV_WaitForJobScheduled to C_SBV_RebootHost--><g class="link" data-entity-1="ent0013" data-entity-2="ent0014" data-link-type="dependency" data-source-line="57" id="lnk18"><path d="M285,941.46 C285,959.41 285,977.69 285,995.62" fill="none" id="C_SBV_WaitForJobScheduled-to-C_SBV_RebootHost" style="stroke:#181818;stroke-width:1;"/><polygon fill="#181818" points="285,1001.62,289,992.62,285,996.62,281,992.62,285,1001.62" style="stroke:#181818;stroke-width:1;"/></g><!--link C_SBV_RebootHost to C_SBV_WaitForJobCompletion--><g class="link" data-entity-1="ent0014" data-entity-2="ent0015" data-link-type="dependency" data-source-line="58" id="lnk19"><path d="M285,1052.46 C285,1070.41 285,1088.69 285,1106.62" fill="none" id="C_SBV_RebootHost-to-C_SBV_WaitForJobCompletion" style="stroke:#181818;stroke-width:1;"/><polygon fill="#181818" points="285,1112.62,289,1103.62,285,1107.62,281,1103.62,285,1112.62" style="stroke:#181818;stroke-width:1;"/></g><!--link C_SBV_WaitForJobCompletion to C_SBV_HandleJobFailure--><g class="link" data-entity-1="ent0015" data-entity-2="ent0017" data-link-type="dependency" data-source-line="59" id="lnk20"><path d="M246.94,1163.4 C212.58,1185.42 167.3417,1214.4227 133.0117,1236.4227" fill="none" id="C_SBV_WaitForJobCompletion-to-C_SBV_HandleJobFailure" style="stroke:#181818;stroke-width:1;"/><polygon fill="#181818" points="127.96,1239.66,137.6958,1238.1718,132.1698,1236.9622,133.3793,1231.4362,127.96,1239.66" style="stroke:#181818;stroke-width:1;"/><text fill="#000000" font-family="sans-serif" font-size="13" lengthAdjust="spacing" textLength="43.7988" x="200.18" y="1206.5684">Job fail</text></g><!--link C_SBV_WaitForJobCompletion to C_SBV_LockHost--><g class="link" data-entity-1="ent0015" data-entity-2="ent0016" data-link-type="dependency" data-source-line="60" id="lnk21"><path d="M341.6,1163.4 C397.98,1187.7 477.6702,1222.0447 528.0302,1243.7547" fill="none" id="C_SBV_WaitForJobCompletion-to-C_SBV_LockHost" style="stroke:#181818;stroke-width:1;"/><polygon fill="#181818" points="533.54,1246.13,526.8588,1238.8939,528.9485,1244.1506,523.6918,1246.2403,533.54,1246.13" style="stroke:#181818;stroke-width:1;"/><text fill="#000000" font-family="sans-serif" font-size="13" lengthAdjust="spacing" textLength="72.833" x="448.36" y="1206.5684">Job success</text></g><!--link C_SBV_WaitForJobCompletion to C_SBV_WaitForJobCompletion--><g class="link" data-entity-1="ent0015" data-entity-2="ent0015" data-link-type="dependency" data-source-line="61" id="lnk22"><path d="M370.9,1127.81 C390.88,1128.67 405.59,1132.07 405.59,1138 C405.59,1143.93 396.8744,1147.072 376.8944,1147.932" fill="none" id="C_SBV_WaitForJobCompletion-to-C_SBV_WaitForJobCompletion" style="stroke:#181818;stroke-width:1;"/><polygon fill="#181818" points="370.9,1148.19,380.0637,1151.7993,375.8954,1147.975,379.7197,1143.8067,370.9,1148.19" style="stroke:#181818;stroke-width:1;"/><text fill="#000000" font-family="sans-serif" font-size="13" lengthAdjust="spacing" textLength="130.2983" x="411.59" y="1143.0684">Wait job to complete</text></g><!--link C_SBV_HandleJobFailure to C_SBV_HandleJobFailure--><g class="link" data-entity-1="ent0017" data-entity-2="ent0017" data-link-type="dependency" data-source-line="62" id="lnk23"><path d="M157.42,1259.63 C177.1,1259.81 192.34,1261.6 192.34,1265 C192.34,1268.4 183.0997,1270.1351 163.4197,1270.3151" fill="none" id="C_SBV_HandleJobFailure-to-C_SBV_HandleJobFailure" style="stroke:#181818;stroke-width:1;"/><polygon fill="#181818" points="157.42,1270.37,166.4562,1274.2875,162.4198,1270.3243,166.383,1266.2879,157.42,1270.37" style="stroke:#181818;stroke-width:1;"/><text fill="#000000" font-family="sans-serif" font-size="13" lengthAdjust="spacing" textLength="59.4077" x="240.2726" y="1262.5684">Power off</text><text fill="#000000" font-family="sans-serif" font-size="13" lengthAdjust="spacing" textLength="143.2729" x="198.34" y="1277.8789">OR Power on if needed</text></g><!--link C_SBV_HandleJobFailure to C_SBV_HandleJobFailure--><g class="link" data-entity-1="ent0017" data-entity-2="ent0017" data-link-type="dependency" data-source-line="64" id="lnk25"><path d="M157.66,1256.39 C236.26,1251.72 347.34,1254.58 347.34,1265 C347.34,1275.42 242.2494,1278.6359 163.6494,1273.9659" fill="none" id="C_SBV_HandleJobFailure-to-C_SBV_HandleJobFailure-1" style="stroke:#181818;stroke-width:1;"/><polygon fill="#181818" points="157.66,1273.61,166.4069,1278.1367,162.6512,1273.9066,166.8814,1270.1508,157.66,1273.61" style="stroke:#181818;stroke-width:1;"/><text fill="#000000" font-family="sans-serif" font-size="13" lengthAdjust="spacing" textLength="138.4106" x="353.34" y="1270.0684">Power cycle (Off / On)</text></g><!--link C_SBV_HandleJobFailure to C_SBV_CreateBossVolume--><g class="link" data-entity-1="ent0017" data-entity-2="ent0012" data-link-type="dependency" data-source-line="63" id="lnk24"><path d="M114.04,1239.5 C134.64,1215.83 161,1177.93 161,1139 C161,915 161,915 161,915 C161,876.45 189.983,851.2302 222.473,833.2102" fill="none" id="C_SBV_HandleJobFailure-to-C_SBV_CreateBossVolume" style="stroke:#181818;stroke-width:1;"/><polygon fill="#181818" points="227.72,830.3,217.9094,831.1672,223.3475,832.7251,221.7896,838.1632,227.72,830.3" style="stroke:#181818;stroke-width:1;"/><text fill="#000000" font-family="sans-serif" font-size="13" lengthAdjust="spacing" textLength="32.4365" x="162" y="1032.0684">Retry</text></g><!--link C_SBV_LockHost to BomValidating_BV_UpdatingInventory--><g class="link" data-entity-1="ent0016" data-entity-2="ent0019" data-link-type="dependency" data-source-line="65" id="lnk26"><path d="M590.58,1290.36 C602.42,1308.87 615.3976,1329.1451 627.2276,1347.6451" fill="none" id="C_SBV_LockHost-to-BomValidating_BV_UpdatingInventory" style="stroke:#181818;stroke-width:1;"/><polygon fill="#181818" points="630.46,1352.7,628.9813,1342.9628,627.7663,1348.4876,622.2415,1347.2726,630.46,1352.7" style="stroke:#181818;stroke-width:1;"/></g></g></svg>