<?plantuml 1.2026.1?><svg xmlns="http://www.w3.org/2000/svg" xmlns:xlink="http://www.w3.org/1999/xlink" contentStyleType="text/css" data-diagram-type="STATE" height="571px" preserveAspectRatio="none" style="width:741px;height:571px;background:#FFFFFF;" version="1.1" viewBox="0 0 741 571" width="741px" zoomAndPan="magnify"><defs/><g><g><rect fill="#FFFFFF" height="50" rx="12.5" ry="12.5" style="stroke:#000000;stroke-width:0.5;" width="277.3525" x="187.77" y="7"/><line style="stroke:#000000;stroke-width:0.5;" x1="187.77" x2="465.1225" y1="33.4883" y2="33.4883"/><text fill="#000000" font-family="sans-serif" font-size="14" lengthAdjust="spacing" textLength="257.3525" x="197.77" y="25.5352">Assigned/WaitingForNetworkReconfig</text></g><g><rect fill="#FFFFFF" height="50" rx="12.5" ry="12.5" style="stroke:#000000;stroke-width:0.5;" width="60.5098" x="10.19" y="515"/><line style="stroke:#000000;stroke-width:0.5;" x1="10.19" x2="70.6998" y1="541.4883" y2="541.4883"/><text fill="#000000" font-family="sans-serif" font-size="14" lengthAdjust="spacing" textLength="40.5098" x="20.19" y="533.5352">Ready</text></g><g><rect fill="#FFFFFF" height="50" rx="12.5" ry="12.5" style="stroke:#000000;stroke-width:0.5;" width="191.165" x="230.86" y="134"/><line style="stroke:#000000;stroke-width:0.5;" x1="230.86" x2="422.025" y1="160.4883" y2="160.4883"/><text fill="#000000" font-family="sans-serif" font-size="14" lengthAdjust="spacing" textLength="171.165" x="240.86" y="152.5352">WaitingForMeasurements</text></g><g><rect fill="#FFFFFF" height="50" rx="12.5" ry="12.5" style="stroke:#000000;stroke-width:0.5;" width="120.5908" x="394.15" y="261"/><line style="stroke:#000000;stroke-width:0.5;" x1="394.15" x2="514.7408" y1="287.4883" y2="287.4883"/><text fill="#000000" font-family="sans-serif" font-size="14" lengthAdjust="spacing" textLength="100.5908" x="404.15" y="279.5352">PendingBundle</text></g><g class="entity" data-qualified-name="m_return_success" id="ent0006"><polygon fill="#F1F1F1" points="234.44,401,246.44,413,234.44,425,222.44,413,234.44,401" style="stroke:#181818;stroke-width:0.5;"/></g><g><rect fill="#FFFFFF" height="50" rx="12.5" ry="12.5" style="stroke:#000000;stroke-width:0.5;" width="59.9424" x="504.47" y="388"/><line style="stroke:#000000;stroke-width:0.5;" x1="504.47" x2="564.4124" y1="414.4883" y2="414.4883"/><text fill="#000000" font-family="sans-serif" font-size="14" lengthAdjust="spacing" textLength="39.9424" x="514.47" y="406.5352">Failed</text></g><g><rect fill="#FFFFFF" height="50" rx="12.5" ry="12.5" style="stroke:#000000;stroke-width:0.5;" width="177.0898" x="178.9" y="515"/><line style="stroke:#000000;stroke-width:0.5;" x1="178.9" x2="355.9898" y1="541.4883" y2="541.4883"/><text fill="#000000" font-family="sans-serif" font-size="14" lengthAdjust="spacing" textLength="157.0898" x="188.9" y="533.5352">WaitingForCleanup/Init</text></g><!--link Ready to M_WaitingForMeasurements--><g class="link" data-entity-1="ent0003" data-entity-2="ent0004" data-link-type="dependency" data-source-line="14" id="lnk2"><path d="M32.67,514.65 C21.65,475.38 6,396.85 36.44,341 C80.54,260.1 172.1963,212.8781 241.9263,186.5681" fill="none" id="Ready-to-M_WaitingForMeasurements" style="stroke:#181818;stroke-width:1;"/><polygon fill="#181818" points="247.54,184.45,237.7074,183.8847,242.8619,186.2151,240.5315,191.3696,247.54,184.45" style="stroke:#181818;stroke-width:1;"/><text fill="#000000" font-family="sans-serif" font-size="13" lengthAdjust="spacing" textLength="169.3301" x="37.44" y="354.5684">Redo measuring requested</text></g><!--link Assigned_A_WaitingForNetworkReconfig to M_WaitingForMeasurements--><g class="link" data-entity-1="ent0002" data-entity-2="ent0004" data-link-type="dependency" data-source-line="15" id="lnk3"><path d="M326.44,57.4 C326.44,79.42 326.44,105.66 326.44,127.66" fill="none" id="Assigned_A_WaitingForNetworkReconfig-to-M_WaitingForMeasurements" style="stroke:#181818;stroke-width:1;"/><polygon fill="#181818" points="326.44,133.66,330.44,124.66,326.44,128.66,322.44,124.66,326.44,133.66" style="stroke:#181818;stroke-width:1;"/><text fill="#000000" font-family="sans-serif" font-size="13" lengthAdjust="spacing" textLength="117.3872" x="327.44" y="100.5684">On instance delete</text></g><!--link M_WaitingForMeasurements to M_PendingBundle--><g class="link" data-entity-1="ent0004" data-entity-2="ent0005" data-link-type="dependency" data-source-line="16" id="lnk4"><path d="M351.43,184.4 C373.98,206.42 402.6972,234.4682 425.2272,256.4682" fill="none" id="M_WaitingForMeasurements-to-M_PendingBundle" style="stroke:#181818;stroke-width:1;"/><polygon fill="#181818" points="429.52,260.66,425.8753,251.5103,425.9426,257.1668,420.2862,257.2341,429.52,260.66" style="stroke:#181818;stroke-width:1;"/><text fill="#000000" font-family="sans-serif" font-size="13" lengthAdjust="spacing" textLength="140.2896" x="399.11" y="227.5684">Wait for golden values</text></g><!--link M_WaitingForMeasurements to M_WaitingForMeasurements--><g class="link" data-entity-1="ent0004" data-entity-2="ent0004" data-link-type="dependency" data-source-line="17" id="lnk5"><path d="M422.39,147.5 C442.52,148.68 457.03,152.52 457.03,159 C457.03,165.48 448.5095,168.9659 428.3795,170.1559" fill="none" id="M_WaitingForMeasurements-to-M_WaitingForMeasurements" style="stroke:#181818;stroke-width:1;"/><polygon fill="#181818" points="422.39,170.51,431.6104,173.9719,427.3813,170.2149,431.1383,165.9859,422.39,170.51" style="stroke:#181818;stroke-width:1;"/><text fill="#000000" font-family="sans-serif" font-size="13" lengthAdjust="spacing" textLength="145.9834" x="463.03" y="164.0684">Wait for measurements</text></g><!--link M_WaitingForMeasurements to m_return_success--><g class="link" data-entity-1="ent0004" data-entity-2="ent0006" data-link-type="dependency" data-source-line="18" id="lnk6"><path d="M288.89,184.4 C264.92,202.35 235.92,229.13 222.44,261 C201.04,311.62 220.5088,374.5988 229.1488,398.0888" fill="none" id="M_WaitingForMeasurements-to-m_return_success" style="stroke:#181818;stroke-width:1;"/><polygon fill="#181818" points="231.22,403.72,231.8673,393.8924,229.494,399.0274,224.359,396.6541,231.22,403.72" style="stroke:#181818;stroke-width:1;"/><text fill="#000000" font-family="sans-serif" font-size="13" lengthAdjust="spacing" textLength="152.9976" x="223.44" y="291.0684">Measurements validated</text></g><!--link M_WaitingForMeasurements to Failed--><g class="link" data-entity-1="ent0004" data-entity-2="ent0007" data-link-type="dependency" data-source-line="19" id="lnk7"><path d="M422.26,173.88 C473.41,183.08 529.64,196.65 548.44,214 C597.45,259.2 616.52,296.64 590.44,358 C585,370.8 579.404,378.1087 569.234,386.9687" fill="none" id="M_WaitingForMeasurements-to-Failed" style="stroke:#181818;stroke-width:1;"/><polygon fill="#181818" points="564.71,390.91,574.1235,388.0141,568.48,387.6256,568.8685,381.9821,564.71,390.91" style="stroke:#181818;stroke-width:1;"/><text fill="#000000" font-family="sans-serif" font-size="13" lengthAdjust="spacing" textLength="130.8252" x="603.13" y="291.0684">Measurements failed</text></g><!--link M_PendingBundle to m_return_success--><g class="link" data-entity-1="ent0005" data-entity-2="ent0006" data-link-type="dependency" data-source-line="20" id="lnk8"><path d="M393.9,304.62 C349.9,317.76 296.52,334.51 287.44,341 C263.43,358.19 248.3326,384.1782 240.9326,398.7782" fill="none" id="M_PendingBundle-to-m_return_success" style="stroke:#181818;stroke-width:1;"/><polygon fill="#181818" points="238.22,404.13,245.8567,397.9106,240.4805,399.6701,238.721,394.2939,238.22,404.13" style="stroke:#181818;stroke-width:1;"/><text fill="#000000" font-family="sans-serif" font-size="13" lengthAdjust="spacing" textLength="152.9976" x="288.44" y="354.5684">Measurements validated</text></g><!--link M_PendingBundle to Failed--><g class="link" data-entity-1="ent0005" data-entity-2="ent0007" data-link-type="dependency" data-source-line="21" id="lnk9"><path d="M448.98,311.38 C447.04,325.76 446.92,343.85 454.44,358 C464.9,377.68 480.6937,388.867 498.6337,397.587" fill="none" id="M_PendingBundle-to-Failed" style="stroke:#181818;stroke-width:1;"/><polygon fill="#181818" points="504.03,400.21,497.6842,392.678,499.5331,398.0242,494.1869,399.8731,504.03,400.21" style="stroke:#181818;stroke-width:1;"/><text fill="#000000" font-family="sans-serif" font-size="13" lengthAdjust="spacing" textLength="130.8252" x="455.44" y="354.5684">Measurements failed</text></g><!--link m_return_success to Ready--><g class="link" data-entity-1="ent0006" data-entity-2="ent0003" data-link-type="dependency" data-source-line="22" id="lnk10"><path d="M224.12,415.28 C197.89,418.99 127.65,431.9 83.44,468 C68.38,480.31 59.7859,493.9469 52.6259,509.2269" fill="none" id="m_return_success-to-Ready" style="stroke:#181818;stroke-width:1;"/><polygon fill="#181818" points="50.08,514.66,57.5209,508.2076,52.2016,510.1324,50.2767,504.8131,50.08,514.66" style="stroke:#181818;stroke-width:1;"/><text fill="#000000" font-family="sans-serif" font-size="13" lengthAdjust="spacing" textLength="156.8188" x="84.44" y="481.5684">if came from Ready state</text></g><!--link m_return_success to WaitingForCleanup_C_Init--><g class="link" data-entity-1="ent0006" data-entity-2="ent0008" data-link-type="dependency" data-source-line="23" id="lnk11"><path d="M236.82,422.99 C241.84,442.02 252.1679,481.1389 259.5679,509.1589" fill="none" id="m_return_success-to-WaitingForCleanup_C_Init" style="stroke:#181818;stroke-width:1;"/><polygon fill="#181818" points="261.1,514.96,262.6693,505.237,259.8233,510.1257,254.9345,507.2797,261.1,514.96" style="stroke:#181818;stroke-width:1;"/><text fill="#000000" font-family="sans-serif" font-size="13" lengthAdjust="spacing" textLength="176.7822" x="253.92" y="481.5684">if came from Assigned state</text></g></g></svg>