<?plantuml 1.2026.1?><svg xmlns="http://www.w3.org/2000/svg" xmlns:xlink="http://www.w3.org/1999/xlink" contentStyleType="text/css" data-diagram-type="STATE" height="1437px" preserveAspectRatio="none" style="width:2028px;height:1437px;background:#FFFFFF;" version="1.1" viewBox="0 0 2028 1437" width="2028px" zoomAndPan="magnify"><defs/><g><!--cluster DD_EnableSecureBoot--><g class="cluster" data-qualified-name="DD_EnableSecureBoot" data-source-line="19" id="ent0009"><path d="M138.13,624 L825.13,624 A12.5,12.5 0 0 1 837.63,636.5 L837.63,645.4883 L125.63,645.4883 L125.63,636.5 A12.5,12.5 0 0 1 138.13,624" fill="#FFFFFF"/><rect fill="none" height="488" rx="12.5" ry="12.5" style="stroke:#000000;stroke-width:0.5;" width="712" x="125.63" y="624"/><line style="stroke:#000000;stroke-width:0.5;" x1="125.63" x2="837.63" y1="645.4883" y2="645.4883"/><text fill="#000000" font-family="sans-serif" font-size="14" lengthAdjust="spacing" textLength="119.8818" x="421.6891" y="641.5352">EnableSecureBoot</text></g><!--cluster DD_DisableSecureBoot--><g class="cluster" data-qualified-name="DD_DisableSecureBoot" data-source-line="28" id="ent0015"><path d="M1099.13,624 L1815.13,624 A12.5,12.5 0 0 1 1827.63,636.5 L1827.63,645.4883 L1086.63,645.4883 L1086.63,636.5 A12.5,12.5 0 0 1 1099.13,624" fill="#FFFFFF"/><rect fill="none" height="488" rx="12.5" ry="12.5" style="stroke:#000000;stroke-width:0.5;" width="741" x="1086.63" y="624"/><line style="stroke:#000000;stroke-width:0.5;" x1="1086.63" x2="1827.63" y1="645.4883" y2="645.4883"/><text fill="#000000" font-family="sans-serif" font-size="14" lengthAdjust="spacing" textLength="125.2754" x="1394.4923" y="641.5352">DisableSecureBoot</text></g><g><rect fill="#FFFFFF" height="50" rx="12.5" ry="12.5" style="stroke:#000000;stroke-width:0.5;" width="178.3135" x="445.48" y="662.5"/><line style="stroke:#000000;stroke-width:0.5;" x1="445.48" x2="623.7935" y1="688.9883" y2="688.9883"/><text fill="#000000" font-family="sans-serif" font-size="14" lengthAdjust="spacing" textLength="158.3135" x="455.48" y="681.0352">CheckSecureBootStatus</text></g><g><rect fill="#FFFFFF" height="50" rx="12.5" ry="12.5" style="stroke:#000000;stroke-width:0.5;" width="207.3047" x="292.98" y="808"/><line style="stroke:#000000;stroke-width:0.5;" x1="292.98" x2="500.2847" y1="834.4883" y2="834.4883"/><text fill="#000000" font-family="sans-serif" font-size="14" lengthAdjust="spacing" textLength="187.3047" x="302.98" y="826.5352">CheckSecureBootStatusWait</text></g><g><rect fill="#FFFFFF" height="50" rx="12.5" ry="12.5" style="stroke:#000000;stroke-width:0.5;" width="115.792" x="141.74" y="808"/><line style="stroke:#000000;stroke-width:0.5;" x1="141.74" x2="257.532" y1="834.4883" y2="834.4883"/><text fill="#000000" font-family="sans-serif" font-size="14" lengthAdjust="spacing" textLength="95.792" x="151.74" y="826.5352">SetSecureBoot</text></g><g><rect fill="#FFFFFF" height="50" rx="12.5" ry="12.5" style="stroke:#000000;stroke-width:0.5;" width="95.8242" x="522.72" y="919"/><line style="stroke:#000000;stroke-width:0.5;" x1="522.72" x2="618.5442" y1="945.4883" y2="945.4883"/><text fill="#000000" font-family="sans-serif" font-size="14" lengthAdjust="spacing" textLength="75.8242" x="532.72" y="937.5352">RebootDPU</text></g><g><rect fill="#FFFFFF" height="50" rx="12.5" ry="12.5" style="stroke:#000000;stroke-width:0.5;" width="124.8154" x="508.23" y="1046"/><line style="stroke:#000000;stroke-width:0.5;" x1="508.23" x2="633.0454" y1="1072.4883" y2="1072.4883"/><text fill="#000000" font-family="sans-serif" font-size="14" lengthAdjust="spacing" textLength="104.8154" x="518.23" y="1064.5352">RebootDPUWait</text></g><g><rect fill="#FFFFFF" height="50" rx="12.5" ry="12.5" style="stroke:#000000;stroke-width:0.5;" width="178.3135" x="1297.48" y="662.5"/><line style="stroke:#000000;stroke-width:0.5;" x1="1297.48" x2="1475.7935" y1="688.9883" y2="688.9883"/><text fill="#000000" font-family="sans-serif" font-size="14" lengthAdjust="spacing" textLength="158.3135" x="1307.48" y="681.0352">CheckSecureBootStatus</text></g><g><rect fill="#FFFFFF" height="50" rx="12.5" ry="12.5" style="stroke:#000000;stroke-width:0.5;" width="207.3047" x="1282.98" y="808"/><line style="stroke:#000000;stroke-width:0.5;" x1="1282.98" x2="1490.2847" y1="834.4883" y2="834.4883"/><text fill="#000000" font-family="sans-serif" font-size="14" lengthAdjust="spacing" textLength="187.3047" x="1292.98" y="826.5352">CheckSecureBootStatusWait</text></g><g><rect fill="#FFFFFF" height="50" rx="12.5" ry="12.5" style="stroke:#000000;stroke-width:0.5;" width="145.2754" x="1103" y="808"/><line style="stroke:#000000;stroke-width:0.5;" x1="1103" x2="1248.2754" y1="834.4883" y2="834.4883"/><text fill="#000000" font-family="sans-serif" font-size="14" lengthAdjust="spacing" textLength="125.2754" x="1113" y="826.5352">DisableSecureBoot</text></g><g><rect fill="#FFFFFF" height="50" rx="12.5" ry="12.5" style="stroke:#000000;stroke-width:0.5;" width="95.8242" x="1512.72" y="919"/><line style="stroke:#000000;stroke-width:0.5;" x1="1512.72" x2="1608.5442" y1="945.4883" y2="945.4883"/><text fill="#000000" font-family="sans-serif" font-size="14" lengthAdjust="spacing" textLength="75.8242" x="1522.72" y="937.5352">RebootDPU</text></g><g><rect fill="#FFFFFF" height="50" rx="12.5" ry="12.5" style="stroke:#000000;stroke-width:0.5;" width="124.8154" x="1498.23" y="1046"/><line style="stroke:#000000;stroke-width:0.5;" x1="1498.23" x2="1623.0454" y1="1072.4883" y2="1072.4883"/><text fill="#000000" font-family="sans-serif" font-size="14" lengthAdjust="spacing" textLength="104.8154" x="1508.23" y="1064.5352">RebootDPUWait</text></g><g><rect fill="#FFFFFF" height="50" rx="12.5" ry="12.5" style="stroke:#000000;stroke-width:0.5;" width="91.3672" x="1030.95" y="103"/><line style="stroke:#000000;stroke-width:0.5;" x1="1030.95" x2="1122.3172" y1="129.4883" y2="129.4883"/><text fill="#000000" font-family="sans-serif" font-size="14" lengthAdjust="spacing" textLength="71.3672" x="1040.95" y="121.5352">Initializing</text></g><g class="entity" data-qualified-name="if_state_dpu_nodpu" id="ent0003"><polygon fill="#F1F1F1" points="1076.63,214,1088.63,226,1076.63,238,1064.63,226,1076.63,214" style="stroke:#181818;stroke-width:0.5;"/></g><g><rect fill="#FFFFFF" height="50" rx="12.5" ry="12.5" style="stroke:#000000;stroke-width:0.5;" width="100.7803" x="907.24" y="315"/><line style="stroke:#000000;stroke-width:0.5;" x1="907.24" x2="1008.0203" y1="341.4883" y2="341.4883"/><text fill="#000000" font-family="sans-serif" font-size="14" lengthAdjust="spacing" textLength="80.7803" x="917.24" y="333.5352">Configuring</text></g><g><rect fill="#FFFFFF" height="50" rx="12.5" ry="12.5" style="stroke:#000000;stroke-width:0.5;" width="106.4609" x="904.4" y="426"/><line style="stroke:#000000;stroke-width:0.5;" x1="904.4" x2="1010.8609" y1="452.4883" y2="452.4883"/><text fill="#000000" font-family="sans-serif" font-size="14" lengthAdjust="spacing" textLength="86.4609" x="914.4" y="444.5352">EnableRshim</text></g><g class="entity" data-qualified-name="if_bfb_supported" id="ent0006"><polygon fill="#F1F1F1" points="957.63,537,969.63,549,957.63,561,945.63,549,957.63,537" style="stroke:#181818;stroke-width:0.5;"/></g><g><rect fill="#FFFFFF" height="50" rx="12.5" ry="12.5" style="stroke:#000000;stroke-width:0.5;" width="303.8145" x="1042.73" y="315"/><line style="stroke:#000000;stroke-width:0.5;" x1="1042.73" x2="1346.5445" y1="341.4883" y2="341.4883"/><text fill="#000000" font-family="sans-serif" font-size="14" lengthAdjust="spacing" textLength="283.8145" x="1052.73" y="333.5352">HostInit/WaitingForPlatformConfiguration</text></g><g><rect fill="#FFFFFF" height="50" rx="12.5" ry="12.5" style="stroke:#000000;stroke-width:0.5;" width="163.2676" x="7" y="1159"/><line style="stroke:#000000;stroke-width:0.5;" x1="7" x2="170.2676" y1="1185.4883" y2="1185.4883"/><text fill="#000000" font-family="sans-serif" font-size="14" lengthAdjust="spacing" textLength="143.2676" x="17" y="1177.5352">DPUInit/InstallingBFB</text></g><g><rect fill="#FFFFFF" height="50" rx="12.5" ry="12.5" style="stroke:#000000;stroke-width:0.5;" width="127.3311" x="1800.97" y="1159"/><line style="stroke:#000000;stroke-width:0.5;" x1="1800.97" x2="1928.3011" y1="1185.4883" y2="1185.4883"/><text fill="#000000" font-family="sans-serif" font-size="14" lengthAdjust="spacing" textLength="107.3311" x="1810.97" y="1177.5352">SetUefiHttpBoot</text></g><g><rect fill="#FFFFFF" height="50" rx="12.5" ry="12.5" style="stroke:#000000;stroke-width:0.5;" width="121.1172" x="1804.08" y="1270"/><line style="stroke:#000000;stroke-width:0.5;" x1="1804.08" x2="1925.1972" y1="1296.4883" y2="1296.4883"/><text fill="#000000" font-family="sans-serif" font-size="14" lengthAdjust="spacing" textLength="101.1172" x="1814.08" y="1288.5352">RebootAllDPUS</text></g><g><rect fill="#FFFFFF" height="50" rx="12.5" ry="12.5" style="stroke:#000000;stroke-width:0.5;" width="59.9424" x="931.66" y="1159"/><line style="stroke:#000000;stroke-width:0.5;" x1="931.66" x2="991.6024" y1="1185.4883" y2="1185.4883"/><text fill="#000000" font-family="sans-serif" font-size="14" lengthAdjust="spacing" textLength="39.9424" x="941.66" y="1177.5352">Failed</text></g><g><rect fill="#FFFFFF" height="50" rx="12.5" ry="12.5" style="stroke:#000000;stroke-width:0.5;" width="99.2764" x="1815" y="1381"/><line style="stroke:#000000;stroke-width:0.5;" x1="1815" x2="1914.2764" y1="1407.4883" y2="1407.4883"/><text fill="#000000" font-family="sans-serif" font-size="14" lengthAdjust="spacing" textLength="79.2764" x="1825" y="1399.5352">DPUInit/Init</text></g><ellipse cx="1076.63" cy="16" fill="#222222" rx="10" ry="10" style="stroke:#222222;stroke-width:1;"/><!--link *start* to DD_Initializing--><g class="link" data-entity-1="ent0002" data-entity-2="ent0002" data-link-type="dependency" data-source-line="43" id="lnk3"><path d="M1076.63,26.38 C1076.63,43.11 1076.63,72.59 1076.63,96.63" fill="none" id="*start*-to-DD_Initializing" style="stroke:#181818;stroke-width:1;"/><polygon fill="#181818" points="1076.63,102.63,1080.63,93.63,1076.63,97.63,1072.63,93.63,1076.63,102.63" style="stroke:#181818;stroke-width:1;"/><text fill="#000000" font-family="sans-serif" font-size="13" lengthAdjust="spacing" textLength="222.9106" x="1077.63" y="69.5684">Site Explorer creates managed host</text></g><!--link DD_Initializing to if_state_dpu_nodpu--><g class="link" data-entity-1="ent0002" data-entity-2="ent0003" data-link-type="dependency" data-source-line="45" id="lnk4"><path d="M1076.63,153.47 C1076.63,172.69 1076.63,192.6 1076.63,207.38" fill="none" id="DD_Initializing-to-if_state_dpu_nodpu" style="stroke:#181818;stroke-width:1;"/><polygon fill="#181818" points="1076.63,213.38,1080.63,204.38,1076.63,208.38,1072.63,204.38,1076.63,213.38" style="stroke:#181818;stroke-width:1;"/></g><!--link if_state_dpu_nodpu to DD_Configuring--><g class="link" data-entity-1="ent0003" data-entity-2="ent0004" data-link-type="dependency" data-source-line="46" id="lnk5"><path d="M1070.89,232.4 C1055.39,247 1016.2786,283.7972 987.9286,310.4872" fill="none" id="if_state_dpu_nodpu-to-DD_Configuring" style="stroke:#181818;stroke-width:1;"/><polygon fill="#181818" points="983.56,314.6,992.8548,311.3432,987.2005,311.1727,987.371,305.5184,983.56,314.6" style="stroke:#181818;stroke-width:1;"/><text fill="#000000" font-family="sans-serif" font-size="13" lengthAdjust="spacing" textLength="66.9106" x="1032.29" y="281.5684">Assoc DPU</text></g><!--link if_state_dpu_nodpu to HostInit_HI_WaitingForPlatformConfiguration--><g class="link" data-entity-1="ent0003" data-entity-2="ent0007" data-link-type="dependency" data-source-line="47" id="lnk6"><path d="M1082.33,232.4 C1097.7,247 1136.4589,283.7787 1164.5689,310.4687" fill="none" id="if_state_dpu_nodpu-to-HostInit_HI_WaitingForPlatformConfiguration" style="stroke:#181818;stroke-width:1;"/><polygon fill="#181818" points="1168.92,314.6,1165.1475,305.5023,1165.2941,311.1572,1159.6391,311.3038,1168.92,314.6" style="stroke:#181818;stroke-width:1;"/><text fill="#000000" font-family="sans-serif" font-size="13" lengthAdjust="spacing" textLength="47.6328" x="1136.63" y="281.5684">No DPU</text></g><!--link DD_Configuring to DD_EnableRshim--><g class="link" data-entity-1="ent0004" data-entity-2="ent0005" data-link-type="dependency" data-source-line="49" id="lnk7"><path d="M957.63,365.46 C957.63,383.41 957.63,401.69 957.63,419.62" fill="none" id="DD_Configuring-to-DD_EnableRshim" style="stroke:#181818;stroke-width:1;"/><polygon fill="#181818" points="957.63,425.62,961.63,416.62,957.63,420.62,953.63,416.62,957.63,425.62" style="stroke:#181818;stroke-width:1;"/></g><!--link DD_EnableRshim to if_bfb_supported--><g class="link" data-entity-1="ent0005" data-entity-2="ent0006" data-link-type="dependency" data-source-line="50" id="lnk8"><path d="M957.63,476.47 C957.63,495.69 957.63,515.6 957.63,530.38" fill="none" id="DD_EnableRshim-to-if_bfb_supported" style="stroke:#181818;stroke-width:1;"/><polygon fill="#181818" points="957.63,536.38,961.63,527.38,957.63,531.38,953.63,527.38,957.63,536.38" style="stroke:#181818;stroke-width:1;"/></g><!--link if_bfb_supported to DD_SSB_E_CheckSecureBootStatus--><g class="link" data-entity-1="ent0006" data-entity-2="ent0010" data-link-type="dependency" data-source-line="52" id="lnk9"><path d="M948.8,552.85 C905.97,566.67 723.35,625.5971 615.99,660.2471" fill="none" id="if_bfb_supported-to-DD_SSB_E_CheckSecureBootStatus" style="stroke:#181818;stroke-width:1;"/><polygon fill="#181818" points="610.28,662.09,620.0735,663.1323,615.0383,660.5543,617.6164,655.519,610.28,662.09" style="stroke:#181818;stroke-width:1;"/><text fill="#000000" font-family="sans-serif" font-size="13" lengthAdjust="spacing" textLength="132.812" x="821.81" y="604.5684">BFB install supported</text></g><!--link if_bfb_supported to DD_SSB_D_CheckSecureBootStatus--><g class="link" data-entity-1="ent0006" data-entity-2="ent0016" data-link-type="dependency" data-source-line="53" id="lnk10"><path d="M966.2,552.73 C1008.89,566.31 1195.1724,625.5809 1304.3624,660.3209" fill="none" id="if_bfb_supported-to-DD_SSB_D_CheckSecureBootStatus" style="stroke:#181818;stroke-width:1;"/><polygon fill="#181818" points="1310.08,662.14,1302.7164,655.5996,1305.3153,660.6241,1300.2909,663.2231,1310.08,662.14" style="stroke:#181818;stroke-width:1;"/><text fill="#000000" font-family="sans-serif" font-size="13" lengthAdjust="spacing" textLength="157.8408" x="1134.71" y="604.5684">BFB install not supported</text></g><!--link DD_SSB_E_CheckSecureBootStatus to DD_SSB_E_SetSecureBoot--><g class="link" data-entity-1="ent0010" data-entity-2="ent0012" data-link-type="dependency" data-source-line="55" id="lnk11"><path d="M445.17,691.26 C356.8,696.09 230.49,709.4 199.63,746 C185.49,762.78 186.2496,782.8016 190.5996,801.7816" fill="none" id="DD_SSB_E_CheckSecureBootStatus-to-DD_SSB_E_SetSecureBoot" style="stroke:#181818;stroke-width:1;"/><polygon fill="#181818" points="191.94,807.63,193.8283,797.9639,190.823,802.7564,186.0305,799.751,191.94,807.63" style="stroke:#181818;stroke-width:1;"/><text fill="#000000" font-family="sans-serif" font-size="13" lengthAdjust="spacing" textLength="154.5527" x="200.63" y="767.0684">Security boot is disabled</text></g><!--link DD_SSB_E_CheckSecureBootStatus to DD_SSB_E_CheckSecureBootStatusWait--><g class="link" data-entity-1="ent0010" data-entity-2="ent0011" data-link-type="dependency" data-source-line="56" id="lnk12"><path d="M445.07,698.98 C416.22,707.09 387.2,721.27 369.63,746 C356.58,764.37 363.5863,784.1881 374.9863,802.4781" fill="none" id="DD_SSB_E_CheckSecureBootStatus-to-DD_SSB_E_CheckSecureBootStatusWait" style="stroke:#181818;stroke-width:1;"/><polygon fill="#181818" points="378.16,807.57,376.794,797.8163,375.5152,803.3268,370.0048,802.048,378.16,807.57" style="stroke:#181818;stroke-width:1;"/><text fill="#000000" font-family="sans-serif" font-size="13" lengthAdjust="spacing" textLength="70.1606" x="370.63" y="767.0684">2nd reboot</text></g><!--link DD_SSB_E_CheckSecureBootStatusWait to DD_SSB_E_CheckSecureBootStatus--><g class="link" data-entity-1="ent0011" data-entity-2="ent0010" data-link-type="dependency" data-source-line="57" id="lnk13"><path d="M420.16,807.54 C445.58,781.1 481.6918,743.5554 507.0618,717.1654" fill="none" id="DD_SSB_E_CheckSecureBootStatusWait-to-DD_SSB_E_CheckSecureBootStatus" style="stroke:#181818;stroke-width:1;"/><polygon fill="#181818" points="511.22,712.84,502.0991,716.556,507.7548,716.4445,507.8663,722.1003,511.22,712.84" style="stroke:#181818;stroke-width:1;"/><text fill="#000000" font-family="sans-serif" font-size="13" lengthAdjust="spacing" textLength="79.1616" x="486.2422" y="759.5684">Wait for DPU</text><text fill="#000000" font-family="sans-serif" font-size="13" lengthAdjust="spacing" textLength="93.666" x="478.99" y="774.8789">(5min timeout)</text></g><!--link DD_SSB_E_CheckSecureBootStatus to DPUInit_DI_IDO_InstallingBFB--><g class="link" data-entity-1="ent0010" data-entity-2="ent0008" data-link-type="dependency" data-source-line="58" id="lnk14"><path d="M445.19,688.78 C370.88,692.26 264.19,704.98 180.63,746 C130.39,770.67 88.63,776.03 88.63,832 C88.63,832 88.63,832 88.63,1072 C88.63,1101.87 88.63,1130.26 88.63,1152.75" fill="none" id="DD_SSB_E_CheckSecureBootStatus-to-DPUInit_DI_IDO_InstallingBFB" style="stroke:#181818;stroke-width:1;"/><polygon fill="#181818" points="88.63,1158.75,92.63,1149.75,88.63,1153.75,84.63,1149.75,88.63,1158.75" style="stroke:#181818;stroke-width:1;"/><text fill="#000000" font-family="sans-serif" font-size="13" lengthAdjust="spacing" textLength="151.2964" x="89.63" y="949.0684">Security boot is enabled</text></g><!--link DD_SSB_E_CheckSecureBootStatus to DD_SSB_E_RebootDPU--><g class="link" data-entity-1="ent0010" data-entity-2="ent0013" data-link-type="dependency" data-source-line="59" id="lnk15"><path d="M560.1,712.81 C568.3,722.3 576.36,733.82 580.63,746 C601.38,805.14 588.8267,874.5746 579.1467,912.6946" fill="none" id="DD_SSB_E_CheckSecureBootStatus-to-DD_SSB_E_RebootDPU" style="stroke:#181818;stroke-width:1;"/><polygon fill="#181818" points="577.67,918.51,583.7621,910.7713,578.9006,913.6638,576.0082,908.8024,577.67,918.51" style="stroke:#181818;stroke-width:1;"/><text fill="#000000" font-family="sans-serif" font-size="13" lengthAdjust="spacing" textLength="99.1377" x="592.36" y="838.0684">Get status error</text></g><!--link DD_SSB_E_RebootDPU to DD_SSB_E_CheckSecureBootStatus--><g class="link" data-entity-1="ent0013" data-entity-2="ent0010" data-link-type="dependency" data-source-line="64" id="lnk20"><path d="M619.03,925.29 C648.37,911.74 683.38,889.9 700.63,858 C711.21,838.45 710.77,827.78 700.63,808 C678.05,763.91 636.1346,735.1167 597.7946,715.5567" fill="none" id="DD_SSB_E_RebootDPU-to-DD_SSB_E_CheckSecureBootStatus" style="stroke:#181818;stroke-width:1;"/><polygon fill="#181818" points="592.45,712.83,598.6492,720.4831,596.9039,715.1022,602.2848,713.3569,592.45,712.83" style="stroke:#181818;stroke-width:1;"/><text fill="#000000" font-family="sans-serif" font-size="13" lengthAdjust="spacing" textLength="78.5396" x="709.4" y="838.0684">Two reboots</text></g><!--link DD_SSB_E_CheckSecureBootStatus to DD_SSB_E_CheckSecureBootStatus--><g class="link" data-entity-1="ent0010" data-entity-2="ent0010" data-link-type="dependency" data-source-line="60" id="lnk16"><path d="M624.2,673.89 C644.2,675.14 658.79,679.68 658.79,687.5 C658.79,695.32 650.1883,699.4857 630.1883,700.7357" fill="none" id="DD_SSB_E_CheckSecureBootStatus-to-DD_SSB_E_CheckSecureBootStatus" style="stroke:#181818;stroke-width:1;"/><polygon fill="#181818" points="624.2,701.11,633.432,704.5408,629.1903,700.7981,632.933,696.5564,624.2,701.11" style="stroke:#181818;stroke-width:1;"/><text fill="#000000" font-family="sans-serif" font-size="13" lengthAdjust="spacing" textLength="79.6567" x="683.4331" y="677.5684">Missing data</text><text fill="#000000" font-family="sans-serif" font-size="13" lengthAdjust="spacing" textLength="56.3101" x="695.1064" y="692.8789">count++</text><text fill="#000000" font-family="sans-serif" font-size="13" lengthAdjust="spacing" textLength="116.9429" x="664.79" y="708.1895">retry if count &lt; 10</text></g><!--link DD_SSB_E_CheckSecureBootStatus to Failed--><g class="link" data-entity-1="ent0010" data-entity-2="ent0023" data-link-type="dependency" data-source-line="61" id="lnk17"><path d="M623.96,689.33 C724.7,695.54 874.63,723.08 874.63,832 C874.63,832 874.63,832 874.63,1072 C874.63,1109.71 901.4209,1138.4892 926.5109,1158.4092" fill="none" id="DD_SSB_E_CheckSecureBootStatus-to-Failed" style="stroke:#181818;stroke-width:1;"/><polygon fill="#181818" points="931.21,1162.14,926.6486,1153.4111,927.2941,1159.031,921.6742,1159.6765,931.21,1162.14" style="stroke:#181818;stroke-width:1;"/><text fill="#000000" font-family="sans-serif" font-size="13" lengthAdjust="spacing" textLength="80.9771" x="886.9447" y="941.5684">count &gt;= 10</text><text fill="#000000" font-family="sans-serif" font-size="13" lengthAdjust="spacing" textLength="103.6064" x="875.63" y="956.8789">too many retries</text></g><!--link DD_SSB_E_SetSecureBoot to DD_SSB_E_RebootDPU--><g class="link" data-entity-1="ent0012" data-entity-2="ent0013" data-link-type="dependency" data-source-line="62" id="lnk18"><path d="M257.68,852.5 C263.74,854.38 269.81,856.24 275.63,858 C362.25,884.15 457.9243,911.3648 516.4543,927.8348" fill="none" id="DD_SSB_E_SetSecureBoot-to-DD_SSB_E_RebootDPU" style="stroke:#181818;stroke-width:1;"/><polygon fill="#181818" points="522.23,929.46,514.65,923.1717,517.4169,928.1056,512.483,930.8726,522.23,929.46" style="stroke:#181818;stroke-width:1;"/></g><!--link DD_SSB_E_RebootDPU to DD_SSB_E_RebootDPU--><g class="link" data-entity-1="ent0013" data-entity-2="ent0013" data-link-type="dependency" data-source-line="63" id="lnk19"><path d="M618.76,933.65 C637.72,933.12 653.55,936.57 653.55,944 C653.55,951.43 643.7177,955.0477 624.7577,954.5177" fill="none" id="DD_SSB_E_RebootDPU-to-DD_SSB_E_RebootDPU" style="stroke:#181818;stroke-width:1;"/><polygon fill="#181818" points="618.76,954.35,627.6447,958.5999,623.758,954.4897,627.8683,950.603,618.76,954.35" style="stroke:#181818;stroke-width:1;"/><text fill="#000000" font-family="sans-serif" font-size="13" lengthAdjust="spacing" textLength="82.8813" x="659.55" y="949.0684">Reboot again</text></g><!--link DD_SSB_E_RebootDPU to DD_SSB_E_RebootDPUWait--><g class="link" data-entity-1="ent0013" data-entity-2="ent0014" data-link-type="dependency" data-source-line="65" id="lnk21"><path d="M561.78,969.4 C558.9,978.55 556.07,989.13 554.63,999 C552.37,1014.63 554.2679,1026.2263 558.7079,1039.8263" fill="none" id="DD_SSB_E_RebootDPU-to-DD_SSB_E_RebootDPUWait" style="stroke:#181818;stroke-width:1;"/><polygon fill="#181818" points="560.57,1045.53,561.5793,1035.733,559.0182,1040.7769,553.9744,1038.2158,560.57,1045.53" style="stroke:#181818;stroke-width:1;"/></g><!--link DD_SSB_E_RebootDPUWait to DD_SSB_E_RebootDPU--><g class="link" data-entity-1="ent0014" data-entity-2="ent0013" data-link-type="dependency" data-source-line="66" id="lnk22"><path d="M570.63,1045.66 C570.63,1023.66 570.63,997.42 570.63,975.4" fill="none" id="DD_SSB_E_RebootDPUWait-to-DD_SSB_E_RebootDPU" style="stroke:#181818;stroke-width:1;"/><polygon fill="#181818" points="570.63,969.4,566.63,978.4,570.63,974.4,574.63,978.4,570.63,969.4" style="stroke:#181818;stroke-width:1;"/><text fill="#000000" font-family="sans-serif" font-size="13" lengthAdjust="spacing" textLength="176.9409" x="571.63" y="1012.5684">Wait for DPU (5min timeout)</text></g><!--link DD_SSB_D_CheckSecureBootStatus to DD_SSB_D_DisableSecureBoot--><g class="link" data-entity-1="ent0016" data-entity-2="ent0018" data-link-type="dependency" data-source-line="68" id="lnk23"><path d="M1297.05,700.19 C1242.23,709.38 1179.46,724.31 1162.63,746 C1149.12,763.42 1152.9524,783.3973 1160.7124,802.1173" fill="none" id="DD_SSB_D_CheckSecureBootStatus-to-DD_SSB_D_DisableSecureBoot" style="stroke:#181818;stroke-width:1;"/><polygon fill="#181818" points="1163.01,807.66,1163.2587,797.8143,1161.0953,803.0411,1155.8685,800.8777,1163.01,807.66" style="stroke:#181818;stroke-width:1;"/><text fill="#000000" font-family="sans-serif" font-size="13" lengthAdjust="spacing" textLength="151.2964" x="1163.63" y="767.0684">Security boot is enabled</text></g><!--link DD_SSB_D_CheckSecureBootStatus to DD_SSB_D_CheckSecureBootStatusWait--><g class="link" data-entity-1="ent0016" data-entity-2="ent0017" data-link-type="dependency" data-source-line="69" id="lnk24"><path d="M1352.55,712.98 C1342.6,722.1 1332.97,733.35 1327.63,746 C1322.11,759.1 1321.9,764.98 1327.63,778 C1332.67,789.44 1336.9758,795.5235 1346.2558,803.7735" fill="none" id="DD_SSB_D_CheckSecureBootStatus-to-DD_SSB_D_CheckSecureBootStatusWait" style="stroke:#181818;stroke-width:1;"/><polygon fill="#181818" points="1350.74,807.76,1346.6714,798.7908,1347.0032,804.4379,1341.3561,804.7697,1350.74,807.76" style="stroke:#181818;stroke-width:1;"/><text fill="#000000" font-family="sans-serif" font-size="13" lengthAdjust="spacing" textLength="70.1606" x="1328.63" y="767.0684">2nd reboot</text></g><!--link DD_SSB_D_CheckSecureBootStatusWait to DD_SSB_D_CheckSecureBootStatus--><g class="link" data-entity-1="ent0017" data-entity-2="ent0016" data-link-type="dependency" data-source-line="70" id="lnk25"><path d="M1396.03,807.64 C1399.1,798.49 1402.11,787.91 1403.63,778 C1405.79,763.94 1405.67,760.08 1403.63,746 C1402.02,734.87 1400.5846,728.6126 1397.3346,718.4926" fill="none" id="DD_SSB_D_CheckSecureBootStatusWait-to-DD_SSB_D_CheckSecureBootStatus" style="stroke:#181818;stroke-width:1;"/><polygon fill="#181818" points="1395.5,712.78,1394.4435,722.572,1397.0288,717.5405,1402.0603,720.1259,1395.5,712.78" style="stroke:#181818;stroke-width:1;"/><text fill="#000000" font-family="sans-serif" font-size="13" lengthAdjust="spacing" textLength="176.9409" x="1406.21" y="767.0684">Wait for DPU (5min timeout)</text></g><!--link DD_SSB_D_CheckSecureBootStatus to DD_SetUefiHttpBoot--><g class="link" data-entity-1="ent0016" data-entity-2="ent0021" data-link-type="dependency" data-source-line="71" id="lnk26"><path d="M1476.26,696.97 C1614.67,712.55 1864.63,751.8 1864.63,832 C1864.63,832 1864.63,832 1864.63,1072 C1864.63,1101.87 1864.63,1130.26 1864.63,1152.75" fill="none" id="DD_SSB_D_CheckSecureBootStatus-to-DD_SetUefiHttpBoot" style="stroke:#181818;stroke-width:1;"/><polygon fill="#181818" points="1864.63,1158.75,1868.63,1149.75,1864.63,1153.75,1860.63,1149.75,1864.63,1158.75" style="stroke:#181818;stroke-width:1;"/><text fill="#000000" font-family="sans-serif" font-size="13" lengthAdjust="spacing" textLength="154.5527" x="1865.63" y="949.0684">Security boot is disabled</text></g><!--link DD_SSB_D_CheckSecureBootStatus to DD_SSB_D_RebootDPU--><g class="link" data-entity-1="ent0016" data-entity-2="ent0019" data-link-type="dependency" data-source-line="72" id="lnk27"><path d="M1476.18,702.66 C1524.48,712.33 1577.12,726.85 1591.63,746 C1600.23,757.33 1592.95,763.84 1591.63,778 C1589.12,804.99 1575.1166,873.9867 1566.9866,912.9167" fill="none" id="DD_SSB_D_CheckSecureBootStatus-to-DD_SSB_D_RebootDPU" style="stroke:#181818;stroke-width:1;"/><polygon fill="#181818" points="1565.76,918.79,1571.5154,910.7978,1566.7821,913.8956,1563.6843,909.1624,1565.76,918.79" style="stroke:#181818;stroke-width:1;"/><text fill="#000000" font-family="sans-serif" font-size="13" lengthAdjust="spacing" textLength="99.1377" x="1588.08" y="838.0684">Get status error</text></g><!--link DD_SSB_D_RebootDPU to DD_SSB_D_CheckSecureBootStatus--><g class="link" data-entity-1="ent0019" data-entity-2="ent0016" data-link-type="dependency" data-source-line="77" id="lnk32"><path d="M1608.75,925.93 C1638.74,912.5 1674.88,890.54 1692.63,858 C1703.27,838.49 1702.97,827.67 1692.63,808 C1652.11,730.88 1556.9499,704.0239 1481.9899,694.2739" fill="none" id="DD_SSB_D_RebootDPU-to-DD_SSB_D_CheckSecureBootStatus" style="stroke:#181818;stroke-width:1;"/><polygon fill="#181818" points="1476.04,693.5,1484.4489,698.6274,1480.9982,694.1449,1485.4808,690.6943,1476.04,693.5" style="stroke:#181818;stroke-width:1;"/><text fill="#000000" font-family="sans-serif" font-size="13" lengthAdjust="spacing" textLength="78.5396" x="1701.5" y="838.0684">Two reboots</text></g><!--link DD_SSB_D_CheckSecureBootStatus to Failed--><g class="link" data-entity-1="ent0016" data-entity-2="ent0023" data-link-type="dependency" data-source-line="73" id="lnk28"><path d="M1297.21,689.66 C1197.37,696.25 1049.63,724.21 1049.63,832 C1049.63,832 1049.63,832 1049.63,1072 C1049.63,1110.12 1022.1029,1139.0822 996.6529,1158.9122" fill="none" id="DD_SSB_D_CheckSecureBootStatus-to-Failed" style="stroke:#181818;stroke-width:1;"/><polygon fill="#181818" points="991.92,1162.6,1001.4779,1160.2236,995.8641,1159.5269,996.5609,1153.9131,991.92,1162.6" style="stroke:#181818;stroke-width:1;"/><text fill="#000000" font-family="sans-serif" font-size="13" lengthAdjust="spacing" textLength="80.9771" x="1061.9447" y="941.5684">count &gt;= 10</text><text fill="#000000" font-family="sans-serif" font-size="13" lengthAdjust="spacing" textLength="103.6064" x="1050.63" y="956.8789">too many retries</text></g><!--link DD_SSB_D_CheckSecureBootStatus to DD_SSB_D_CheckSecureBootStatus--><g class="link" data-entity-1="ent0016" data-entity-2="ent0016" data-link-type="dependency" data-source-line="74" id="lnk29"><path d="M1476.2,673.89 C1496.2,675.14 1510.79,679.68 1510.79,687.5 C1510.79,695.32 1502.1883,699.4857 1482.1883,700.7357" fill="none" id="DD_SSB_D_CheckSecureBootStatus-to-DD_SSB_D_CheckSecureBootStatus" style="stroke:#181818;stroke-width:1;"/><polygon fill="#181818" points="1476.2,701.11,1485.432,704.5408,1481.1903,700.7981,1484.933,696.5564,1476.2,701.11" style="stroke:#181818;stroke-width:1;"/><text fill="#000000" font-family="sans-serif" font-size="13" lengthAdjust="spacing" textLength="79.6567" x="1535.4331" y="677.5684">Missing data</text><text fill="#000000" font-family="sans-serif" font-size="13" lengthAdjust="spacing" textLength="56.3101" x="1547.1064" y="692.8789">count++</text><text fill="#000000" font-family="sans-serif" font-size="13" lengthAdjust="spacing" textLength="116.9429" x="1516.79" y="708.1895">retry if count &lt; 10</text></g><!--link DD_SSB_D_DisableSecureBoot to DD_SSB_D_RebootDPU--><g class="link" data-entity-1="ent0018" data-entity-2="ent0019" data-link-type="dependency" data-source-line="75" id="lnk30"><path d="M1248.5,854.63 C1325.89,876.54 1440.2469,908.9155 1506.6469,927.7155" fill="none" id="DD_SSB_D_DisableSecureBoot-to-DD_SSB_D_RebootDPU" style="stroke:#181818;stroke-width:1;"/><polygon fill="#181818" points="1512.42,929.35,1504.8501,923.0495,1507.6091,927.9879,1502.6707,930.7469,1512.42,929.35" style="stroke:#181818;stroke-width:1;"/></g><!--link DD_SSB_D_RebootDPU to DD_SSB_D_RebootDPU--><g class="link" data-entity-1="ent0019" data-entity-2="ent0019" data-link-type="dependency" data-source-line="76" id="lnk31"><path d="M1608.76,933.65 C1627.72,933.12 1643.55,936.57 1643.55,944 C1643.55,951.43 1633.7177,955.0477 1614.7577,954.5177" fill="none" id="DD_SSB_D_RebootDPU-to-DD_SSB_D_RebootDPU" style="stroke:#181818;stroke-width:1;"/><polygon fill="#181818" points="1608.76,954.35,1617.6447,958.5999,1613.758,954.4897,1617.8683,950.603,1608.76,954.35" style="stroke:#181818;stroke-width:1;"/><text fill="#000000" font-family="sans-serif" font-size="13" lengthAdjust="spacing" textLength="82.8813" x="1649.55" y="949.0684">Reboot again</text></g><!--link DD_SSB_D_RebootDPU to DD_SSB_D_RebootDPUWait--><g class="link" data-entity-1="ent0019" data-entity-2="ent0020" data-link-type="dependency" data-source-line="78" id="lnk33"><path d="M1550.57,969.47 C1546.13,983.08 1542.37,1000.37 1544.63,1016 C1546.07,1025.87 1547.0986,1030.7268 1549.9786,1039.8768" fill="none" id="DD_SSB_D_RebootDPU-to-DD_SSB_D_RebootDPUWait" style="stroke:#181818;stroke-width:1;"/><polygon fill="#181818" points="1551.78,1045.6,1552.8934,1035.8143,1550.2788,1040.8307,1545.2624,1038.2161,1551.78,1045.6" style="stroke:#181818;stroke-width:1;"/></g><!--link DD_SSB_D_RebootDPUWait to DD_SSB_D_RebootDPU--><g class="link" data-entity-1="ent0020" data-entity-2="ent0019" data-link-type="dependency" data-source-line="79" id="lnk34"><path d="M1560.63,1045.66 C1560.63,1023.66 1560.63,997.42 1560.63,975.4" fill="none" id="DD_SSB_D_RebootDPUWait-to-DD_SSB_D_RebootDPU" style="stroke:#181818;stroke-width:1;"/><polygon fill="#181818" points="1560.63,969.4,1556.63,978.4,1560.63,974.4,1564.63,978.4,1560.63,969.4" style="stroke:#181818;stroke-width:1;"/><text fill="#000000" font-family="sans-serif" font-size="13" lengthAdjust="spacing" textLength="176.9409" x="1561.63" y="1012.5684">Wait for DPU (5min timeout)</text></g><!--link DD_SetUefiHttpBoot to DD_RebootAllDPUS--><g class="link" data-entity-1="ent0021" data-entity-2="ent0022" data-link-type="dependency" data-source-line="81" id="lnk35"><path d="M1864.63,1209.46 C1864.63,1227.41 1864.63,1245.69 1864.63,1263.62" fill="none" id="DD_SetUefiHttpBoot-to-DD_RebootAllDPUS" style="stroke:#181818;stroke-width:1;"/><polygon fill="#181818" points="1864.63,1269.62,1868.63,1260.62,1864.63,1264.62,1860.63,1260.62,1864.63,1269.62" style="stroke:#181818;stroke-width:1;"/></g><!--link DD_RebootAllDPUS to DPUInit_DI_Init--><g class="link" data-entity-1="ent0022" data-entity-2="ent0024" data-link-type="dependency" data-source-line="82" id="lnk36"><path d="M1864.63,1320.46 C1864.63,1338.41 1864.63,1356.69 1864.63,1374.62" fill="none" id="DD_RebootAllDPUS-to-DPUInit_DI_Init" style="stroke:#181818;stroke-width:1;"/><polygon fill="#181818" points="1864.63,1380.62,1868.63,1371.62,1864.63,1375.62,1860.63,1371.62,1864.63,1380.62" style="stroke:#181818;stroke-width:1;"/></g></g></svg>