<?plantuml 1.2026.1?><svg xmlns="http://www.w3.org/2000/svg" xmlns:xlink="http://www.w3.org/1999/xlink" contentStyleType="text/css" data-diagram-type="STATE" height="640px" preserveAspectRatio="none" style="width:980px;height:640px;background:#FFFFFF;" version="1.1" viewBox="0 0 980 640" width="980px" zoomAndPan="magnify"><defs/><g><g><rect fill="#FFFFFF" height="50" rx="12.5" ry="12.5" style="stroke:#000000;stroke-width:0.5;" width="165.3936" x="7" y="295.4422"/><line style="stroke:#000000;stroke-width:0.5;" x1="7" x2="172.3936" y1="321.9305" y2="321.9305"/><text fill="#000000" font-family="sans-serif" font-size="14" lengthAdjust="spacing" textLength="145.3936" x="17" y="313.9773">AnyNotAssignedState</text></g><g><rect fill="#FFFFFF" height="50" rx="12.5" ry="12.5" style="stroke:#000000;stroke-width:0.5;" width="59.9424" x="233.39" y="295.4422"/><line style="stroke:#000000;stroke-width:0.5;" x1="233.39" x2="293.3324" y1="321.9305" y2="321.9305"/><text fill="#000000" font-family="sans-serif" font-size="14" lengthAdjust="spacing" textLength="39.9424" x="243.39" y="313.9773">Failed</text></g><g><rect fill="#FFFFFF" height="50" rx="12.5" ry="12.5" style="stroke:#000000;stroke-width:0.5;" width="379.625" x="594.34" y="40.4422"/><line style="stroke:#000000;stroke-width:0.5;" x1="594.34" x2="973.965" y1="66.9305" y2="66.9305"/><text fill="#000000" font-family="sans-serif" font-size="14" lengthAdjust="spacing" textLength="359.625" x="604.34" y="58.9773">HostInit/WaitingForLockdown/TimeWaitForDPUDown</text></g><g><rect fill="#FFFFFF" height="50" rx="12.5" ry="12.5" style="stroke:#000000;stroke-width:0.5;" width="177.0898" x="695.6" y="125.4422"/><line style="stroke:#000000;stroke-width:0.5;" x1="695.6" x2="872.6898" y1="151.9305" y2="151.9305"/><text fill="#000000" font-family="sans-serif" font-size="14" lengthAdjust="spacing" textLength="157.0898" x="705.6" y="143.9773">WaitingForCleanup/Init</text></g><g><rect fill="#FFFFFF" height="50" rx="12.5" ry="12.5" style="stroke:#000000;stroke-width:0.5;" width="329.7227" x="619.29" y="210.4422"/><line style="stroke:#000000;stroke-width:0.5;" x1="619.29" x2="949.0127" y1="236.9305" y2="236.9305"/><text fill="#000000" font-family="sans-serif" font-size="14" lengthAdjust="spacing" textLength="309.7227" x="629.29" y="228.9773">HostInit/Measuring/WaitingForMeasurements</text></g><g><rect fill="#FFFFFF" height="50" rx="12.5" ry="12.5" style="stroke:#000000;stroke-width:0.5;" width="269.1152" x="649.59" y="295.4422"/><line style="stroke:#000000;stroke-width:0.5;" x1="649.59" x2="918.7052" y1="321.9305" y2="321.9305"/><text fill="#000000" font-family="sans-serif" font-size="14" lengthAdjust="spacing" textLength="249.1152" x="659.59" y="313.9773">Measuring/WaitingForMeasurements</text></g><g><rect fill="#FFFFFF" height="50" rx="12.5" ry="12.5" style="stroke:#000000;stroke-width:0.5;" width="359.835" x="604.23" y="380.4422"/><line style="stroke:#000000;stroke-width:0.5;" x1="604.23" x2="964.065" y1="406.9305" y2="406.9305"/><text fill="#000000" font-family="sans-serif" font-size="14" lengthAdjust="spacing" textLength="339.835" x="614.23" y="398.9773">PostAssignedMeasuring/WaitingForMeasurements</text></g><g><rect fill="#FFFFFF" height="50" rx="12.5" ry="12.5" style="stroke:#000000;stroke-width:0.5;" width="174.5947" x="696.85" y="465.4422"/><line style="stroke:#000000;stroke-width:0.5;" x1="696.85" x2="871.4447" y1="491.9305" y2="491.9305"/><text fill="#000000" font-family="sans-serif" font-size="14" lengthAdjust="spacing" textLength="154.5947" x="706.85" y="483.9773">Validation/RebootHost</text></g><g><rect fill="#FFFFFF" height="50" rx="12.5" ry="12.5" style="stroke:#000000;stroke-width:0.5;" width="113.5088" x="727.39" y="550.4422"/><line style="stroke:#000000;stroke-width:0.5;" x1="727.39" x2="840.8988" y1="576.9305" y2="576.9305"/><text fill="#000000" font-family="sans-serif" font-size="14" lengthAdjust="spacing" textLength="93.5088" x="737.39" y="568.9773">ForceDeletion</text></g><!--link AnyNotAssignedState to Failed--><g class="link" data-entity-1="ent0002" data-entity-2="ent0003" data-link-type="dependency" data-source-line="18" id="lnk2"><path d="M172.76,320.4422 C194.31,320.4422 210.18,320.4422 226.92,320.4422" fill="none" id="AnyNotAssignedState-to-Failed" style="stroke:#181818;stroke-width:1;"/><polygon fill="#181818" points="232.92,320.4422,223.92,316.4422,227.92,320.4422,223.92,324.4422,232.92,320.4422" style="stroke:#181818;stroke-width:1;"/></g><!--link Failed to HostInit_HI_WaitingForLockdown_HI_WFL_TimeWaitForDPUDown--><g class="link" data-entity-1="ent0003" data-entity-2="ent0004" data-link-type="dependency" data-source-line="19" id="lnk3"><path d="M267.9,295.2922 C275.5,245.0822 295.02,135.1722 323.34,111.4422 C406.48,41.7222 524.1357,32.398 622.2657,39.518" fill="none" id="Failed-to-HostInit_HI_WaitingForLockdown_HI_WFL_TimeWaitForDPUDown" style="stroke:#181818;stroke-width:1;"/><polygon fill="#181818" points="628.25,39.9522,619.5631,35.3114,623.2631,39.5904,618.9841,43.2904,628.25,39.9522" style="stroke:#181818;stroke-width:1;"/><text fill="#000000" font-family="sans-serif" font-size="13" lengthAdjust="spacing" textLength="107.2563" x="390.6076" y="19.8105">Discovery Failure</text><text fill="#000000" font-family="sans-serif" font-size="13" lengthAdjust="spacing" textLength="151.7915" x="368.34" y="35.1211">On discovery succeeded</text></g><!--link Failed to Failed--><g class="link" data-entity-1="ent0003" data-entity-2="ent0003" data-link-type="dependency" data-source-line="20" id="lnk4"><path d="M258.25,295.1622 C256.7,277.6622 258.4,260.4422 263.36,260.4422 C268.33,260.4422 270.5594,271.6856 269.0094,289.1856" fill="none" id="Failed-to-Failed" style="stroke:#181818;stroke-width:1;"/><polygon fill="#181818" points="268.48,295.1622,273.2584,286.5502,268.9211,290.1817,265.2896,285.8444,268.48,295.1622" style="stroke:#181818;stroke-width:1;"/><text fill="#000000" font-family="sans-serif" font-size="13" lengthAdjust="spacing" textLength="148.7002" x="189.36" y="252.0105">Reboot with retry count</text></g><!--link Failed to Failed--><g class="link" data-entity-1="ent0003" data-entity-2="ent0003" data-link-type="dependency" data-source-line="26" id="lnk10"><path d="M255.42,295.1422 C249.02,263.3222 251.67,225.4422 263.36,225.4422 C275.06,225.4422 278.8931,257.44 272.4931,289.26" fill="none" id="Failed-to-Failed-1" style="stroke:#181818;stroke-width:1;"/><polygon fill="#181818" points="271.31,295.1422,277.0061,287.1076,272.2959,290.2404,269.1632,285.5302,271.31,295.1422" style="stroke:#181818;stroke-width:1;"/><text fill="#000000" font-family="sans-serif" font-size="13" lengthAdjust="spacing" textLength="145.9263" x="190.86" y="217.0105">Non-recoverable cause</text></g><!--link Failed to WaitingForCleanup_C_Init--><g class="link" data-entity-1="ent0003" data-entity-2="ent0005" data-link-type="dependency" data-source-line="21" id="lnk5"><path d="M268.68,295.0322 C275.1,265.7922 290.19,218.7922 323.34,195.4422 C381.37,154.5522 572.96,148.6778 689.39,148.9578" fill="none" id="Failed-to-WaitingForCleanup_C_Init" style="stroke:#181818;stroke-width:1;"/><polygon fill="#181818" points="695.39,148.9722,686.3996,144.9506,690.39,148.9602,686.3804,152.9505,695.39,148.9722" style="stroke:#181818;stroke-width:1;"/><text fill="#000000" font-family="sans-serif" font-size="13" lengthAdjust="spacing" textLength="108.6782" x="389.9081" y="133.4105">NVMECleanFailed</text><text fill="#000000" font-family="sans-serif" font-size="13" lengthAdjust="spacing" textLength="239.8145" x="324.34" y="148.7211">Cleaned up successfully after a failure</text></g><!--link Failed to Measuring_M_WaitingForMeasurements--><g class="link" data-entity-1="ent0003" data-entity-2="ent0007" data-link-type="dependency" data-source-line="22" id="lnk6"><path d="M293.74,320.4422 C360.83,320.4422 522.8,320.4422 643.23,320.4422" fill="none" id="Failed-to-Measuring_M_WaitingForMeasurements" style="stroke:#181818;stroke-width:1;"/><polygon fill="#181818" points="649.23,320.4422,640.23,316.4422,644.23,320.4422,640.23,324.4422,649.23,320.4422" style="stroke:#181818;stroke-width:1;"/><text fill="#000000" font-family="sans-serif" font-size="13" lengthAdjust="spacing" textLength="117.5903" x="385.2338" y="302.0105">Measurements Fail</text><text fill="#000000" font-family="sans-serif" font-size="13" lengthAdjust="spacing" textLength="233.3779" x="327.34" y="317.3211">Not in original failure cause anymore</text></g><!--link Failed to HostInit_HI_Measuring_HI_M_WaitingForMeasurements--><g class="link" data-entity-1="ent0003" data-entity-2="ent0006" data-link-type="dependency" data-source-line="23" id="lnk7"><path d="M293.69,296.3622 C302.7,290.1522 312.98,284.1822 323.34,280.4422 C417.54,246.3922 523.2431,235.0553 612.9731,232.1653" fill="none" id="Failed-to-HostInit_HI_Measuring_HI_M_WaitingForMeasurements" style="stroke:#181818;stroke-width:1;"/><polygon fill="#181818" points="618.97,231.9722,609.8459,228.264,613.9726,232.1331,610.1034,236.2598,618.97,231.9722" style="stroke:#181818;stroke-width:1;"/><text fill="#000000" font-family="sans-serif" font-size="13" lengthAdjust="spacing" textLength="117.5903" x="385.2338" y="216.8705">Measurements Fail</text><text fill="#000000" font-family="sans-serif" font-size="13" lengthAdjust="spacing" textLength="233.3779" x="327.34" y="232.1811">Not in original failure cause anymore</text></g><!--link Failed to PostAssignedMeasuring_M_WaitingForMeasurements--><g class="link" data-entity-1="ent0003" data-entity-2="ent0008" data-link-type="dependency" data-source-line="24" id="lnk8"><path d="M293.69,344.5222 C302.7,350.7222 312.98,356.6922 323.34,360.4422 C412.35,392.6022 511.0053,404.4292 597.9553,408.0992" fill="none" id="Failed-to-PostAssignedMeasuring_M_WaitingForMeasurements" style="stroke:#181818;stroke-width:1;"/><polygon fill="#181818" points="603.95,408.3522,595.1267,403.9762,598.9544,408.1413,594.7893,411.9691,603.95,408.3522" style="stroke:#181818;stroke-width:1;"/><text fill="#000000" font-family="sans-serif" font-size="13" lengthAdjust="spacing" textLength="117.5903" x="385.2338" y="342.0105">Measurements Fail</text><text fill="#000000" font-family="sans-serif" font-size="13" lengthAdjust="spacing" textLength="233.3779" x="327.34" y="357.3211">Not in original failure cause anymore</text></g><!--link Failed to Validation_V_RebootHost--><g class="link" data-entity-1="ent0003" data-entity-2="ent0009" data-link-type="dependency" data-source-line="25" id="lnk9"><path d="M268.68,345.8422 C275.1,375.0922 290.19,422.0822 323.34,445.4422 C433.49,523.0522 591.137,518.9216 690.597,506.4016" fill="none" id="Failed-to-Validation_V_RebootHost" style="stroke:#181818;stroke-width:1;"/><polygon fill="#181818" points="696.55,505.6522,687.1209,502.8076,691.5891,506.2767,688.12,510.7449,696.55,505.6522" style="stroke:#181818;stroke-width:1;"/><text fill="#000000" font-family="sans-serif" font-size="13" lengthAdjust="spacing" textLength="141.1782" x="373.6632" y="427.0105">MachineValidation Fail</text><text fill="#000000" font-family="sans-serif" font-size="13" lengthAdjust="spacing" textLength="184.8247" x="351.84" y="442.3211">Machine validation requested</text></g><!--link Failed to ForceDeletion--><g class="link" data-entity-1="ent0003" data-entity-2="ent0010" data-link-type="dependency" data-source-line="27" id="lnk11"><path d="M267.61,345.7822 C274.79,397.6022 293.78,512.8422 323.34,537.4422 C438.94,633.6222 626.4275,610.3926 721.3075,590.5126" fill="none" id="Failed-to-ForceDeletion" style="stroke:#181818;stroke-width:1;"/><polygon fill="#181818" points="727.18,589.2822,717.551,587.2129,722.2863,590.3076,719.1916,595.0428,727.18,589.2822" style="stroke:#181818;stroke-width:1;"/><text fill="#000000" font-family="sans-serif" font-size="13" lengthAdjust="spacing" textLength="132.4248" x="377.84" y="534.0105">Admin force deletion</text></g></g></svg>