<?plantuml 1.2026.1?><svg xmlns="http://www.w3.org/2000/svg" xmlns:xlink="http://www.w3.org/1999/xlink" contentStyleType="text/css" data-diagram-type="STATE" height="573px" preserveAspectRatio="none" style="width:1062px;height:573px;background:#FFFFFF;" version="1.1" viewBox="0 0 1062 573" width="1062px" zoomAndPan="magnify"><defs/><g><g><rect fill="#FFFFFF" height="50" rx="12.5" ry="12.5" style="stroke:#000000;stroke-width:0.5;" width="90.6084" x="39.41" y="177"/><line style="stroke:#000000;stroke-width:0.5;" x1="39.41" x2="130.0184" y1="203.4883" y2="203.4883"/><text fill="#000000" font-family="sans-serif" font-size="14" lengthAdjust="spacing" textLength="70.6084" x="49.41" y="195.5352">Measuring</text></g><g><rect fill="#FFFFFF" height="50" rx="12.5" ry="12.5" style="stroke:#000000;stroke-width:0.5;" width="130.8174" x="19.31" y="262"/><line style="stroke:#000000;stroke-width:0.5;" x1="19.31" x2="150.1274" y1="288.4883" y2="288.4883"/><text fill="#000000" font-family="sans-serif" font-size="14" lengthAdjust="spacing" textLength="110.8174" x="29.31" y="280.5352">HostReprovision</text></g><g><rect fill="#FFFFFF" height="50" rx="12.5" ry="12.5" style="stroke:#000000;stroke-width:0.5;" width="155.4336" x="7" y="347"/><line style="stroke:#000000;stroke-width:0.5;" x1="7" x2="162.4336" y1="373.4883" y2="373.4883"/><text fill="#000000" font-family="sans-serif" font-size="14" lengthAdjust="spacing" textLength="135.4336" x="17" y="365.5352">HostInit/Discovered</text></g><g><rect fill="#FFFFFF" height="50" rx="12.5" ry="12.5" style="stroke:#000000;stroke-width:0.5;" width="60.5098" x="398.43" y="262"/><line style="stroke:#000000;stroke-width:0.5;" x1="398.43" x2="458.9398" y1="288.4883" y2="288.4883"/><text fill="#000000" font-family="sans-serif" font-size="14" lengthAdjust="spacing" textLength="40.5098" x="408.43" y="280.5352">Ready</text></g><g><rect fill="#FFFFFF" height="50" rx="12.5" ry="12.5" style="stroke:#000000;stroke-width:0.5;" width="174.5947" x="793.14" y="7"/><line style="stroke:#000000;stroke-width:0.5;" x1="793.14" x2="967.7347" y1="33.4883" y2="33.4883"/><text fill="#000000" font-family="sans-serif" font-size="14" lengthAdjust="spacing" textLength="154.5947" x="803.14" y="25.5352">Validation/RebootHost</text></g><g><rect fill="#FFFFFF" height="50" rx="12.5" ry="12.5" style="stroke:#000000;stroke-width:0.5;" width="216.1572" x="772.36" y="92"/><line style="stroke:#000000;stroke-width:0.5;" x1="772.36" x2="988.5172" y1="118.4883" y2="118.4883"/><text fill="#000000" font-family="sans-serif" font-size="14" lengthAdjust="spacing" textLength="196.1572" x="782.36" y="110.5352">BomValidating/bv_requested</text></g><g><rect fill="#FFFFFF" height="50" rx="12.5" ry="12.5" style="stroke:#000000;stroke-width:0.5;" width="350.9961" x="704.94" y="177"/><line style="stroke:#000000;stroke-width:0.5;" x1="704.94" x2="1055.9361" y1="203.4883" y2="203.4883"/><text fill="#000000" font-family="sans-serif" font-size="14" lengthAdjust="spacing" textLength="330.9961" x="714.94" y="195.5352">Assigned/WaitingForNetworkSegmentToBeReady</text></g><g><rect fill="#FFFFFF" height="50" rx="12.5" ry="12.5" style="stroke:#000000;stroke-width:0.5;" width="230.3691" x="765.26" y="262"/><line style="stroke:#000000;stroke-width:0.5;" x1="765.26" x2="995.6291" y1="288.4883" y2="288.4883"/><text fill="#000000" font-family="sans-serif" font-size="14" lengthAdjust="spacing" textLength="210.3691" x="775.26" y="280.5352">HostInit/UefiSetup/UnlockHost</text></g><g><rect fill="#FFFFFF" height="50" rx="12.5" ry="12.5" style="stroke:#000000;stroke-width:0.5;" width="269.1152" x="745.88" y="347"/><line style="stroke:#000000;stroke-width:0.5;" x1="745.88" x2="1014.9952" y1="373.4883" y2="373.4883"/><text fill="#000000" font-family="sans-serif" font-size="14" lengthAdjust="spacing" textLength="249.1152" x="755.88" y="365.5352">Measuring/WaitingForMeasurements</text></g><g><rect fill="#FFFFFF" height="50" rx="12.5" ry="12.5" style="stroke:#000000;stroke-width:0.5;" width="285.1592" x="737.86" y="432"/><line style="stroke:#000000;stroke-width:0.5;" x1="737.86" x2="1023.0192" y1="458.4883" y2="458.4883"/><text fill="#000000" font-family="sans-serif" font-size="14" lengthAdjust="spacing" textLength="265.1592" x="747.86" y="450.5352">DPUReprovision/dr_bfb_check_support</text></g><g><rect fill="#FFFFFF" height="50" rx="12.5" ry="12.5" style="stroke:#000000;stroke-width:0.5;" width="263.5508" x="748.67" y="517"/><line style="stroke:#000000;stroke-width:0.5;" x1="748.67" x2="1012.2208" y1="543.4883" y2="543.4883"/><text fill="#000000" font-family="sans-serif" font-size="14" lengthAdjust="spacing" textLength="243.5508" x="758.67" y="535.5352">HostReprovision/CheckingFirmware</text></g><!--link HostInit_HI_Discovered to Ready--><g class="link" data-entity-1="ent0004" data-entity-2="ent0005" data-link-type="dependency" data-source-line="30" id="lnk2"><path d="M162.89,352.82 C237.35,334.31 340.3774,308.7081 392.2474,295.8081" fill="none" id="HostInit_HI_Discovered-to-Ready" style="stroke:#181818;stroke-width:1;"/><polygon fill="#181818" points="398.07,294.36,388.3707,292.6504,393.2178,295.5667,390.3014,300.4139,398.07,294.36" style="stroke:#181818;stroke-width:1;"/></g><!--link Measuring to Ready--><g class="link" data-entity-1="ent0002" data-entity-2="ent0005" data-link-type="dependency" data-source-line="31" id="lnk3"><path d="M130.46,208.79 C186.77,217.95 286.09,236.15 368.43,262 C378.23,265.08 383.1221,266.8136 392.4421,270.7936" fill="none" id="Measuring-to-Ready" style="stroke:#181818;stroke-width:1;"/><polygon fill="#181818" points="397.96,273.15,391.254,265.9368,393.3617,271.1864,388.1122,273.2941,397.96,273.15" style="stroke:#181818;stroke-width:1;"/><text fill="#000000" font-family="sans-serif" font-size="13" lengthAdjust="spacing" textLength="135.9287" x="212.93" y="216.6784">Measuring completed</text></g><!--link HostReprovision to Ready--><g class="link" data-entity-1="ent0003" data-entity-2="ent0005" data-link-type="dependency" data-source-line="32" id="lnk4"><path d="M150.44,287 C224.8,287 337.57,287 392.31,287" fill="none" id="HostReprovision-to-Ready" style="stroke:#181818;stroke-width:1;"/><polygon fill="#181818" points="398.31,287,389.31,283,393.31,287,389.31,291,398.31,287" style="stroke:#181818;stroke-width:1;"/><text fill="#000000" font-family="sans-serif" font-size="13" lengthAdjust="spacing" textLength="174.478" x="193.43" y="283.5684">Host reprovision completed</text></g><!--link Ready to Validation_V_RebootHost--><g class="link" data-entity-1="ent0005" data-entity-2="ent0006" data-link-type="dependency" data-source-line="34" id="lnk5"><path d="M430.33,261.78 C432.76,222.47 443.48,146.97 488.94,107 C572.54,33.49 699.7619,22.68 786.9119,24.86" fill="none" id="Ready-to-Validation_V_RebootHost" style="stroke:#181818;stroke-width:1;"/><polygon fill="#181818" points="792.91,25.01,784.0128,20.7862,787.9116,24.885,783.8128,28.7837,792.91,25.01" style="stroke:#181818;stroke-width:1;"/><text fill="#000000" font-family="sans-serif" font-size="13" lengthAdjust="spacing" textLength="184.8247" x="489.94" y="28.1684">Machine validation requested</text></g><!--link Ready to BomValidating_bv_requested--><g class="link" data-entity-1="ent0005" data-entity-2="ent0007" data-link-type="dependency" data-source-line="35" id="lnk6"><path d="M440.44,261.66 C450.19,241.8 466.49,215.07 488.94,200 C573.11,143.51 682.5651,124.8949 766.0851,118.9649" fill="none" id="Ready-to-BomValidating_bv_requested" style="stroke:#181818;stroke-width:1;"/><polygon fill="#181818" points="772.07,118.54,762.8093,115.1874,767.0826,118.8941,763.3759,123.1674,772.07,118.54" style="stroke:#181818;stroke-width:1;"/><text fill="#000000" font-family="sans-serif" font-size="13" lengthAdjust="spacing" textLength="161.4272" x="501.44" y="128.2984">BOM validation requested</text></g><!--link Ready to DPUReprovision_dr_bfb_check_support--><g class="link" data-entity-1="ent0005" data-entity-2="ent0011" data-link-type="dependency" data-source-line="36" id="lnk7"><path d="M440.44,312.34 C450.19,332.2 466.49,358.93 488.94,374 C562.03,423.06 652.7346,443.2264 731.6146,451.7364" fill="none" id="Ready-to-DPUReprovision_dr_bfb_check_support" style="stroke:#181818;stroke-width:1;"/><polygon fill="#181818" points="737.58,452.38,729.061,447.4377,732.6088,451.8437,728.2029,455.3916,737.58,452.38" style="stroke:#181818;stroke-width:1;"/><text fill="#000000" font-family="sans-serif" font-size="13" lengthAdjust="spacing" textLength="168.0986" x="497.94" y="370.5684">DPU reprovision requested</text></g><!--link Ready to HostReprovision_HR_CheckingFirmware--><g class="link" data-entity-1="ent0005" data-entity-2="ent0012" data-link-type="dependency" data-source-line="37" id="lnk8"><path d="M430.33,312.22 C432.76,351.53 443.48,427.03 488.94,467 C559.32,528.88 658.863,546.0307 742.493,548.6707" fill="none" id="Ready-to-HostReprovision_HR_CheckingFirmware" style="stroke:#181818;stroke-width:1;"/><polygon fill="#181818" points="748.49,548.86,739.6207,544.578,743.4925,548.7022,739.3683,552.574,748.49,548.86" style="stroke:#181818;stroke-width:1;"/><text fill="#000000" font-family="sans-serif" font-size="13" lengthAdjust="spacing" textLength="171.1963" x="496.44" y="463.5684">Host reprovision requested</text></g><!--link Ready to Assigned_A_WaitingForNetworkSegmentToBeReady--><g class="link" data-entity-1="ent0005" data-entity-2="ent0008" data-link-type="dependency" data-source-line="38" id="lnk9"><path d="M459.32,272.81 C468.63,268.81 479.06,264.8 488.94,262 C558.24,242.38 630.4446,229.5779 698.5146,220.3279" fill="none" id="Ready-to-Assigned_A_WaitingForNetworkSegmentToBeReady" style="stroke:#181818;stroke-width:1;"/><polygon fill="#181818" points="704.46,219.52,695.0034,216.7683,699.5055,220.1933,696.0806,224.6954,704.46,219.52" style="stroke:#181818;stroke-width:1;"/><text fill="#000000" font-family="sans-serif" font-size="13" lengthAdjust="spacing" textLength="112.3535" x="525.94" y="221.2284">Instance assigned</text></g><!--link Ready to Measuring_M_WaitingForMeasurements--><g class="link" data-entity-1="ent0005" data-entity-2="ent0010" data-link-type="dependency" data-source-line="39" id="lnk10"><path d="M459.32,301.19 C468.63,305.19 479.06,309.2 488.94,312 C572.76,335.73 663.5617,349.9734 739.7917,359.0134" fill="none" id="Ready-to-Measuring_M_WaitingForMeasurements" style="stroke:#181818;stroke-width:1;"/><polygon fill="#181818" points="745.75,359.72,737.2837,354.688,740.7848,359.1312,736.3416,362.6323,745.75,359.72" style="stroke:#181818;stroke-width:1;"/><text fill="#000000" font-family="sans-serif" font-size="13" lengthAdjust="spacing" textLength="169.3301" x="497.44" y="308.5684">Redo measuring requested</text></g><!--link Ready to HostInit_HI_UefiSetup_HI_USS_UnlockHost--><g class="link" data-entity-1="ent0005" data-entity-2="ent0009" data-link-type="dependency" data-source-line="40" id="lnk11"><path d="M459.2,287 C520.17,287 656.89,287 759.08,287" fill="none" id="Ready-to-HostInit_HI_UefiSetup_HI_USS_UnlockHost" style="stroke:#181818;stroke-width:1;"/><polygon fill="#181818" points="765.08,287,756.08,283,760.08,287,756.08,291,765.08,287" style="stroke:#181818;stroke-width:1;"/><text fill="#000000" font-family="sans-serif" font-size="13" lengthAdjust="spacing" textLength="168.0352" x="497.94" y="283.5684">Need setup BIOS password</text></g></g></svg>