<?plantuml 1.2026.1?><svg xmlns="http://www.w3.org/2000/svg" xmlns:xlink="http://www.w3.org/1999/xlink" contentStyleType="text/css" data-diagram-type="STATE" height="1550px" preserveAspectRatio="none" style="width:961px;height:1550px;background:#FFFFFF;" version="1.1" viewBox="0 0 961 1550" width="961px" zoomAndPan="magnify"><defs/><g><!--cluster DR_InstallDpuOs--><g class="cluster" data-qualified-name="DR_InstallDpuOs" data-source-line="18" id="ent0007"><path d="M19.5,221 L364.5,221 A12.5,12.5 0 0 1 377,233.5 L377,242.4883 L7,242.4883 L7,233.5 A12.5,12.5 0 0 1 19.5,221" fill="#FFFFFF"/><rect fill="none" height="370" rx="12.5" ry="12.5" style="stroke:#000000;stroke-width:0.5;" width="370" x="7" y="221"/><line style="stroke:#000000;stroke-width:0.5;" x1="7" x2="377" y1="242.4883" y2="242.4883"/><text fill="#000000" font-family="sans-serif" font-size="14" lengthAdjust="spacing" textLength="86.9189" x="148.5405" y="238.5352">InstallDpuOs</text></g><g><rect fill="#FFFFFF" height="50" rx="12.5" ry="12.5" style="stroke:#000000;stroke-width:0.5;" width="105.9961" x="99" y="256"/><line style="stroke:#000000;stroke-width:0.5;" x1="99" x2="204.9961" y1="282.4883" y2="282.4883"/><text fill="#000000" font-family="sans-serif" font-size="14" lengthAdjust="spacing" textLength="85.9961" x="109" y="274.5352">InstallingBFB</text></g><g><rect fill="#FFFFFF" height="50" rx="12.5" ry="12.5" style="stroke:#000000;stroke-width:0.5;" width="176.7959" x="22.6" y="383"/><line style="stroke:#000000;stroke-width:0.5;" x1="22.6" x2="199.3959" y1="409.4883" y2="409.4883"/><text fill="#000000" font-family="sans-serif" font-size="14" lengthAdjust="spacing" textLength="156.7959" x="32.6" y="401.5352">WaitForInstallComplete</text></g><g><rect fill="#FFFFFF" height="50" rx="12.5" ry="12.5" style="stroke:#000000;stroke-width:0.5;" width="93.8623" x="56.07" y="525"/><line style="stroke:#000000;stroke-width:0.5;" x1="56.07" x2="149.9323" y1="551.4883" y2="551.4883"/><text fill="#000000" font-family="sans-serif" font-size="14" lengthAdjust="spacing" textLength="73.8623" x="66.07" y="543.5352">Completed</text></g><g><rect fill="#FFFFFF" height="50" rx="12.5" ry="12.5" style="stroke:#000000;stroke-width:0.5;" width="128.5957" x="184.7" y="525"/><line style="stroke:#000000;stroke-width:0.5;" x1="184.7" x2="313.2957" y1="551.4883" y2="551.4883"/><text fill="#000000" font-family="sans-serif" font-size="14" lengthAdjust="spacing" textLength="108.5957" x="194.7" y="543.5352">InstallationError</text></g><g><rect fill="#FFFFFF" height="50" rx="12.5" ry="12.5" style="stroke:#000000;stroke-width:0.5;" width="60.5098" x="178.75" y="7"/><line style="stroke:#000000;stroke-width:0.5;" x1="178.75" x2="239.2598" y1="33.4883" y2="33.4883"/><text fill="#000000" font-family="sans-serif" font-size="14" lengthAdjust="spacing" textLength="40.5098" x="188.75" y="25.5352">Ready</text></g><g><rect fill="#FFFFFF" height="50" rx="12.5" ry="12.5" style="stroke:#000000;stroke-width:0.5;" width="278.1455" x="273.93" y="7"/><line style="stroke:#000000;stroke-width:0.5;" x1="273.93" x2="552.0755" y1="33.4883" y2="33.4883"/><text fill="#000000" font-family="sans-serif" font-size="14" lengthAdjust="spacing" textLength="258.1455" x="283.93" y="25.5352">Assigned/BootingWithDiscoveryImage</text></g><g class="entity" data-qualified-name="dr_bfb_check_support" id="ent0004"><polygon fill="#F1F1F1" points="311,134,323,146,311,158,299,146,311,134" style="stroke:#181818;stroke-width:0.5;"/></g><g><rect fill="#FFFFFF" height="50" rx="12.5" ry="12.5" style="stroke:#000000;stroke-width:0.5;" width="168.0049" x="587" y="7"/><line style="stroke:#000000;stroke-width:0.5;" x1="587" x2="755.0049" y1="33.4883" y2="33.4883"/><text fill="#000000" font-family="sans-serif" font-size="14" lengthAdjust="spacing" textLength="148.0049" x="597" y="25.5352">BmcFirmwareUpgrade</text></g><g><rect fill="#FFFFFF" height="50" rx="12.5" ry="12.5" style="stroke:#000000;stroke-width:0.5;" width="168.0049" x="625" y="383"/><line style="stroke:#000000;stroke-width:0.5;" x1="625" x2="793.0049" y1="409.4883" y2="409.4883"/><text fill="#000000" font-family="sans-serif" font-size="14" lengthAdjust="spacing" textLength="148.0049" x="635" y="401.5352">BmcFirmwareUpgrade</text></g><g><rect fill="#FFFFFF" height="50" rx="12.5" ry="12.5" style="stroke:#000000;stroke-width:0.5;" width="139.7109" x="584.14" y="525"/><line style="stroke:#000000;stroke-width:0.5;" x1="584.14" x2="723.8509" y1="551.4883" y2="551.4883"/><text fill="#000000" font-family="sans-serif" font-size="14" lengthAdjust="spacing" textLength="119.7109" x="594.14" y="543.5352">FirmwareUpgrade</text></g><g><rect fill="#FFFFFF" height="50" rx="12.5" ry="12.5" style="stroke:#000000;stroke-width:0.5;" width="189.8867" x="336.06" y="654"/><line style="stroke:#000000;stroke-width:0.5;" x1="336.06" x2="525.9467" y1="680.4883" y2="680.4883"/><text fill="#000000" font-family="sans-serif" font-size="14" lengthAdjust="spacing" textLength="169.8867" x="346.06" y="672.5352">WaitingForNetworkInstall</text></g><g><rect fill="#FFFFFF" height="50" rx="12.5" ry="12.5" style="stroke:#000000;stroke-width:0.5;" width="134.5498" x="363.73" y="765"/><line style="stroke:#000000;stroke-width:0.5;" x1="363.73" x2="498.2798" y1="791.4883" y2="791.4883"/><text fill="#000000" font-family="sans-serif" font-size="14" lengthAdjust="spacing" textLength="114.5498" x="373.73" y="783.5352">PoweringOffHost</text></g><g><rect fill="#FFFFFF" height="50" rx="12.5" ry="12.5" style="stroke:#000000;stroke-width:0.5;" width="99.2148" x="381.39" y="892"/><line style="stroke:#000000;stroke-width:0.5;" x1="381.39" x2="480.6048" y1="918.4883" y2="918.4883"/><text fill="#000000" font-family="sans-serif" font-size="14" lengthAdjust="spacing" textLength="79.2148" x="391.39" y="910.5352">PowerDown</text></g><g><rect fill="#FFFFFF" height="50" rx="12.5" ry="12.5" style="stroke:#000000;stroke-width:0.5;" width="94.334" x="635.83" y="892"/><line style="stroke:#000000;stroke-width:0.5;" x1="635.83" x2="730.164" y1="918.4883" y2="918.4883"/><text fill="#000000" font-family="sans-serif" font-size="14" lengthAdjust="spacing" textLength="74.334" x="645.83" y="910.5352">BufferTime</text></g><g><rect fill="#FFFFFF" height="50" rx="12.5" ry="12.5" style="stroke:#000000;stroke-width:0.5;" width="169.0918" x="472.45" y="1019"/><line style="stroke:#000000;stroke-width:0.5;" x1="472.45" x2="641.5418" y1="1045.4883" y2="1045.4883"/><text fill="#000000" font-family="sans-serif" font-size="14" lengthAdjust="spacing" textLength="149.0918" x="482.45" y="1037.5352">VerifyFirmareVersions</text></g><g><rect fill="#FFFFFF" height="50" rx="12.5" ry="12.5" style="stroke:#000000;stroke-width:0.5;" width="193.8652" x="460.07" y="1130"/><line style="stroke:#000000;stroke-width:0.5;" x1="460.07" x2="653.9352" y1="1156.4883" y2="1156.4883"/><text fill="#000000" font-family="sans-serif" font-size="14" lengthAdjust="spacing" textLength="173.8652" x="470.07" y="1148.5352">WaitingForNetworkConfig</text></g><g><rect fill="#FFFFFF" height="50" rx="12.5" ry="12.5" style="stroke:#000000;stroke-width:0.5;" width="127.4541" x="493.27" y="1241"/><line style="stroke:#000000;stroke-width:0.5;" x1="493.27" x2="620.7241" y1="1267.4883" y2="1267.4883"/><text fill="#000000" font-family="sans-serif" font-size="14" lengthAdjust="spacing" textLength="107.4541" x="503.27" y="1259.5352">RebootHostBmc</text></g><g><rect fill="#FFFFFF" height="50" rx="12.5" ry="12.5" style="stroke:#000000;stroke-width:0.5;" width="99.1602" x="507.42" y="1352"/><line style="stroke:#000000;stroke-width:0.5;" x1="507.42" x2="606.5802" y1="1378.4883" y2="1378.4883"/><text fill="#000000" font-family="sans-serif" font-size="14" lengthAdjust="spacing" textLength="79.1602" x="517.42" y="1370.5352">RebootHost</text></g><g><rect fill="#FFFFFF" height="50" rx="12.5" ry="12.5" style="stroke:#000000;stroke-width:0.5;" width="164.4639" x="789.77" y="7"/><line style="stroke:#000000;stroke-width:0.5;" x1="789.77" x2="954.2339" y1="33.4883" y2="33.4883"/><text fill="#000000" font-family="sans-serif" font-size="14" lengthAdjust="spacing" textLength="144.4639" x="799.77" y="25.5352">NotUnderReprovision</text></g><g><rect fill="#FFFFFF" height="50" rx="12.5" ry="12.5" style="stroke:#000000;stroke-width:0.5;" width="129.8604" x="223.07" y="1494"/><line style="stroke:#000000;stroke-width:0.5;" x1="223.07" x2="352.9304" y1="1520.4883" y2="1520.4883"/><text fill="#000000" font-family="sans-serif" font-size="14" lengthAdjust="spacing" textLength="109.8604" x="233.07" y="1512.5352">Assigned/Ready</text></g><g><rect fill="#FFFFFF" height="50" rx="12.5" ry="12.5" style="stroke:#000000;stroke-width:0.5;" width="155.4336" x="479.28" y="1494"/><line style="stroke:#000000;stroke-width:0.5;" x1="479.28" x2="634.7136" y1="1520.4883" y2="1520.4883"/><text fill="#000000" font-family="sans-serif" font-size="14" lengthAdjust="spacing" textLength="135.4336" x="489.28" y="1512.5352">HostInit/Discovered</text></g><g><rect fill="#FFFFFF" height="50" rx="12.5" ry="12.5" style="stroke:#000000;stroke-width:0.5;" width="263.5508" x="669.22" y="1494"/><line style="stroke:#000000;stroke-width:0.5;" x1="669.22" x2="932.7708" y1="1520.4883" y2="1520.4883"/><text fill="#000000" font-family="sans-serif" font-size="14" lengthAdjust="spacing" textLength="243.5508" x="679.22" y="1512.5352">HostReprovision/CheckingFirmware</text></g><!--link Ready to dr_bfb_check_support--><g class="link" data-entity-1="ent0002" data-entity-2="ent0004" data-link-type="dependency" data-source-line="43" id="lnk2"><path d="M205.57,57.21 C204.77,72.05 206.28,90.7 216,104 C236.55,132.14 274.5642,140.375 294.6542,143.095" fill="none" id="Ready-to-dr_bfb_check_support" style="stroke:#181818;stroke-width:1;"/><polygon fill="#181818" points="300.6,143.9,292.218,138.7287,295.6452,143.2292,291.1447,146.6563,300.6,143.9" style="stroke:#181818;stroke-width:1;"/><text fill="#000000" font-family="sans-serif" font-size="13" lengthAdjust="spacing" textLength="152.6738" x="217" y="100.5684">DPU reprovision request</text></g><!--link Assigned_A_BootingWithDiscoveryImage to dr_bfb_check_support--><g class="link" data-entity-1="ent0003" data-entity-2="ent0004" data-link-type="dependency" data-source-line="44" id="lnk3"><path d="M403.3,57.26 C396.6,71.94 386.63,90.39 374,104 C357.49,121.79 337.1311,132.7986 324.2711,138.8986" fill="none" id="Assigned_A_BootingWithDiscoveryImage-to-dr_bfb_check_support" style="stroke:#181818;stroke-width:1;"/><polygon fill="#181818" points="318.85,141.47,328.6959,141.2269,323.3675,139.3272,325.2673,133.9988,318.85,141.47" style="stroke:#181818;stroke-width:1;"/><text fill="#000000" font-family="sans-serif" font-size="13" lengthAdjust="spacing" textLength="152.6738" x="387.23" y="100.5684">DPU reprovision request</text></g><!--link dr_bfb_check_support to DR_IDO_InstallingBFB--><g class="link" data-entity-1="ent0004" data-entity-2="ent0008" data-link-type="dependency" data-source-line="46" id="lnk4"><path d="M304.96,152.05 C284.88,168.85 224.0521,219.7302 185.5721,251.9202" fill="none" id="dr_bfb_check_support-to-DR_IDO_InstallingBFB" style="stroke:#181818;stroke-width:1;"/><polygon fill="#181818" points="180.97,255.77,190.4396,253.0633,184.8051,252.5618,185.3066,246.9272,180.97,255.77" style="stroke:#181818;stroke-width:1;"/><text fill="#000000" font-family="sans-serif" font-size="13" lengthAdjust="spacing" textLength="132.812" x="260.57" y="201.5684">BFB install supported</text></g><!--link dr_bfb_check_support to DR_WaitingForNetworkInstall--><g class="link" data-entity-1="ent0004" data-entity-2="ent0013" data-link-type="dependency" data-source-line="47" id="lnk5"><path d="M320.79,148.69 C339.34,152.39 379.79,163 402,188 C430.48,220.05 431,237.13 431,280 C431,280 431,280 431,551 C431,586.72 431,622.09 431,647.65" fill="none" id="dr_bfb_check_support-to-DR_WaitingForNetworkInstall" style="stroke:#181818;stroke-width:1;"/><polygon fill="#181818" points="431,653.65,435,644.65,431,648.65,427,644.65,431,653.65" style="stroke:#181818;stroke-width:1;"/><text fill="#000000" font-family="sans-serif" font-size="13" lengthAdjust="spacing" textLength="157.8408" x="432" y="413.0684">BFB install not supported</text></g><!--link DR_IDO_InstallingBFB to DR_IDO_WaitForInstallComplete--><g class="link" data-entity-1="ent0008" data-entity-2="ent0009" data-link-type="dependency" data-source-line="49" id="lnk6"><path d="M144,306.4 C136.77,328.42 128.0709,354.9592 120.8509,376.9592" fill="none" id="DR_IDO_InstallingBFB-to-DR_IDO_WaitForInstallComplete" style="stroke:#181818;stroke-width:1;"/><polygon fill="#181818" points="118.98,382.66,125.5869,375.356,120.5391,377.9093,117.9858,372.8615,118.98,382.66" style="stroke:#181818;stroke-width:1;"/><text fill="#000000" font-family="sans-serif" font-size="13" lengthAdjust="spacing" textLength="77.0542" x="134.95" y="349.5684">Start update</text></g><!--link DR_IDO_WaitForInstallComplete to DR_IDO_Completed--><g class="link" data-entity-1="ent0009" data-entity-2="ent0010" data-link-type="dependency" data-source-line="50" id="lnk7"><path d="M104.97,433.3 C102.96,442.54 100.99,453.2 100,463 C97.9,483.81 98.5083,501.6002 99.9283,518.8702" fill="none" id="DR_IDO_WaitForInstallComplete-to-DR_IDO_Completed" style="stroke:#181818;stroke-width:1;"/><polygon fill="#181818" points="100.42,524.85,103.669,515.5525,100.0103,519.8668,95.6959,516.2081,100.42,524.85" style="stroke:#181818;stroke-width:1;"/><text fill="#000000" font-family="sans-serif" font-size="13" lengthAdjust="spacing" textLength="99.9883" x="101" y="484.0684">Task completed</text></g><!--link DR_IDO_WaitForInstallComplete to DR_IDO_InstallationError--><g class="link" data-entity-1="ent0009" data-entity-2="ent0011" data-link-type="dependency" data-source-line="51" id="lnk8"><path d="M165.53,433.31 C179.56,441.34 193.84,451.28 205,463 C221.89,480.73 231.6844,500.6068 238.8144,519.2268" fill="none" id="DR_IDO_WaitForInstallComplete-to-DR_IDO_InstallationError" style="stroke:#181818;stroke-width:1;"/><polygon fill="#181818" points="240.96,524.83,241.4771,514.9947,239.172,520.1606,234.0061,517.8555,240.96,524.83" style="stroke:#181818;stroke-width:1;"/><text fill="#000000" font-family="sans-serif" font-size="13" lengthAdjust="spacing" textLength="95.71" x="237.0505" y="476.5684">Task exception</text><text fill="#000000" font-family="sans-serif" font-size="13" lengthAdjust="spacing" textLength="115.1909" x="227.31" y="491.8789">OR unknown state</text></g><!--link DR_IDO_WaitForInstallComplete to DR_IDO_WaitForInstallComplete--><g class="link" data-entity-1="ent0009" data-entity-2="ent0009" data-link-type="dependency" data-source-line="52" id="lnk9"><path d="M199.74,396.38 C219.76,397.43 234.4,401.3 234.4,408 C234.4,414.7 225.7518,418.2557 205.7318,419.3057" fill="none" id="DR_IDO_WaitForInstallComplete-to-DR_IDO_WaitForInstallComplete" style="stroke:#181818;stroke-width:1;"/><polygon fill="#181818" points="199.74,419.62,208.9371,423.1431,204.7331,419.3581,208.5181,415.1541,199.74,419.62" style="stroke:#181818;stroke-width:1;"/><text fill="#000000" font-family="sans-serif" font-size="13" lengthAdjust="spacing" textLength="132.0503" x="240.4" y="413.0684">Wait task completion</text></g><!--link DR_IDO_Completed to DR_WaitingForNetworkInstall--><g class="link" data-entity-1="ent0010" data-entity-2="ent0013" data-link-type="dependency" data-source-line="53" id="lnk10"><path d="M130.88,575.29 C141.62,583.7 154.35,592.62 167,599 C220.18,625.82 278.2583,643.788 329.8583,656.658" fill="none" id="DR_IDO_Completed-to-DR_WaitingForNetworkInstall" style="stroke:#181818;stroke-width:1;"/><polygon fill="#181818" points="335.68,658.11,327.9155,652.0509,330.8286,656.9,325.9795,659.8131,335.68,658.11" style="stroke:#181818;stroke-width:1;"/></g><!--link DR_BmcFirmwareUpgrade to DR_FirmwareUpgrade--><g class="link" data-entity-1="ent0006" data-entity-2="ent0012" data-link-type="dependency" data-source-line="55" id="lnk11"><path d="M699.42,433.39 C689.32,459.08 675.7133,493.7153 665.6633,519.3053" fill="none" id="DR_BmcFirmwareUpgrade-to-DR_FirmwareUpgrade" style="stroke:#181818;stroke-width:1;"/><polygon fill="#181818" points="663.47,524.89,670.4831,517.9751,665.2978,520.236,663.0368,515.0507,663.47,524.89" style="stroke:#181818;stroke-width:1;"/><text fill="#000000" font-family="sans-serif" font-size="13" lengthAdjust="spacing" textLength="70.2939" x="687.43" y="484.0684">deprecated</text></g><!--link DR_FirmwareUpgrade to DR_WaitingForNetworkInstall--><g class="link" data-entity-1="ent0012" data-entity-2="ent0013" data-link-type="dependency" data-source-line="56" id="lnk12"><path d="M611,575.49 C571.52,597.98 518.5236,628.1504 479.0736,650.6204" fill="none" id="DR_FirmwareUpgrade-to-DR_WaitingForNetworkInstall" style="stroke:#181818;stroke-width:1;"/><polygon fill="#181818" points="473.86,653.59,483.6601,652.6114,478.2047,651.1154,479.7007,645.6599,473.86,653.59" style="stroke:#181818;stroke-width:1;"/><text fill="#000000" font-family="sans-serif" font-size="13" lengthAdjust="spacing" textLength="70.2939" x="550.19" y="620.5684">deprecated</text></g><!--link DR_BufferTime to DR_VerifyFirmareVersions--><g class="link" data-entity-1="ent0016" data-entity-2="ent0017" data-link-type="dependency" data-source-line="57" id="lnk13"><path d="M658.41,942.4 C636.21,964.42 607.9699,992.4347 585.7899,1014.4347" fill="none" id="DR_BufferTime-to-DR_VerifyFirmareVersions" style="stroke:#181818;stroke-width:1;"/><polygon fill="#181818" points="581.53,1018.66,590.7367,1015.1619,585.0799,1015.1389,585.103,1009.4821,581.53,1018.66" style="stroke:#181818;stroke-width:1;"/><text fill="#000000" font-family="sans-serif" font-size="13" lengthAdjust="spacing" textLength="70.2939" x="628.54" y="985.5684">deprecated</text></g><!--link DR_WaitingForNetworkInstall to DR_PoweringOffHost--><g class="link" data-entity-1="ent0013" data-entity-2="ent0014" data-link-type="dependency" data-source-line="58" id="lnk14"><path d="M431,704.46 C431,722.41 431,740.69 431,758.62" fill="none" id="DR_WaitingForNetworkInstall-to-DR_PoweringOffHost" style="stroke:#181818;stroke-width:1;"/><polygon fill="#181818" points="431,764.62,435,755.62,431,759.62,427,755.62,431,764.62" style="stroke:#181818;stroke-width:1;"/></g><!--link DR_PoweringOffHost to DR_PoweringOffHost--><g class="link" data-entity-1="ent0014" data-entity-2="ent0014" data-link-type="dependency" data-source-line="59" id="lnk15"><path d="M498.38,779.63 C518.04,779.98 533.27,783.44 533.27,790 C533.27,796.56 524.039,799.9102 504.379,800.2702" fill="none" id="DR_PoweringOffHost-to-DR_PoweringOffHost" style="stroke:#181818;stroke-width:1;"/><polygon fill="#181818" points="498.38,800.38,507.4517,804.2146,503.3792,800.2885,507.3053,796.2159,498.38,800.38" style="stroke:#181818;stroke-width:1;"/><text fill="#000000" font-family="sans-serif" font-size="13" lengthAdjust="spacing" textLength="113.4961" x="539.27" y="795.0684">wait all DPU ready</text></g><!--link DR_PoweringOffHost to DR_PowerDown--><g class="link" data-entity-1="ent0014" data-entity-2="ent0015" data-link-type="dependency" data-source-line="60" id="lnk16"><path d="M431,815.4 C431,837.42 431,863.66 431,885.66" fill="none" id="DR_PoweringOffHost-to-DR_PowerDown" style="stroke:#181818;stroke-width:1;"/><polygon fill="#181818" points="431,891.66,435,882.66,431,886.66,427,882.66,431,891.66" style="stroke:#181818;stroke-width:1;"/><text fill="#000000" font-family="sans-serif" font-size="13" lengthAdjust="spacing" textLength="71.3857" x="432" y="858.5684">DPUs ready</text></g><!--link DR_PowerDown to DR_PowerDown--><g class="link" data-entity-1="ent0015" data-entity-2="ent0015" data-link-type="dependency" data-source-line="61" id="lnk17"><path d="M480.96,905.13 C499.92,904.67 515.61,908.63 515.61,917 C515.61,925.37 505.9182,929.4755 486.9582,929.0155" fill="none" id="DR_PowerDown-to-DR_PowerDown" style="stroke:#181818;stroke-width:1;"/><polygon fill="#181818" points="480.96,928.87,489.8603,933.0871,485.9585,928.9913,490.0544,925.0895,480.96,928.87" style="stroke:#181818;stroke-width:1;"/><text fill="#000000" font-family="sans-serif" font-size="13" lengthAdjust="spacing" textLength="90.4414" x="521.61" y="922.0684">Wait Power off</text></g><!--link DR_PowerDown to DR_VerifyFirmareVersions--><g class="link" data-entity-1="ent0015" data-entity-2="ent0017" data-link-type="dependency" data-source-line="62" id="lnk18"><path d="M455.59,942.4 C477.79,964.42 506.0301,992.4347 528.2101,1014.4347" fill="none" id="DR_PowerDown-to-DR_VerifyFirmareVersions" style="stroke:#181818;stroke-width:1;"/><polygon fill="#181818" points="532.47,1018.66,528.897,1009.4821,528.9201,1015.1389,523.2633,1015.1619,532.47,1018.66" style="stroke:#181818;stroke-width:1;"/><text fill="#000000" font-family="sans-serif" font-size="13" lengthAdjust="spacing" textLength="73.9058" x="502.54" y="985.5684">Power is off</text></g><!--link DR_VerifyFirmareVersions to DR_WaitingForNetworkConfig--><g class="link" data-entity-1="ent0017" data-entity-2="ent0018" data-link-type="dependency" data-source-line="63" id="lnk19"><path d="M557,1069.46 C557,1087.41 557,1105.69 557,1123.62" fill="none" id="DR_VerifyFirmareVersions-to-DR_WaitingForNetworkConfig" style="stroke:#181818;stroke-width:1;"/><polygon fill="#181818" points="557,1129.62,561,1120.62,557,1124.62,553,1120.62,557,1129.62" style="stroke:#181818;stroke-width:1;"/></g><!--link DR_WaitingForNetworkConfig to DR_WaitingForNetworkConfig--><g class="link" data-entity-1="ent0018" data-entity-2="ent0018" data-link-type="dependency" data-source-line="64" id="lnk20"><path d="M654.23,1144.96 C674.42,1146.02 688.93,1149.36 688.93,1155 C688.93,1160.64 680.4117,1163.6654 660.2217,1164.7254" fill="none" id="DR_WaitingForNetworkConfig-to-DR_WaitingForNetworkConfig" style="stroke:#181818;stroke-width:1;"/><polygon fill="#181818" points="654.23,1165.04,663.4273,1168.5626,659.2231,1164.7779,663.0079,1160.5736,654.23,1165.04" style="stroke:#181818;stroke-width:1;"/><text fill="#000000" font-family="sans-serif" font-size="13" lengthAdjust="spacing" textLength="113.7627" x="711.1673" y="1152.5684">Any DPU is not up</text><text fill="#000000" font-family="sans-serif" font-size="13" lengthAdjust="spacing" textLength="146.2373" x="694.93" y="1167.8789">OR network not synced</text></g><!--link DR_WaitingForNetworkConfig to DR_RebootHostBmc--><g class="link" data-entity-1="ent0018" data-entity-2="ent0019" data-link-type="dependency" data-source-line="65" id="lnk21"><path d="M557,1180.46 C557,1198.41 557,1216.69 557,1234.62" fill="none" id="DR_WaitingForNetworkConfig-to-DR_RebootHostBmc" style="stroke:#181818;stroke-width:1;"/><polygon fill="#181818" points="557,1240.62,561,1231.62,557,1235.62,553,1231.62,557,1240.62" style="stroke:#181818;stroke-width:1;"/></g><!--link DR_RebootHostBmc to DR_RebootHost--><g class="link" data-entity-1="ent0019" data-entity-2="ent0020" data-link-type="dependency" data-source-line="66" id="lnk22"><path d="M557,1291.46 C557,1309.41 557,1327.69 557,1345.62" fill="none" id="DR_RebootHostBmc-to-DR_RebootHost" style="stroke:#181818;stroke-width:1;"/><polygon fill="#181818" points="557,1351.62,561,1342.62,557,1346.62,553,1342.62,557,1351.62" style="stroke:#181818;stroke-width:1;"/></g><!--link DR_RebootHost to HostInit_HI_Discovered--><g class="link" data-entity-1="ent0020" data-entity-2="ent0023" data-link-type="dependency" data-source-line="67" id="lnk23"><path d="M557,1402.39 C557,1428.08 557,1462.3 557,1487.89" fill="none" id="DR_RebootHost-to-HostInit_HI_Discovered" style="stroke:#181818;stroke-width:1;"/><polygon fill="#181818" points="557,1493.89,561,1484.89,557,1488.89,553,1484.89,557,1493.89" style="stroke:#181818;stroke-width:1;"/><text fill="#000000" font-family="sans-serif" font-size="13" lengthAdjust="spacing" textLength="136.8745" x="558" y="1453.0684">if entered from Ready</text></g><!--link DR_RebootHost to HostReprovision_HR_CheckingFirmware--><g class="link" data-entity-1="ent0020" data-entity-2="ent0024" data-link-type="dependency" data-source-line="68" id="lnk24"><path d="M607.03,1391.51 C636.21,1400.59 673.05,1414.16 703,1432 C731.59,1449.03 755.4388,1470.596 774.1588,1489.506" fill="none" id="DR_RebootHost-to-HostReprovision_HR_CheckingFirmware" style="stroke:#181818;stroke-width:1;"/><polygon fill="#181818" points="778.38,1493.77,774.8909,1484.5599,774.8624,1490.2167,769.2056,1490.1881,778.38,1493.77" style="stroke:#181818;stroke-width:1;"/><text fill="#000000" font-family="sans-serif" font-size="13" lengthAdjust="spacing" textLength="156.8379" x="769.7684" y="1445.5684">if entered from Assigned</text><text fill="#000000" font-family="sans-serif" font-size="13" lengthAdjust="spacing" textLength="202.1348" x="747.12" y="1460.8789">AND host reprovision requested</text></g><!--link DR_RebootHost to Assigned_A_Ready--><g class="link" data-entity-1="ent0020" data-entity-2="ent0022" data-link-type="dependency" data-source-line="69" id="lnk25"><path d="M507.08,1383.76 C446.04,1391.74 347.46,1407.95 320,1432 C302.14,1447.64 295.2886,1468.3041 291.7986,1487.7741" fill="none" id="DR_RebootHost-to-Assigned_A_Ready" style="stroke:#181818;stroke-width:1;"/><polygon fill="#181818" points="290.74,1493.68,296.2652,1485.5269,291.6222,1488.7584,288.3907,1484.1154,290.74,1493.68" style="stroke:#181818;stroke-width:1;"/><text fill="#000000" font-family="sans-serif" font-size="13" lengthAdjust="spacing" textLength="156.8379" x="356.1628" y="1445.5684">if entered from Assigned</text><text fill="#000000" font-family="sans-serif" font-size="13" lengthAdjust="spacing" textLength="227.1636" x="321" y="1460.8789">AND host reprovision not requested</text></g></g></svg>