<?plantuml 1.2026.1?><svg xmlns="http://www.w3.org/2000/svg" xmlns:xlink="http://www.w3.org/1999/xlink" contentStyleType="text/css" data-diagram-type="STATE" height="948px" preserveAspectRatio="none" style="width:1685px;height:948px;background:#FFFFFF;" version="1.1" viewBox="0 0 1685 948" width="1685px" zoomAndPan="magnify"><defs/><g><!--cluster HR_InitialReset--><g class="cluster" data-qualified-name="HR_InitialReset" data-source-line="18" id="ent0006"><path d="M19.5,247 L211.5,247 A12.5,12.5 0 0 1 224,259.5 L224,268.4883 L7,268.4883 L7,259.5 A12.5,12.5 0 0 1 19.5,247" fill="#FFFFFF"/><rect fill="none" height="370" rx="12.5" ry="12.5" style="stroke:#000000;stroke-width:0.5;" width="217" x="7" y="247"/><line style="stroke:#000000;stroke-width:0.5;" x1="7" x2="224" y1="268.4883" y2="268.4883"/><text fill="#000000" font-family="sans-serif" font-size="14" lengthAdjust="spacing" textLength="74.6553" x="78.1724" y="264.5352">InitialReset</text></g><g><rect fill="#FFFFFF" height="50" rx="12.5" ry="12.5" style="stroke:#000000;stroke-width:0.5;" width="51.4727" x="38.26" y="282"/><line style="stroke:#000000;stroke-width:0.5;" x1="38.26" x2="89.7327" y1="308.4883" y2="308.4883"/><text fill="#000000" font-family="sans-serif" font-size="14" lengthAdjust="spacing" textLength="31.4727" x="48.26" y="300.5352">Start</text></g><g><rect fill="#FFFFFF" height="50" rx="12.5" ry="12.5" style="stroke:#000000;stroke-width:0.5;" width="113.4678" x="23.27" y="424"/><line style="stroke:#000000;stroke-width:0.5;" x1="23.27" x2="136.7378" y1="450.4883" y2="450.4883"/><text fill="#000000" font-family="sans-serif" font-size="14" lengthAdjust="spacing" textLength="93.4678" x="33.27" y="442.5352">BMCWasReset</text></g><g><rect fill="#FFFFFF" height="50" rx="12.5" ry="12.5" style="stroke:#000000;stroke-width:0.5;" width="79.4795" x="23.26" y="551"/><line style="stroke:#000000;stroke-width:0.5;" x1="23.26" x2="102.7395" y1="577.4883" y2="577.4883"/><text fill="#000000" font-family="sans-serif" font-size="14" lengthAdjust="spacing" textLength="59.4795" x="33.26" y="569.5352">WaitBoot</text></g><g><rect fill="#FFFFFF" height="50" rx="12.5" ry="12.5" style="stroke:#000000;stroke-width:0.5;" width="60.5098" x="364.75" y="7"/><line style="stroke:#000000;stroke-width:0.5;" x1="364.75" x2="425.2598" y1="33.4883" y2="33.4883"/><text fill="#000000" font-family="sans-serif" font-size="14" lengthAdjust="spacing" textLength="40.5098" x="374.75" y="25.5352">Ready</text></g><g><rect fill="#FFFFFF" height="50" rx="12.5" ry="12.5" style="stroke:#000000;stroke-width:0.5;" width="278.1455" x="567.93" y="7"/><line style="stroke:#000000;stroke-width:0.5;" x1="567.93" x2="846.0755" y1="33.4883" y2="33.4883"/><text fill="#000000" font-family="sans-serif" font-size="14" lengthAdjust="spacing" textLength="258.1455" x="577.93" y="25.5352">Assigned/BootingWithDiscoveryImage</text></g><g><rect fill="#FFFFFF" height="50" rx="12.5" ry="12.5" style="stroke:#000000;stroke-width:0.5;" width="145.3916" x="634.3" y="134"/><line style="stroke:#000000;stroke-width:0.5;" x1="634.3" x2="779.6916" y1="160.4883" y2="160.4883"/><text fill="#000000" font-family="sans-serif" font-size="14" lengthAdjust="spacing" textLength="125.3916" x="644.3" y="152.5352">CheckingFirmware</text></g><g><rect fill="#FFFFFF" height="50" rx="12.5" ry="12.5" style="stroke:#000000;stroke-width:0.5;" width="191.623" x="547.19" y="664"/><line style="stroke:#000000;stroke-width:0.5;" x1="547.19" x2="738.813" y1="690.4883" y2="690.4883"/><text fill="#000000" font-family="sans-serif" font-size="14" lengthAdjust="spacing" textLength="171.623" x="557.19" y="682.5352">CheckingFirmwareRepeat</text></g><g><rect fill="#FFFFFF" height="50" rx="12.5" ry="12.5" style="stroke:#000000;stroke-width:0.5;" width="130.8242" x="709.59" y="424"/><line style="stroke:#000000;stroke-width:0.5;" x1="709.59" x2="840.4142" y1="450.4883" y2="450.4883"/><text fill="#000000" font-family="sans-serif" font-size="14" lengthAdjust="spacing" textLength="110.8242" x="719.59" y="442.5352">WaitingForScript</text></g><g><rect fill="#FFFFFF" height="50" rx="12.5" ry="12.5" style="stroke:#000000;stroke-width:0.5;" width="139.9912" x="1070" y="282"/><line style="stroke:#000000;stroke-width:0.5;" x1="1070" x2="1209.9912" y1="308.4883" y2="308.4883"/><text fill="#000000" font-family="sans-serif" font-size="14" lengthAdjust="spacing" textLength="119.9912" x="1080" y="300.5352">WaitingForUpload</text></g><g><rect fill="#FFFFFF" height="50" rx="12.5" ry="12.5" style="stroke:#000000;stroke-width:0.5;" width="212.001" x="1201" y="424"/><line style="stroke:#000000;stroke-width:0.5;" x1="1201" x2="1413.001" y1="450.4883" y2="450.4883"/><text fill="#000000" font-family="sans-serif" font-size="14" lengthAdjust="spacing" textLength="192.001" x="1211" y="442.5352">WaitingForFirmwareUpgrade</text></g><g><rect fill="#FFFFFF" height="50" rx="12.5" ry="12.5" style="stroke:#000000;stroke-width:0.5;" width="169.9873" x="1340.01" y="551"/><line style="stroke:#000000;stroke-width:0.5;" x1="1340.01" x2="1509.9973" y1="577.4883" y2="577.4883"/><text fill="#000000" font-family="sans-serif" font-size="14" lengthAdjust="spacing" textLength="149.9873" x="1350.01" y="569.5352">ResetForNewFirmware</text></g><g><rect fill="#FFFFFF" height="50" rx="12.5" ry="12.5" style="stroke:#000000;stroke-width:0.5;" width="201.959" x="1206.02" y="664"/><line style="stroke:#000000;stroke-width:0.5;" x1="1206.02" x2="1407.979" y1="690.4883" y2="690.4883"/><text fill="#000000" font-family="sans-serif" font-size="14" lengthAdjust="spacing" textLength="181.959" x="1216.02" y="682.5352">NewFirmwareReportedWait</text></g><g><rect fill="#FFFFFF" height="50" rx="12.5" ry="12.5" style="stroke:#000000;stroke-width:0.5;" width="179.6533" x="735.17" y="551"/><line style="stroke:#000000;stroke-width:0.5;" x1="735.17" x2="914.8233" y1="577.4883" y2="577.4883"/><text fill="#000000" font-family="sans-serif" font-size="14" lengthAdjust="spacing" textLength="159.6533" x="745.17" y="569.5352">FailedFirmwareUpgrade</text></g><g class="entity" data-qualified-name="hr_completed" id="ent0016"><polygon fill="#F1F1F1" points="1077,791,1089,803,1077,815,1065,803,1077,791" style="stroke:#181818;stroke-width:0.5;"/></g><g><rect fill="#FFFFFF" height="50" rx="12.5" ry="12.5" style="stroke:#000000;stroke-width:0.5;" width="129.8604" x="1012.07" y="892"/><line style="stroke:#000000;stroke-width:0.5;" x1="1012.07" x2="1141.9304" y1="918.4883" y2="918.4883"/><text fill="#000000" font-family="sans-serif" font-size="14" lengthAdjust="spacing" textLength="109.8604" x="1022.07" y="910.5352">Assigned/Ready</text></g><!--link Ready to HR_CheckingFirmware--><g class="link" data-entity-1="ent0002" data-entity-2="ent0004" data-link-type="dependency" data-source-line="37" id="lnk2"><path d="M425.71,49.33 C455.08,64.58 500.86,87.42 542,104 C571.63,115.94 599.2997,125.4394 628.2397,134.5994" fill="none" id="Ready-to-HR_CheckingFirmware" style="stroke:#181818;stroke-width:1;"/><polygon fill="#181818" points="633.96,136.41,626.5866,129.8806,629.1931,134.9012,624.1725,137.5077,633.96,136.41" style="stroke:#181818;stroke-width:1;"/><text fill="#000000" font-family="sans-serif" font-size="13" lengthAdjust="spacing" textLength="155.7715" x="543" y="100.5684">Host reprovision request</text></g><!--link Assigned_A_BootingWithDiscoveryImage to HR_CheckingFirmware--><g class="link" data-entity-1="ent0003" data-entity-2="ent0004" data-link-type="dependency" data-source-line="38" id="lnk3"><path d="M707,57.4 C707,79.42 707,105.66 707,127.66" fill="none" id="Assigned_A_BootingWithDiscoveryImage-to-HR_CheckingFirmware" style="stroke:#181818;stroke-width:1;"/><polygon fill="#181818" points="707,133.66,711,124.66,707,128.66,703,124.66,707,133.66" style="stroke:#181818;stroke-width:1;"/><text fill="#000000" font-family="sans-serif" font-size="13" lengthAdjust="spacing" textLength="155.7715" x="708" y="100.5684">Host reprovision request</text></g><!--link HR_CheckingFirmware to HR_IR_Start--><g class="link" data-entity-1="ent0004" data-entity-2="ent0007" data-link-type="dependency" data-source-line="40" id="lnk4"><path d="M633.86,162.15 C545.27,166.3 392.22,178.44 266,214 C199.79,232.65 132.9421,267.101 95.3721,288.021" fill="none" id="HR_CheckingFirmware-to-HR_IR_Start" style="stroke:#181818;stroke-width:1;"/><polygon fill="#181818" points="90.13,290.94,99.9391,290.0563,94.4984,288.5075,96.0472,283.0668,90.13,290.94" style="stroke:#181818;stroke-width:1;"/><text fill="#000000" font-family="sans-serif" font-size="13" lengthAdjust="spacing" textLength="210.9199" x="267" y="227.5684">Firmware needs pre-update reset</text></g><!--link HR_IR_Start to HR_IR_BMCWasReset--><g class="link" data-entity-1="ent0007" data-entity-2="ent0008" data-link-type="dependency" data-source-line="41" id="lnk5"><path d="M66.79,332.39 C69.72,358.08 73.6398,392.3387 76.5598,417.9287" fill="none" id="HR_IR_Start-to-HR_IR_BMCWasReset" style="stroke:#181818;stroke-width:1;"/><polygon fill="#181818" points="77.24,423.89,80.1939,414.4945,76.6731,418.9222,72.2454,415.4015,77.24,423.89" style="stroke:#181818;stroke-width:1;"/><text fill="#000000" font-family="sans-serif" font-size="13" lengthAdjust="spacing" textLength="61.5215" x="74.43" y="383.0684">Power Off</text></g><!--link HR_IR_BMCWasReset to HR_IR_WaitBoot--><g class="link" data-entity-1="ent0008" data-entity-2="ent0009" data-link-type="dependency" data-source-line="42" id="lnk6"><path d="M76.68,474.4 C73.69,496.42 70.108,522.7147 67.118,544.7147" fill="none" id="HR_IR_BMCWasReset-to-HR_IR_WaitBoot" style="stroke:#181818;stroke-width:1;"/><polygon fill="#181818" points="66.31,550.66,71.4856,542.2807,66.9834,545.7055,63.5585,541.2033,66.31,550.66" style="stroke:#181818;stroke-width:1;"/><text fill="#000000" font-family="sans-serif" font-size="13" lengthAdjust="spacing" textLength="60.0298" x="73.52" y="517.5684">Power On</text></g><!--link HR_IR_WaitBoot to HR_IR_WaitBoot--><g class="link" data-entity-1="ent0009" data-entity-2="ent0009" data-link-type="dependency" data-source-line="43" id="lnk7"><path d="M102.98,565.43 C121.53,564.28 137.74,567.8 137.74,576 C137.74,584.2 127.5185,588.0913 108.9685,586.9413" fill="none" id="HR_IR_WaitBoot-to-HR_IR_WaitBoot" style="stroke:#181818;stroke-width:1;"/><polygon fill="#181818" points="102.98,586.57,111.7153,591.1192,107.9704,586.8794,112.2103,583.1345,102.98,586.57" style="stroke:#181818;stroke-width:1;"/><text fill="#000000" font-family="sans-serif" font-size="13" lengthAdjust="spacing" textLength="75.5498" x="143.74" y="581.0684">Wait 20 min</text></g><!--link HR_IR_WaitBoot to HR_CheckingFirmwareRepeat--><g class="link" data-entity-1="ent0009" data-entity-2="ent0005" data-link-type="dependency" data-source-line="44" id="lnk8"><path d="M102.87,584.63 C193.59,601.99 411.7269,643.7424 540.9769,668.4724" fill="none" id="HR_IR_WaitBoot-to-HR_CheckingFirmwareRepeat" style="stroke:#181818;stroke-width:1;"/><polygon fill="#181818" points="546.87,669.6,538.7821,663.9799,541.9591,668.6604,537.2786,671.8374,546.87,669.6" style="stroke:#181818;stroke-width:1;"/></g><!--link HR_CheckingFirmware to HR_WaitingForScript--><g class="link" data-entity-1="ent0004" data-entity-2="ent0010" data-link-type="dependency" data-source-line="45" id="lnk9"><path d="M709.41,184.5 C713.04,218.12 720.92,280.28 734,332 C742.17,364.3 753.3887,394.7363 762.6387,417.9463" fill="none" id="HR_CheckingFirmware-to-HR_WaitingForScript" style="stroke:#181818;stroke-width:1;"/><polygon fill="#181818" points="764.86,423.52,765.2438,413.6786,763.0089,418.8753,757.8123,416.6404,764.86,423.52" style="stroke:#181818;stroke-width:1;"/><text fill="#000000" font-family="sans-serif" font-size="13" lengthAdjust="spacing" textLength="131.479" x="735" y="312.0684">Upgrade using script</text></g><!--link HR_WaitingForScript to HR_CheckingFirmwareRepeat--><g class="link" data-entity-1="ent0010" data-entity-2="ent0005" data-link-type="dependency" data-source-line="46" id="lnk10"><path d="M709.1,472 C672.91,487.85 631.18,513.2 610,551 C589.85,586.96 607.5222,629.7426 624.0122,658.3326" fill="none" id="HR_WaitingForScript-to-HR_CheckingFirmwareRepeat" style="stroke:#181818;stroke-width:1;"/><polygon fill="#181818" points="627.01,663.53,625.9783,653.7353,624.5119,659.1988,619.0484,657.7323,627.01,663.53" style="stroke:#181818;stroke-width:1;"/><text fill="#000000" font-family="sans-serif" font-size="13" lengthAdjust="spacing" textLength="106.1455" x="611" y="581.0684">Script completed</text></g><!--link HR_WaitingForScript to HR_FailedFirmwareUpgrade--><g class="link" data-entity-1="ent0010" data-entity-2="ent0015" data-link-type="dependency" data-source-line="47" id="lnk11"><path d="M772.12,474.5 C771.4,488.58 772.15,506.33 778,521 C782.32,531.85 785.7729,537.5813 793.5129,546.0913" fill="none" id="HR_WaitingForScript-to-HR_FailedFirmwareUpgrade" style="stroke:#181818;stroke-width:1;"/><polygon fill="#181818" points="797.55,550.53,794.4535,541.1806,794.1858,546.8311,788.5353,546.5633,797.55,550.53" style="stroke:#181818;stroke-width:1;"/><text fill="#000000" font-family="sans-serif" font-size="13" lengthAdjust="spacing" textLength="74.7944" x="779" y="517.5684">Script failed</text></g><!--link HR_CheckingFirmware to HR_CheckingFirmwareRepeat--><g class="link" data-entity-1="ent0004" data-entity-2="ent0005" data-link-type="dependency" data-source-line="48" id="lnk12"><path d="M634,179.94 C575.8,200.79 504,239.91 504,306 C504,306 504,306 504,577 C504,617.61 535.3113,643.1109 570.9813,660.9109" fill="none" id="HR_CheckingFirmware-to-HR_CheckingFirmwareRepeat" style="stroke:#181818;stroke-width:1;"/><polygon fill="#181818" points="576.35,663.59,570.083,655.9923,571.8761,661.3574,566.511,663.1505,576.35,663.59" style="stroke:#181818;stroke-width:1;"/><text fill="#000000" font-family="sans-serif" font-size="13" lengthAdjust="spacing" textLength="169.5649" x="505" y="454.0684">No explored endpoint data</text></g><!--link HR_CheckingFirmware to hr_completed--><g class="link" data-entity-1="ent0004" data-entity-2="ent0016" data-link-type="dependency" data-source-line="49" id="lnk13"><path d="M779.98,164.78 C986.99,179.31 1563,226.85 1563,306 C1563,306 1563,306 1563,690 C1563,790.66 1168.1294,800.776 1094.5294,801.806" fill="none" id="HR_CheckingFirmware-to-hr_completed" style="stroke:#181818;stroke-width:1;"/><polygon fill="#181818" points="1088.53,801.89,1097.5851,805.7637,1093.5295,801.82,1097.4731,797.7645,1088.53,801.89" style="stroke:#181818;stroke-width:1;"/><text fill="#000000" font-family="sans-serif" font-size="13" lengthAdjust="spacing" textLength="113.02" x="1564" y="517.5684">FW info not found</text></g><!--link HR_CheckingFirmwareRepeat to hr_completed--><g class="link" data-entity-1="ent0005" data-entity-2="ent0016" data-link-type="dependency" data-source-line="50" id="lnk14"><path d="M737.71,714.44 C849.69,743.34 1020.3903,787.3909 1062.1303,798.1609" fill="none" id="HR_CheckingFirmwareRepeat-to-hr_completed" style="stroke:#181818;stroke-width:1;"/><polygon fill="#181818" points="1067.94,799.66,1060.2248,793.5383,1063.0986,798.4108,1058.2261,801.2846,1067.94,799.66" style="stroke:#181818;stroke-width:1;"/><text fill="#000000" font-family="sans-serif" font-size="13" lengthAdjust="spacing" textLength="113.02" x="912.64" y="757.5684">FW info not found</text></g><!--link HR_CheckingFirmware to HR_WaitingForUpload--><g class="link" data-entity-1="ent0004" data-entity-2="ent0011" data-link-type="dependency" data-source-line="51" id="lnk15"><path d="M779.87,175.8 C821.12,185.43 873.42,198.8 919,214 C977.94,233.66 1037.9403,259.2639 1082.2103,279.2239" fill="none" id="HR_CheckingFirmware-to-HR_WaitingForUpload" style="stroke:#181818;stroke-width:1;"/><polygon fill="#181818" points="1087.68,281.69,1081.1195,274.3443,1083.1219,279.6349,1077.8313,281.6373,1087.68,281.69" style="stroke:#181818;stroke-width:1;"/></g><!--link HR_WaitingForUpload to HR_CheckingFirmwareRepeat--><g class="link" data-entity-1="ent0011" data-entity-2="ent0005" data-link-type="dependency" data-source-line="52" id="lnk16"><path d="M1135.38,332.42 C1121.44,405.85 1080.41,619.89 1075,625 C1027.95,669.42 857.4765,682.4039 745.1565,686.2639" fill="none" id="HR_WaitingForUpload-to-HR_CheckingFirmwareRepeat" style="stroke:#181818;stroke-width:1;"/><polygon fill="#181818" points="739.16,686.47,748.2921,690.1585,744.1571,686.2983,748.0173,682.1632,739.16,686.47" style="stroke:#181818;stroke-width:1;"/><text fill="#000000" font-family="sans-serif" font-size="13" lengthAdjust="spacing" textLength="190.1631" x="1102.41" y="517.5684">No upload status upload error</text></g><!--link HR_WaitingForUpload to HR_WaitingForFirmwareUpgrade--><g class="link" data-entity-1="ent0011" data-entity-2="ent0012" data-link-type="dependency" data-source-line="53" id="lnk17"><path d="M1141.63,332.37 C1144.13,351.35 1150.38,377.21 1166,394 C1177.61,406.47 1186.9884,413.5297 1202.6184,420.9397" fill="none" id="HR_WaitingForUpload-to-HR_WaitingForFirmwareUpgrade" style="stroke:#181818;stroke-width:1;"/><polygon fill="#181818" points="1208.04,423.51,1201.6212,416.0402,1203.522,421.3681,1198.1941,423.2689,1208.04,423.51" style="stroke:#181818;stroke-width:1;"/><text fill="#000000" font-family="sans-serif" font-size="13" lengthAdjust="spacing" textLength="96.916" x="1167" y="383.0684">Upload success</text></g><!--link HR_WaitingForFirmwareUpgrade to HR_WaitingForUpload--><g class="link" data-entity-1="ent0012" data-entity-2="ent0011" data-link-type="dependency" data-source-line="54" id="lnk18"><path d="M1301.2,423.65 C1295.56,404.67 1285.27,378.81 1268,362 C1252.02,346.44 1236.4433,337.2922 1215.9533,329.1222" fill="none" id="HR_WaitingForFirmwareUpgrade-to-HR_WaitingForUpload" style="stroke:#181818;stroke-width:1;"/><polygon fill="#181818" points="1210.38,326.9,1217.2584,333.9489,1215.0244,328.7519,1220.2214,326.5178,1210.38,326.9" style="stroke:#181818;stroke-width:1;"/><text fill="#000000" font-family="sans-serif" font-size="13" lengthAdjust="spacing" textLength="44.6558" x="1313.8997" y="375.5684">Update</text><text fill="#000000" font-family="sans-serif" font-size="13" lengthAdjust="spacing" textLength="91.0952" x="1290.68" y="390.8789">AND has more</text></g><!--link HR_WaitingForFirmwareUpgrade to HR_ResetForNewFirmware--><g class="link" data-entity-1="ent0012" data-entity-2="ent0013" data-link-type="dependency" data-source-line="55" id="lnk19"><path d="M1330.03,474.4 C1350.82,496.42 1377.13,524.2981 1397.91,546.2981" fill="none" id="HR_WaitingForFirmwareUpgrade-to-HR_ResetForNewFirmware" style="stroke:#181818;stroke-width:1;"/><polygon fill="#181818" points="1402.03,550.66,1398.7579,541.3706,1398.5967,547.0251,1392.9421,546.8639,1402.03,550.66" style="stroke:#181818;stroke-width:1;"/><text fill="#000000" font-family="sans-serif" font-size="13" lengthAdjust="spacing" textLength="79.3774" x="1374.06" y="517.5684">Updated last</text></g><!--link HR_WaitingForFirmwareUpgrade to HR_CheckingFirmwareRepeat--><g class="link" data-entity-1="ent0012" data-entity-2="ent0005" data-link-type="dependency" data-source-line="56" id="lnk20"><path d="M1312.38,474.31 C1314.23,489.19 1313.81,507.84 1304,521 C1279.56,553.79 1251.48,529 1217,551 C1173.81,578.56 1182.99,611.42 1137,634 C1069.14,667.31 868.6753,680.0826 745.1853,684.9726" fill="none" id="HR_WaitingForFirmwareUpgrade-to-HR_CheckingFirmwareRepeat" style="stroke:#181818;stroke-width:1;"/><polygon fill="#181818" points="739.19,685.21,748.3412,688.8508,744.1861,685.0122,748.0247,680.857,739.19,685.21" style="stroke:#181818;stroke-width:1;"/><text fill="#000000" font-family="sans-serif" font-size="13" lengthAdjust="spacing" textLength="104.8442" x="1218" y="573.5684">Task interrupted</text><text fill="#000000" font-family="sans-serif" font-size="13" lengthAdjust="spacing" textLength="77.9429" x="1231.4507" y="588.8789">OR get error</text></g><!--link HR_WaitingForFirmwareUpgrade to HR_FailedFirmwareUpgrade--><g class="link" data-entity-1="ent0012" data-entity-2="ent0015" data-link-type="dependency" data-source-line="57" id="lnk21"><path d="M1200.59,453.4 C1124.52,458.69 1020.86,471.81 935,504 C905.63,515.01 880.7537,531.1716 859.6437,547.0616" fill="none" id="HR_WaitingForFirmwareUpgrade-to-HR_FailedFirmwareUpgrade" style="stroke:#181818;stroke-width:1;"/><polygon fill="#181818" points="854.85,550.67,864.4462,548.4533,858.8448,547.663,859.635,542.0617,854.85,550.67" style="stroke:#181818;stroke-width:1;"/><text fill="#000000" font-family="sans-serif" font-size="13" lengthAdjust="spacing" textLength="131.5298" x="936" y="517.5684">Unknown task status</text></g><!--link HR_ResetForNewFirmware to HR_NewFirmwareReportedWait--><g class="link" data-entity-1="ent0013" data-entity-2="ent0014" data-link-type="dependency" data-source-line="58" id="lnk22"><path d="M1399.1,601.36 C1379.43,619.87 1356.8585,641.0871 1337.2085,659.5871" fill="none" id="HR_ResetForNewFirmware-to-HR_NewFirmwareReportedWait" style="stroke:#181818;stroke-width:1;"/><polygon fill="#181818" points="1332.84,663.7,1342.1347,660.443,1336.4805,660.2726,1336.6509,654.6183,1332.84,663.7" style="stroke:#181818;stroke-width:1;"/></g><!--link HR_NewFirmwareReportedWait to hr_completed--><g class="link" data-entity-1="ent0014" data-entity-2="ent0016" data-link-type="dependency" data-source-line="59" id="lnk23"><path d="M1256.81,714.44 C1199.71,742.25 1116.3541,782.8326 1090.0141,795.6626" fill="none" id="HR_NewFirmwareReportedWait-to-hr_completed" style="stroke:#181818;stroke-width:1;"/><polygon fill="#181818" points="1084.62,798.29,1094.4628,797.9449,1089.1151,796.1005,1090.9596,790.7528,1084.62,798.29" style="stroke:#181818;stroke-width:1;"/></g><!--link HR_FailedFirmwareUpgrade to HR_FailedFirmwareUpgrade--><g class="link" data-entity-1="ent0015" data-entity-2="ent0015" data-link-type="dependency" data-source-line="60" id="lnk24"><path d="M915.05,565.5 C935.15,566.46 949.83,569.96 949.83,576 C949.83,582.04 941.1432,585.2538 921.0432,586.2138" fill="none" id="HR_FailedFirmwareUpgrade-to-HR_FailedFirmwareUpgrade" style="stroke:#181818;stroke-width:1;"/><polygon fill="#181818" points="915.05,586.5,924.2306,590.0661,920.0443,586.2615,923.8489,582.0752,915.05,586.5" style="stroke:#181818;stroke-width:1;"/><text fill="#000000" font-family="sans-serif" font-size="13" lengthAdjust="spacing" textLength="113.5977" x="955.83" y="581.0684">Wait retry timeout</text></g><!--link HR_FailedFirmwareUpgrade to HR_CheckingFirmware--><g class="link" data-entity-1="ent0015" data-entity-2="ent0004" data-link-type="dependency" data-source-line="61" id="lnk25"><path d="M843.28,550.67 C849.01,541.79 854.7,531.36 858,521 C878.89,455.48 891.16,271.08 871,239 C850.91,207.02 819.519,189.6161 785.699,178.0861" fill="none" id="HR_FailedFirmwareUpgrade-to-HR_CheckingFirmware" style="stroke:#181818;stroke-width:1;"/><polygon fill="#181818" points="780.02,176.15,787.2478,182.8402,784.7525,177.7634,789.8293,175.2681,780.02,176.15" style="stroke:#181818;stroke-width:1;"/><text fill="#000000" font-family="sans-serif" font-size="13" lengthAdjust="spacing" textLength="118.9614" x="881.17" y="383.0684">Retry after timeout</text></g><!--link hr_completed to Assigned_A_Ready--><g class="link" data-entity-1="ent0016" data-entity-2="ent0017" data-link-type="dependency" data-source-line="63" id="lnk26"><path d="M1077,815.56 C1077,833.45 1077,862.21 1077,885.77" fill="none" id="hr_completed-to-Assigned_A_Ready" style="stroke:#181818;stroke-width:1;"/><polygon fill="#181818" points="1077,891.77,1081,882.77,1077,886.77,1073,882.77,1077,891.77" style="stroke:#181818;stroke-width:1;"/><text fill="#000000" font-family="sans-serif" font-size="13" lengthAdjust="spacing" textLength="105.1172" x="1078" y="858.5684">if Assigned state</text></g><!--link hr_completed to Ready--><g class="link" data-entity-1="ent0016" data-entity-2="ent0002" data-link-type="dependency" data-source-line="64" id="lnk27"><path d="M1065.83,801.64 C969.81,798.39 287,772.42 287,690 C287,158 287,158 287,158 C287,110.39 327.4071,75.2823 359.3371,54.1423" fill="none" id="hr_completed-to-Ready" style="stroke:#181818;stroke-width:1;"/><polygon fill="#181818" points="364.34,50.83,354.6275,52.4632,360.1709,53.5902,359.0439,59.1337,364.34,50.83" style="stroke:#181818;stroke-width:1;"/><text fill="#000000" font-family="sans-serif" font-size="13" lengthAdjust="spacing" textLength="145.666" x="288" y="454.0684">if source is Ready state</text></g></g></svg>