<?plantuml 1.2026.1?><svg xmlns="http://www.w3.org/2000/svg" xmlns:xlink="http://www.w3.org/1999/xlink" contentStyleType="text/css" data-diagram-type="STATE" height="166px" preserveAspectRatio="none" style="width:1175px;height:166px;background:#FFFFFF;" version="1.1" viewBox="0 0 1175 166" width="1175px" zoomAndPan="magnify"><defs/><g><g><rect fill="#FFFFFF" height="50" rx="12.5" ry="12.5" style="stroke:#000000;stroke-width:0.5;" width="275.2197" x="7" y="25"/><line style="stroke:#000000;stroke-width:0.5;" x1="7" x2="282.2197" y1="51.4883" y2="51.4883"/><text fill="#000000" font-family="sans-serif" font-size="14" lengthAdjust="spacing" textLength="255.2197" x="17" y="43.5352">BomValidating/bv_validation_enabled</text></g><g><rect fill="#FFFFFF" height="50" rx="12.5" ry="12.5" style="stroke:#000000;stroke-width:0.5;" width="60.5098" x="114.35" y="110"/><line style="stroke:#000000;stroke-width:0.5;" x1="114.35" x2="174.8598" y1="136.4883" y2="136.4883"/><text fill="#000000" font-family="sans-serif" font-size="14" lengthAdjust="spacing" textLength="40.5098" x="124.35" y="128.5352">Ready</text></g><g><rect fill="#FFFFFF" height="50" rx="12.5" ry="12.5" style="stroke:#000000;stroke-width:0.5;" width="99.1602" x="487.22" y="68"/><line style="stroke:#000000;stroke-width:0.5;" x1="487.22" x2="586.3802" y1="94.4883" y2="94.4883"/><text fill="#000000" font-family="sans-serif" font-size="14" lengthAdjust="spacing" textLength="79.1602" x="497.22" y="86.5352">RebootHost</text></g><g><rect fill="#FFFFFF" height="50" rx="12.5" ry="12.5" style="stroke:#000000;stroke-width:0.5;" width="144.4072" x="647.38" y="68"/><line style="stroke:#000000;stroke-width:0.5;" x1="647.38" x2="791.7872" y1="94.4883" y2="94.4883"/><text fill="#000000" font-family="sans-serif" font-size="14" lengthAdjust="spacing" textLength="124.4072" x="657.38" y="86.5352">MachineValidating</text></g><g><rect fill="#FFFFFF" height="50" rx="12.5" ry="12.5" style="stroke:#000000;stroke-width:0.5;" width="155.4336" x="1012.79" y="25"/><line style="stroke:#000000;stroke-width:0.5;" x1="1012.79" x2="1168.2236" y1="51.4883" y2="51.4883"/><text fill="#000000" font-family="sans-serif" font-size="14" lengthAdjust="spacing" textLength="135.4336" x="1022.79" y="43.5352">HostInit/Discovered</text></g><g><rect fill="#FFFFFF" height="50" rx="12.5" ry="12.5" style="stroke:#000000;stroke-width:0.5;" width="59.9424" x="1060.53" y="110"/><line style="stroke:#000000;stroke-width:0.5;" x1="1060.53" x2="1120.4724" y1="136.4883" y2="136.4883"/><text fill="#000000" font-family="sans-serif" font-size="14" lengthAdjust="spacing" textLength="39.9424" x="1070.53" y="128.5352">Failed</text></g><!--link Ready to V_RebootHost--><g class="link" data-entity-1="ent0003" data-entity-2="ent0004" data-link-type="dependency" data-source-line="27" id="lnk2"><path d="M174.97,133.95 C230.4,131.67 354.13,125.22 457.22,110 C466.89,108.57 471.2659,107.8828 481.0659,105.8428" fill="none" id="Ready-to-V_RebootHost" style="stroke:#181818;stroke-width:1;"/><polygon fill="#181818" points="486.94,104.62,477.3137,102.5381,482.0449,105.639,478.9441,110.3702,486.94,104.62" style="stroke:#181818;stroke-width:1;"/><text fill="#000000" font-family="sans-serif" font-size="13" lengthAdjust="spacing" textLength="143.0381" x="313.22" y="106.5684">validation is requested</text></g><!--link BomValidating_bv_validation_enabled to V_RebootHost--><g class="link" data-entity-1="ent0002" data-entity-2="ent0004" data-link-type="dependency" data-source-line="28" id="lnk3"><path d="M282.63,65.1 C353.55,72.92 429.7862,81.3119 480.8062,86.9419" fill="none" id="BomValidating_bv_validation_enabled-to-V_RebootHost" style="stroke:#181818;stroke-width:1;"/><polygon fill="#181818" points="486.77,87.6,478.263,82.637,481.8002,87.0516,477.3856,90.5887,486.77,87.6" style="stroke:#181818;stroke-width:1;"/><text fill="#000000" font-family="sans-serif" font-size="13" lengthAdjust="spacing" textLength="129.9238" x="320.22" y="65.4984">validation is enabled</text></g><!--link V_RebootHost to V_MachineValidating--><g class="link" data-entity-1="ent0004" data-entity-2="ent0005" data-link-type="dependency" data-source-line="29" id="lnk4"><path d="M586.72,93 C605.34,93 620.94,93 641.22,93" fill="none" id="V_RebootHost-to-V_MachineValidating" style="stroke:#181818;stroke-width:1;"/><polygon fill="#181818" points="647.22,93,638.22,89,642.22,93,638.22,97,647.22,93" style="stroke:#181818;stroke-width:1;"/></g><!--link V_MachineValidating to V_MachineValidating--><g class="link" data-entity-1="ent0005" data-entity-2="ent0005" data-link-type="dependency" data-source-line="30" id="lnk5"><path d="M702.21,67.72 C696.94,50.23 702.73,33 719.58,33 C736.43,33 743.961,44.4851 738.691,61.9751" fill="none" id="V_MachineValidating-to-V_MachineValidating" style="stroke:#181818;stroke-width:1;"/><polygon fill="#181818" points="736.96,67.72,743.3864,60.2567,738.4025,62.9326,735.7266,57.9487,736.96,67.72" style="stroke:#181818;stroke-width:1;"/><text fill="#000000" font-family="sans-serif" font-size="13" lengthAdjust="spacing" textLength="136.9189" x="651.58" y="24.5684">validation in progress</text></g><!--link V_MachineValidating to HostInit_HI_Discovered--><g class="link" data-entity-1="ent0005" data-entity-2="ent0006" data-link-type="dependency" data-source-line="31" id="lnk6"><path d="M792.15,84.66 C855.43,77.28 941.5603,67.2443 1006.4503,59.6843" fill="none" id="V_MachineValidating-to-HostInit_HI_Discovered" style="stroke:#181818;stroke-width:1;"/><polygon fill="#181818" points="1012.41,58.99,1003.0076,56.0584,1007.4436,59.5686,1003.9334,64.0046,1012.41,58.99" style="stroke:#181818;stroke-width:1;"/><text fill="#000000" font-family="sans-serif" font-size="13" lengthAdjust="spacing" textLength="118.6821" x="843.0898" y="44.2784">validation disabled</text><text fill="#000000" font-family="sans-serif" font-size="13" lengthAdjust="spacing" textLength="159.2817" x="822.79" y="59.5889">OR validated successfully</text></g><!--link V_MachineValidating to Failed--><g class="link" data-entity-1="ent0005" data-entity-2="ent0007" data-link-type="dependency" data-source-line="32" id="lnk7"><path d="M792.08,105.68 C802.04,107.25 812.16,108.74 821.79,110 C908.11,121.27 1004.7656,128.9572 1054.1256,132.5272" fill="none" id="V_MachineValidating-to-Failed" style="stroke:#181818;stroke-width:1;"/><polygon fill="#181818" points="1060.11,132.96,1051.422,128.3212,1055.123,132.5993,1050.8449,136.3003,1060.11,132.96" style="stroke:#181818;stroke-width:1;"/><text fill="#000000" font-family="sans-serif" font-size="13" lengthAdjust="spacing" textLength="100.4707" x="852.29" y="106.5684">validation failed</text></g></g></svg>