<?plantuml 1.2026.1?><svg xmlns="http://www.w3.org/2000/svg" xmlns:xlink="http://www.w3.org/1999/xlink" contentStyleType="text/css" data-diagram-type="STATE" height="1219px" preserveAspectRatio="none" style="width:1037px;height:1219px;background:#FFFFFF;" version="1.1" viewBox="0 0 1037 1219" width="1037px" zoomAndPan="magnify"><defs/><g><!--cluster DI_InstallDpuOs--><g class="cluster" data-qualified-name="DI_InstallDpuOs" data-source-line="16" id="ent0005"><path d="M305.33,120 L768.33,120 A12.5,12.5 0 0 1 780.83,132.5 L780.83,141.4883 L292.83,141.4883 L292.83,132.5 A12.5,12.5 0 0 1 305.33,120" fill="#FFFFFF"/><rect fill="none" height="450" rx="12.5" ry="12.5" style="stroke:#000000;stroke-width:0.5;" width="488" x="292.83" y="120"/><line style="stroke:#000000;stroke-width:0.5;" x1="292.83" x2="780.83" y1="141.4883" y2="141.4883"/><text fill="#000000" font-family="sans-serif" font-size="14" lengthAdjust="spacing" textLength="86.9189" x="493.3705" y="137.5352">InstallDpuOs</text></g><!--cluster DI_WaitingForPlatformPowercycle--><g class="cluster" data-qualified-name="DI_WaitingForPlatformPowercycle" data-source-line="24" id="ent0010"><path d="M133.33,619 L441.33,619 A12.5,12.5 0 0 1 453.83,631.5 L453.83,640.4883 L120.83,640.4883 L120.83,631.5 A12.5,12.5 0 0 1 133.33,619" fill="#FFFFFF"/><rect fill="none" height="228" rx="12.5" ry="12.5" style="stroke:#000000;stroke-width:0.5;" width="333" x="120.83" y="619"/><line style="stroke:#000000;stroke-width:0.5;" x1="120.83" x2="453.83" y1="640.4883" y2="640.4883"/><text fill="#000000" font-family="sans-serif" font-size="14" lengthAdjust="spacing" textLength="203.7451" x="185.4574" y="636.5352">WaitingForPlatformPowercycle</text></g><g><rect fill="#FFFFFF" height="50" rx="12.5" ry="12.5" style="stroke:#000000;stroke-width:0.5;" width="105.9961" x="343.84" y="155"/><line style="stroke:#000000;stroke-width:0.5;" x1="343.84" x2="449.8361" y1="181.4883" y2="181.4883"/><text fill="#000000" font-family="sans-serif" font-size="14" lengthAdjust="spacing" textLength="85.9961" x="353.84" y="173.5352">InstallingBFB</text></g><g><rect fill="#FFFFFF" height="50" rx="12.5" ry="12.5" style="stroke:#000000;stroke-width:0.5;" width="176.7959" x="308.44" y="266"/><line style="stroke:#000000;stroke-width:0.5;" x1="308.44" x2="485.2359" y1="292.4883" y2="292.4883"/><text fill="#000000" font-family="sans-serif" font-size="14" lengthAdjust="spacing" textLength="156.7959" x="318.44" y="284.5352">WaitForInstallComplete</text></g><g><rect fill="#FFFFFF" height="50" rx="12.5" ry="12.5" style="stroke:#000000;stroke-width:0.5;" width="93.8623" x="330.9" y="393"/><line style="stroke:#000000;stroke-width:0.5;" x1="330.9" x2="424.7623" y1="419.4883" y2="419.4883"/><text fill="#000000" font-family="sans-serif" font-size="14" lengthAdjust="spacing" textLength="73.8623" x="340.9" y="411.5352">Completed</text></g><g><rect fill="#FFFFFF" height="50" rx="12.5" ry="12.5" style="stroke:#000000;stroke-width:0.5;" width="128.5957" x="574.54" y="504"/><line style="stroke:#000000;stroke-width:0.5;" x1="574.54" x2="703.1357" y1="530.4883" y2="530.4883"/><text fill="#000000" font-family="sans-serif" font-size="14" lengthAdjust="spacing" textLength="108.5957" x="584.54" y="522.5352">InstallationError</text></g><g><rect fill="#FFFFFF" height="50" rx="12.5" ry="12.5" style="stroke:#000000;stroke-width:0.5;" width="50" x="136.83" y="654"/><line style="stroke:#000000;stroke-width:0.5;" x1="136.83" x2="186.83" y1="680.4883" y2="680.4883"/><text fill="#000000" font-family="sans-serif" font-size="14" lengthAdjust="spacing" textLength="21.1709" x="151.2446" y="672.5352">Off</text></g><g><rect fill="#FFFFFF" height="50" rx="12.5" ry="12.5" style="stroke:#000000;stroke-width:0.5;" width="50" x="146.83" y="781"/><line style="stroke:#000000;stroke-width:0.5;" x1="146.83" x2="196.83" y1="807.4883" y2="807.4883"/><text fill="#000000" font-family="sans-serif" font-size="14" lengthAdjust="spacing" textLength="19.5645" x="162.0478" y="799.5352">On</text></g><g><rect fill="#FFFFFF" height="50" rx="12.5" ry="12.5" style="stroke:#000000;stroke-width:0.5;" width="326.8652" x="233.4" y="7"/><line style="stroke:#000000;stroke-width:0.5;" x1="233.4" x2="560.2652" y1="33.4883" y2="33.4883"/><text fill="#000000" font-family="sans-serif" font-size="14" lengthAdjust="spacing" textLength="306.8652" x="243.4" y="25.5352">DpuDiscoveringState/CheckSecureBootStatus</text></g><g><rect fill="#FFFFFF" height="50" rx="12.5" ry="12.5" style="stroke:#000000;stroke-width:0.5;" width="269.6689" x="7" y="393"/><line style="stroke:#000000;stroke-width:0.5;" x1="7" x2="276.6689" y1="419.4883" y2="419.4883"/><text fill="#000000" font-family="sans-serif" font-size="14" lengthAdjust="spacing" textLength="249.6689" x="17" y="411.5352">DpuDiscoveringState/RebootAllDPUS</text></g><g><rect fill="#FFFFFF" height="50" rx="12.5" ry="12.5" style="stroke:#000000;stroke-width:0.5;" width="50" x="136.83" y="504"/><line style="stroke:#000000;stroke-width:0.5;" x1="136.83" x2="186.83" y1="530.4883" y2="530.4883"/><text fill="#000000" font-family="sans-serif" font-size="14" lengthAdjust="spacing" textLength="22.0049" x="150.8276" y="522.5352">Init</text></g><g><rect fill="#FFFFFF" height="50" rx="12.5" ry="12.5" style="stroke:#000000;stroke-width:0.5;" width="243.207" x="50.23" y="910"/><line style="stroke:#000000;stroke-width:0.5;" x1="50.23" x2="293.437" y1="936.4883" y2="936.4883"/><text fill="#000000" font-family="sans-serif" font-size="14" lengthAdjust="spacing" textLength="223.207" x="60.23" y="928.5352">WaitingForPlatformConfiguration</text></g><g><rect fill="#FFFFFF" height="50" rx="12.5" ry="12.5" style="stroke:#000000;stroke-width:0.5;" width="193.8652" x="74.9" y="1052"/><line style="stroke:#000000;stroke-width:0.5;" x1="74.9" x2="268.7652" y1="1078.4883" y2="1078.4883"/><text fill="#000000" font-family="sans-serif" font-size="14" lengthAdjust="spacing" textLength="173.8652" x="84.9" y="1070.5352">WaitingForNetworkConfig</text></g><g><rect fill="#FFFFFF" height="50" rx="12.5" ry="12.5" style="stroke:#000000;stroke-width:0.5;" width="210.7705" x="66.45" y="1163"/><line style="stroke:#000000;stroke-width:0.5;" x1="66.45" x2="277.2205" y1="1189.4883" y2="1189.4883"/><text fill="#000000" font-family="sans-serif" font-size="14" lengthAdjust="spacing" textLength="190.7705" x="76.45" y="1181.5352">HostInit/EnableIpmiOverLan</text></g><g class="entity" data-qualified-name="GMN2" data-source-line="22" id="ent0003"><path d="M796.76,516.34 L796.76,525 L703.56,529 L796.76,533 L796.76,541.6505 A0,0 0 0 0 796.76,541.6505 L1030.9016,541.6505 A0,0 0 0 0 1030.9016,541.6505 L1030.9016,526.34 L1020.9016,516.34 L796.76,516.34 A0,0 0 0 0 796.76,516.34" fill="#FEFFDD" style="stroke:#181818;stroke-width:0.5;"/><path d="M1020.9016,516.34 L1020.9016,526.34 L1030.9016,526.34 L1020.9016,516.34" fill="#FEFFDD" style="stroke:#181818;stroke-width:0.5;"/><text fill="#000000" font-family="sans-serif" font-size="13" lengthAdjust="spacing" textLength="213.1416" x="802.76" y="533.9084">Terminal state - waits indefinitely</text></g><!--link DpuDiscoveringState_DD_SSB_E_CheckSecureBootStatus to DI_IDO_InstallingBFB--><g class="link" data-entity-1="ent0002" data-entity-2="ent0006" data-link-type="dependency" data-source-line="38" id="lnk2"><path d="M396.83,57.44 C396.83,84.55 396.83,122.02 396.83,148.97" fill="none" id="DpuDiscoveringState_DD_SSB_E_CheckSecureBootStatus-to-DI_IDO_InstallingBFB" style="stroke:#181818;stroke-width:1;"/><polygon fill="#181818" points="396.83,154.97,400.83,145.97,396.83,149.97,392.83,145.97,396.83,154.97" style="stroke:#181818;stroke-width:1;"/><text fill="#000000" font-family="sans-serif" font-size="13" lengthAdjust="spacing" textLength="151.2964" x="397.83" y="100.5684">Security boot is enabled</text></g><!--link DpuDiscoveringState_DD_RebootAllDPUS to DI_Init--><g class="link" data-entity-1="ent0003" data-entity-2="ent0004" data-link-type="dependency" data-source-line="39" id="lnk3"><path d="M146.32,443.46 C149.62,461.41 152.9871,479.7885 156.2771,497.7185" fill="none" id="DpuDiscoveringState_DD_RebootAllDPUS-to-DI_Init" style="stroke:#181818;stroke-width:1;"/><polygon fill="#181818" points="157.36,503.62,159.67,494.0459,156.4576,498.7021,151.8014,495.4897,157.36,503.62" style="stroke:#181818;stroke-width:1;"/></g><!--link DI_IDO_InstallingBFB to DI_IDO_WaitForInstallComplete--><g class="link" data-entity-1="ent0006" data-entity-2="ent0007" data-link-type="dependency" data-source-line="41" id="lnk4"><path d="M396.83,205.46 C396.83,223.41 396.83,241.69 396.83,259.62" fill="none" id="DI_IDO_InstallingBFB-to-DI_IDO_WaitForInstallComplete" style="stroke:#181818;stroke-width:1;"/><polygon fill="#181818" points="396.83,265.62,400.83,256.62,396.83,260.62,392.83,256.62,396.83,265.62" style="stroke:#181818;stroke-width:1;"/></g><!--link DI_IDO_WaitForInstallComplete to DI_IDO_WaitForInstallComplete--><g class="link" data-entity-1="ent0007" data-entity-2="ent0007" data-link-type="dependency" data-source-line="42" id="lnk5"><path d="M485.57,280.85 C505.59,281.76 520.23,285.15 520.23,291 C520.23,296.85 511.5838,299.9676 491.5638,300.8776" fill="none" id="DI_IDO_WaitForInstallComplete-to-DI_IDO_WaitForInstallComplete" style="stroke:#181818;stroke-width:1;"/><polygon fill="#181818" points="485.57,301.15,494.7423,304.7372,490.5648,300.923,494.3791,296.7455,485.57,301.15" style="stroke:#181818;stroke-width:1;"/><text fill="#000000" font-family="sans-serif" font-size="13" lengthAdjust="spacing" textLength="250.9292" x="526.23" y="296.0684">Task Running/New/Starting (wait more)</text></g><!--link DI_IDO_WaitForInstallComplete to DI_IDO_Completed--><g class="link" data-entity-1="ent0007" data-entity-2="ent0008" data-link-type="dependency" data-source-line="43" id="lnk6"><path d="M393.13,316.4 C389.78,338.42 385.7832,364.7284 382.4332,386.7284" fill="none" id="DI_IDO_WaitForInstallComplete-to-DI_IDO_Completed" style="stroke:#181818;stroke-width:1;"/><polygon fill="#181818" points="381.53,392.66,386.8393,384.3647,382.2827,387.717,378.9304,383.1604,381.53,392.66" style="stroke:#181818;stroke-width:1;"/><text fill="#000000" font-family="sans-serif" font-size="13" lengthAdjust="spacing" textLength="99.9883" x="389.47" y="359.5684">Task completed</text></g><!--link DI_IDO_WaitForInstallComplete to DI_IDO_InstallationError--><g class="link" data-entity-1="ent0007" data-entity-2="ent0009" data-link-type="dependency" data-source-line="44" id="lnk7"><path d="M452.44,316.38 C467.99,324.58 484.31,334.58 497.83,346 C553.72,393.2 598.6464,460.7911 621.4964,498.4311" fill="none" id="DI_IDO_WaitForInstallComplete-to-DI_IDO_InstallationError" style="stroke:#181818;stroke-width:1;"/><polygon fill="#181818" points="624.61,503.56,623.3589,493.7909,622.0153,499.2859,616.5204,497.9424,624.61,503.56" style="stroke:#181818;stroke-width:1;"/><text fill="#000000" font-family="sans-serif" font-size="13" lengthAdjust="spacing" textLength="95.71" x="584.17" y="423.0684">Task exception</text></g><!--link DI_IDO_Completed to DI_Init--><g class="link" data-entity-1="ent0008" data-entity-2="ent0004" data-link-type="dependency" data-source-line="45" id="lnk8"><path d="M330.43,442.92 C286.35,465.17 227.6968,494.7672 192.5968,512.4772" fill="none" id="DI_IDO_Completed-to-DI_Init" style="stroke:#181818;stroke-width:1;"/><polygon fill="#181818" points="187.24,515.18,197.077,514.697,191.704,512.9277,193.4733,507.5546,187.24,515.18" style="stroke:#181818;stroke-width:1;"/></g><!--link DI_Init to DI_W4PP_OFF--><g class="link" data-entity-1="ent0004" data-entity-2="ent0011" data-link-type="dependency" data-source-line="47" id="lnk9"><path d="M161.83,554.44 C161.83,581.86 161.83,620.09 161.83,647.52" fill="none" id="DI_Init-to-DI_W4PP_OFF" style="stroke:#181818;stroke-width:1;"/><polygon fill="#181818" points="161.83,653.52,165.83,644.52,161.83,648.52,157.83,644.52,161.83,653.52" style="stroke:#181818;stroke-width:1;"/><text fill="#000000" font-family="sans-serif" font-size="13" lengthAdjust="spacing" textLength="99.7915" x="162.83" y="599.5684">Restart all DPUs</text></g><!--link DI_W4PP_OFF to DI_W4PP_OFF--><g class="link" data-entity-1="ent0011" data-entity-2="ent0011" data-link-type="dependency" data-source-line="48" id="lnk10"><path d="M187.11,668.26 C204.61,665 221.83,668.58 221.83,679 C221.83,689.42 210.5085,694.0988 193.0085,690.8388" fill="none" id="DI_W4PP_OFF-to-DI_W4PP_OFF" style="stroke:#181818;stroke-width:1;"/><polygon fill="#181818" points="187.11,689.74,195.2252,695.3206,192.0254,690.6557,196.6903,687.4559,187.11,689.74" style="stroke:#181818;stroke-width:1;"/><text fill="#000000" font-family="sans-serif" font-size="13" lengthAdjust="spacing" textLength="221.1016" x="227.83" y="684.0684">DPUs not synchronized (wait more)</text></g><!--link DI_W4PP_OFF to DI_W4PP_ON--><g class="link" data-entity-1="ent0011" data-entity-2="ent0012" data-link-type="dependency" data-source-line="49" id="lnk11"><path d="M163.79,704.4 C165.55,726.42 167.6515,752.6791 169.4115,774.6791" fill="none" id="DI_W4PP_OFF-to-DI_W4PP_ON" style="stroke:#181818;stroke-width:1;"/><polygon fill="#181818" points="169.89,780.66,173.1596,771.3697,169.4913,775.6759,165.185,772.0076,169.89,780.66" style="stroke:#181818;stroke-width:1;"/><text fill="#000000" font-family="sans-serif" font-size="13" lengthAdjust="spacing" textLength="248.2695" x="168.43" y="747.5684">All DPUs synchronized, power OFF host</text></g><!--link DI_W4PP_ON to DI_WaitingForPlatformConfiguration--><g class="link" data-entity-1="ent0012" data-entity-2="ent0013" data-link-type="dependency" data-source-line="50" id="lnk12"><path d="M171.83,831.49 C171.83,853.98 171.83,881.12 171.83,903.59" fill="none" id="DI_W4PP_ON-to-DI_WaitingForPlatformConfiguration" style="stroke:#181818;stroke-width:1;"/><polygon fill="#181818" points="171.83,909.59,175.83,900.59,171.83,904.59,167.83,900.59,171.83,909.59" style="stroke:#181818;stroke-width:1;"/><text fill="#000000" font-family="sans-serif" font-size="13" lengthAdjust="spacing" textLength="93.2217" x="172.83" y="876.5684">Power ON host</text></g><!--link DI_WaitingForPlatformConfiguration to DI_WaitingForNetworkConfig--><g class="link" data-entity-1="ent0013" data-entity-2="ent0014" data-link-type="dependency" data-source-line="51" id="lnk13"><path d="M171.83,960.39 C171.83,986.08 171.83,1020.3 171.83,1045.89" fill="none" id="DI_WaitingForPlatformConfiguration-to-DI_WaitingForNetworkConfig" style="stroke:#181818;stroke-width:1;"/><polygon fill="#181818" points="171.83,1051.89,175.83,1042.89,171.83,1046.89,167.83,1042.89,171.83,1051.89" style="stroke:#181818;stroke-width:1;"/><text fill="#000000" font-family="sans-serif" font-size="13" lengthAdjust="spacing" textLength="299.6982" x="172.83" y="1003.5684">Call machine-setup/uefi-setup and restart DPU</text><text fill="#000000" font-family="sans-serif" font-size="13" lengthAdjust="spacing" textLength="216.2266" x="214.5658" y="1018.8789">Restart DPU to apply BIOS settings</text></g><!--link DI_WaitingForNetworkConfig to DI_WaitingForNetworkConfig--><g class="link" data-entity-1="ent0014" data-entity-2="ent0014" data-link-type="dependency" data-source-line="52" id="lnk14"><path d="M269.06,1066.96 C289.25,1068.02 303.77,1071.36 303.77,1077 C303.77,1082.64 295.2417,1085.6654 275.0517,1086.7254" fill="none" id="DI_WaitingForNetworkConfig-to-DI_WaitingForNetworkConfig" style="stroke:#181818;stroke-width:1;"/><polygon fill="#181818" points="269.06,1087.04,278.2573,1090.5626,274.0531,1086.7779,277.8379,1082.5736,269.06,1087.04" style="stroke:#181818;stroke-width:1;"/><text fill="#000000" font-family="sans-serif" font-size="13" lengthAdjust="spacing" textLength="370.5825" x="309.77" y="1082.0684">DPU network not ready (wait more, potentially reboot DPU)</text></g><!--link DI_WaitingForNetworkConfig to HostInit_HI_EnableIpmiOverLan--><g class="link" data-entity-1="ent0014" data-entity-2="ent0015" data-link-type="dependency" data-source-line="53" id="lnk15"><path d="M171.83,1102.46 C171.83,1120.41 171.83,1138.69 171.83,1156.62" fill="none" id="DI_WaitingForNetworkConfig-to-HostInit_HI_EnableIpmiOverLan" style="stroke:#181818;stroke-width:1;"/><polygon fill="#181818" points="171.83,1162.62,175.83,1153.62,171.83,1157.62,167.83,1153.62,171.83,1162.62" style="stroke:#181818;stroke-width:1;"/></g></g></svg>