<?plantuml 1.2026.1?><svg xmlns="http://www.w3.org/2000/svg" xmlns:xlink="http://www.w3.org/1999/xlink" contentStyleType="text/css" data-diagram-type="STATE" height="854px" preserveAspectRatio="none" style="width:2088px;height:854px;background:#FFFFFF;" version="1.1" viewBox="0 0 2088 854" width="2088px" zoomAndPan="magnify"><defs/><g><g><rect fill="#FFFFFF" height="50" rx="12.5" ry="12.5" style="stroke:#000000;stroke-width:0.5;" width="211.4131" x="1508.18" y="7"/><line style="stroke:#000000;stroke-width:0.5;" x1="1508.18" x2="1719.5931" y1="33.4883" y2="33.4883"/><text fill="#000000" font-family="sans-serif" font-size="14" lengthAdjust="spacing" textLength="191.4131" x="1518.18" y="25.5352">HostInitState/WaitForDPUUp</text></g><g><rect fill="#FFFFFF" height="50" rx="12.5" ry="12.5" style="stroke:#000000;stroke-width:0.5;" width="60.5098" x="612.63" y="118"/><line style="stroke:#000000;stroke-width:0.5;" x1="612.63" x2="673.1398" y1="144.4883" y2="144.4883"/><text fill="#000000" font-family="sans-serif" font-size="14" lengthAdjust="spacing" textLength="40.5098" x="622.63" y="136.5352">Ready</text></g><g><rect fill="#FFFFFF" height="50" rx="12.5" ry="12.5" style="stroke:#000000;stroke-width:0.5;" width="241.7988" x="259.98" y="514"/><line style="stroke:#000000;stroke-width:0.5;" x1="259.98" x2="501.7788" y1="540.4883" y2="540.4883"/><text fill="#000000" font-family="sans-serif" font-size="14" lengthAdjust="spacing" textLength="221.7988" x="269.98" y="532.5352">WaitingForCleanup/HostCleanup</text></g><g><rect fill="#FFFFFF" height="50" rx="12.5" ry="12.5" style="stroke:#000000;stroke-width:0.5;" width="217.7637" x="7" y="514"/><line style="stroke:#000000;stroke-width:0.5;" x1="7" x2="224.7637" y1="540.4883" y2="540.4883"/><text fill="#000000" font-family="sans-serif" font-size="14" lengthAdjust="spacing" textLength="197.7637" x="17" y="532.5352">WaitingForCleanup/LockHost</text></g><g class="entity" data-qualified-name="bv_requested" id="ent0006"><polygon fill="#F1F1F1" points="642.88,258,654.88,270,642.88,282,630.88,270,642.88,258" style="stroke:#181818;stroke-width:0.5;"/></g><g><rect fill="#FFFFFF" height="50" rx="12.5" ry="12.5" style="stroke:#000000;stroke-width:0.5;" width="106.7617" x="1560.5" y="118"/><line style="stroke:#000000;stroke-width:0.5;" x1="1560.5" x2="1667.2617" y1="144.4883" y2="144.4883"/><text fill="#000000" font-family="sans-serif" font-size="14" lengthAdjust="spacing" textLength="86.7617" x="1570.5" y="136.5352">MatchingSku</text></g><g><rect fill="#FFFFFF" height="50" rx="12.5" ry="12.5" style="stroke:#000000;stroke-width:0.5;" width="145.0908" x="831.34" y="656"/><line style="stroke:#000000;stroke-width:0.5;" x1="831.34" x2="976.4308" y1="682.4883" y2="682.4883"/><text fill="#000000" font-family="sans-serif" font-size="14" lengthAdjust="spacing" textLength="125.0908" x="841.34" y="674.5352">UpdatingInventory</text></g><g><rect fill="#FFFFFF" height="50" rx="12.5" ry="12.5" style="stroke:#000000;stroke-width:0.5;" width="105.0664" x="1475.35" y="245"/><line style="stroke:#000000;stroke-width:0.5;" x1="1475.35" x2="1580.4164" y1="271.4883" y2="271.4883"/><text fill="#000000" font-family="sans-serif" font-size="14" lengthAdjust="spacing" textLength="85.0664" x="1485.35" y="263.5352">VerifyingSku</text></g><g><rect fill="#FFFFFF" height="50" rx="12.5" ry="12.5" style="stroke:#000000;stroke-width:0.5;" width="161.75" x="1184.01" y="387"/><line style="stroke:#000000;stroke-width:0.5;" x1="1184.01" x2="1345.76" y1="413.4883" y2="413.4883"/><text fill="#000000" font-family="sans-serif" font-size="14" lengthAdjust="spacing" textLength="141.75" x="1194.01" y="405.5352">SkuVerificationFailed</text></g><g><rect fill="#FFFFFF" height="50" rx="12.5" ry="12.5" style="stroke:#000000;stroke-width:0.5;" width="196.8936" x="999.44" y="514"/><line style="stroke:#000000;stroke-width:0.5;" x1="999.44" x2="1196.3336" y1="540.4883" y2="540.4883"/><text fill="#000000" font-family="sans-serif" font-size="14" lengthAdjust="spacing" textLength="176.8936" x="1009.44" y="532.5352">WaitingForSkuAssignment</text></g><g><rect fill="#FFFFFF" height="50" rx="12.5" ry="12.5" style="stroke:#000000;stroke-width:0.5;" width="96.2549" x="779.75" y="387"/><line style="stroke:#000000;stroke-width:0.5;" x1="779.75" x2="876.0049" y1="413.4883" y2="413.4883"/><text fill="#000000" font-family="sans-serif" font-size="14" lengthAdjust="spacing" textLength="76.2549" x="789.75" y="405.5352">SkuMissing</text></g><g class="entity" data-qualified-name="bv_validation_enabled" id="ent0013"><polygon fill="#F1F1F1" points="1830.88,669,1842.88,681,1830.88,693,1818.88,681,1830.88,669" style="stroke:#181818;stroke-width:0.5;"/></g><g><rect fill="#FFFFFF" height="50" rx="12.5" ry="12.5" style="stroke:#000000;stroke-width:0.5;" width="174.5947" x="1643.58" y="798"/><line style="stroke:#000000;stroke-width:0.5;" x1="1643.58" x2="1818.1747" y1="824.4883" y2="824.4883"/><text fill="#000000" font-family="sans-serif" font-size="14" lengthAdjust="spacing" textLength="154.5947" x="1653.58" y="816.5352">Validation/RebootHost</text></g><g><rect fill="#FFFFFF" height="50" rx="12.5" ry="12.5" style="stroke:#000000;stroke-width:0.5;" width="155.4336" x="1853.17" y="798"/><line style="stroke:#000000;stroke-width:0.5;" x1="1853.17" x2="2008.6036" y1="824.4883" y2="824.4883"/><text fill="#000000" font-family="sans-serif" font-size="14" lengthAdjust="spacing" textLength="135.4336" x="1863.17" y="816.5352">HostInit/Discovered</text></g><!--link HostInitState_HI_WFL_WaitForDPUUp to BV_MatchingSku--><g class="link" data-entity-1="ent0002" data-entity-2="ent0007" data-link-type="dependency" data-source-line="34" id="lnk2"><path d="M1613.88,57.46 C1613.88,75.41 1613.88,93.69 1613.88,111.62" fill="none" id="HostInitState_HI_WFL_WaitForDPUUp-to-BV_MatchingSku" style="stroke:#181818;stroke-width:1;"/><polygon fill="#181818" points="1613.88,117.62,1617.88,108.62,1613.88,112.62,1609.88,108.62,1613.88,117.62" style="stroke:#181818;stroke-width:1;"/></g><!--link WaitingForCleanup_C_HostCleanup to BV_UpdatingInventory--><g class="link" data-entity-1="ent0004" data-entity-2="ent0008" data-link-type="dependency" data-source-line="35" id="lnk3"><path d="M414.34,564.49 C443.2,584.35 486.78,611.36 528.88,626 C629.99,661.16 748.1092,673.1071 825.1192,677.3871" fill="none" id="WaitingForCleanup_C_HostCleanup-to-BV_UpdatingInventory" style="stroke:#181818;stroke-width:1;"/><polygon fill="#181818" points="831.11,677.72,822.3458,673.2267,826.1177,677.4425,821.9019,681.2144,831.11,677.72" style="stroke:#181818;stroke-width:1;"/></g><!--link WaitingForCleanup_C_SBV_LockHost to BV_UpdatingInventory--><g class="link" data-entity-1="ent0005" data-entity-2="ent0008" data-link-type="dependency" data-source-line="36" id="lnk4"><path d="M198.99,564.44 C266.79,583.6 365.33,609.66 452.88,626 C585.25,650.7 735.7024,665.9618 825.2124,673.7218" fill="none" id="WaitingForCleanup_C_SBV_LockHost-to-BV_UpdatingInventory" style="stroke:#181818;stroke-width:1;"/><polygon fill="#181818" points="831.19,674.24,822.5691,669.4776,826.2087,673.8081,821.8782,677.4477,831.19,674.24" style="stroke:#181818;stroke-width:1;"/></g><!--link Ready to bv_requested--><g class="link" data-entity-1="ent0003" data-entity-2="ent0006" data-link-type="dependency" data-source-line="37" id="lnk5"><path d="M642.88,168.4 C642.88,195.25 642.88,231.29 642.88,251.45" fill="none" id="Ready-to-bv_requested" style="stroke:#181818;stroke-width:1;"/><polygon fill="#181818" points="642.88,257.45,646.88,248.45,642.88,252.45,638.88,248.45,642.88,257.45" style="stroke:#181818;stroke-width:1;"/></g><!--link bv_requested to BV_UpdatingInventory--><g class="link" data-entity-1="ent0006" data-entity-2="ent0008" data-link-type="dependency" data-source-line="39" id="lnk6"><path d="M639.37,278.85 C634.96,289.18 627.64,308.03 624.88,325 C613.34,396.15 609.42,429.74 656.88,484 C720.31,556.52 808.2428,618.6947 860.1528,652.5147" fill="none" id="bv_requested-to-BV_UpdatingInventory" style="stroke:#181818;stroke-width:1;"/><polygon fill="#181818" points="865.18,655.79,859.8227,647.5256,860.9907,653.0606,855.4557,654.2285,865.18,655.79" style="stroke:#181818;stroke-width:1;"/><text fill="#000000" font-family="sans-serif" font-size="13" lengthAdjust="spacing" textLength="122.9922" x="657.88" y="480.5684">Possible SKU match</text></g><!--link bv_requested to BV_WaitingForSkuAssignment--><g class="link" data-entity-1="ent0006" data-entity-2="ent0011" data-link-type="dependency" data-source-line="40" id="lnk7"><path d="M640.52,280.34 C634.11,308.12 619.43,391.17 659.88,437 C662.74,440.23 864.8751,485.8986 993.1851,514.6386" fill="none" id="bv_requested-to-BV_WaitingForSkuAssignment" style="stroke:#181818;stroke-width:1;"/><polygon fill="#181818" points="999.04,515.95,991.1319,510.0796,994.1609,514.8571,989.3833,517.8861,999.04,515.95" style="stroke:#181818;stroke-width:1;"/><text fill="#000000" font-family="sans-serif" font-size="13" lengthAdjust="spacing" textLength="100.5342" x="660.88" y="417.0684">SKU unassigned</text></g><!--link bv_requested to BV_SkuMissing--><g class="link" data-entity-1="ent0006" data-entity-2="ent0012" data-link-type="dependency" data-source-line="41" id="lnk8"><path d="M649.47,275.98 C672.57,293.47 746.2055,349.1894 791.0155,383.0994" fill="none" id="bv_requested-to-BV_SkuMissing" style="stroke:#181818;stroke-width:1;"/><polygon fill="#181818" points="795.8,386.72,791.0371,378.0994,791.813,383.7028,786.2096,384.4787,795.8,386.72" style="stroke:#181818;stroke-width:1;"/><text fill="#000000" font-family="sans-serif" font-size="13" lengthAdjust="spacing" textLength="90.7207" x="752.95" y="346.0684">SKU not found</text></g><!--link BV_MatchingSku to BV_VerifyingSku--><g class="link" data-entity-1="ent0007" data-entity-2="ent0009" data-link-type="dependency" data-source-line="43" id="lnk9"><path d="M1602.11,168.43 C1594.93,182.49 1585.18,200.24 1574.88,215 C1567.77,225.19 1563.0284,231.1775 1555.0384,240.1575" fill="none" id="BV_MatchingSku-to-BV_VerifyingSku" style="stroke:#181818;stroke-width:1;"/><polygon fill="#181818" points="1551.05,244.64,1560.0209,240.5751,1554.3736,240.9046,1554.0442,235.2573,1551.05,244.64" style="stroke:#181818;stroke-width:1;"/><text fill="#000000" font-family="sans-serif" font-size="13" lengthAdjust="spacing" textLength="76.1528" x="1586.7" y="211.5684">SKU present</text></g><!--link BV_VerifyingSku to BV_MatchingSku--><g class="link" data-entity-1="ent0009" data-entity-2="ent0007" data-link-type="dependency" data-source-line="48" id="lnk14"><path d="M1500.97,244.78 C1488.74,230.79 1478.99,213.04 1488.88,198 C1504.72,173.9 1528.0879,162.1478 1554.2379,154.7278" fill="none" id="BV_VerifyingSku-to-BV_MatchingSku" style="stroke:#181818;stroke-width:1;"/><polygon fill="#181818" points="1560.01,153.09,1550.2599,151.6987,1555.1999,154.4549,1552.4437,159.3948,1560.01,153.09" style="stroke:#181818;stroke-width:1;"/><text fill="#000000" font-family="sans-serif" font-size="13" lengthAdjust="spacing" textLength="76.1528" x="1489.88" y="211.5684">SKU present</text></g><!--link BV_MatchingSku to BV_WaitingForSkuAssignment--><g class="link" data-entity-1="ent0007" data-entity-2="ent0011" data-link-type="dependency" data-source-line="44" id="lnk10"><path d="M1560.38,145.99 C1456.41,153.01 1227.76,184.5 1118.88,325 C1096.52,353.86 1095.9866,457.9113 1097.0066,507.5113" fill="none" id="BV_MatchingSku-to-BV_WaitingForSkuAssignment" style="stroke:#181818;stroke-width:1;"/><polygon fill="#181818" points="1097.13,513.51,1100.9441,504.4297,1097.0272,508.5111,1092.9458,504.5941,1097.13,513.51" style="stroke:#181818;stroke-width:1;"/><text fill="#000000" font-family="sans-serif" font-size="13" lengthAdjust="spacing" textLength="101.1816" x="1119.88" y="338.5684">SKU not present</text><text fill="#000000" font-family="sans-serif" font-size="13" lengthAdjust="spacing" textLength="90.8667" x="1125.0375" y="353.8789">AND !matched</text></g><!--link BV_UpdatingInventory to BV_UpdatingInventory--><g class="link" data-entity-1="ent0008" data-entity-2="ent0008" data-link-type="dependency" data-source-line="45" id="lnk11"><path d="M976.77,667.79 C996.45,668.48 1011.43,672.89 1011.43,681 C1011.43,689.11 1002.4463,693.3098 982.7663,693.9998" fill="none" id="BV_UpdatingInventory-to-BV_UpdatingInventory" style="stroke:#181818;stroke-width:1;"/><polygon fill="#181818" points="976.77,694.21,985.9046,697.8922,981.7669,694.0348,985.6243,689.8971,976.77,694.21" style="stroke:#181818;stroke-width:1;"/><text fill="#000000" font-family="sans-serif" font-size="13" lengthAdjust="spacing" textLength="90.3271" x="1017.43" y="686.0684">Wait discovery</text></g><!--link BV_UpdatingInventory to BV_MatchingSku--><g class="link" data-entity-1="ent0008" data-entity-2="ent0007" data-link-type="dependency" data-source-line="46" id="lnk12"><path d="M976.56,679.55 C1071.93,677.23 1243.64,667.04 1383.88,626 C1443.78,608.47 1457.2,597.47 1509.88,564 C1557.92,533.48 1579.59,532.18 1609.88,484 C1675.19,380.13 1658.02,336.9 1671.88,215 C1672.74,207.49 1674.9,204.93 1671.88,198 C1666.94,186.65 1662.7496,180.6251 1653.6296,172.3751" fill="none" id="BV_UpdatingInventory-to-BV_MatchingSku" style="stroke:#181818;stroke-width:1;"/><polygon fill="#181818" points="1649.18,168.35,1653.1709,177.354,1652.888,171.7042,1658.5377,171.4213,1649.18,168.35" style="stroke:#181818;stroke-width:1;"/><text fill="#000000" font-family="sans-serif" font-size="13" lengthAdjust="spacing" textLength="101.1816" x="1654.93" y="417.0684">SKU not present</text></g><!--link BV_UpdatingInventory to BV_VerifyingSku--><g class="link" data-entity-1="ent0008" data-entity-2="ent0009" data-link-type="dependency" data-source-line="47" id="lnk13"><path d="M976.79,674.09 C1111.64,661.71 1392.69,628.7 1462.88,564 C1534.61,497.88 1526.27,454.08 1535.88,357 C1537.94,336.26 1536.3462,318.6149 1533.5962,301.3949" fill="none" id="BV_UpdatingInventory-to-BV_VerifyingSku" style="stroke:#181818;stroke-width:1;"/><polygon fill="#181818" points="1532.65,295.47,1530.1193,304.9882,1533.4385,300.4074,1538.0192,303.7266,1532.65,295.47" style="stroke:#181818;stroke-width:1;"/><text fill="#000000" font-family="sans-serif" font-size="13" lengthAdjust="spacing" textLength="76.1528" x="1524.75" y="480.5684">SKU present</text></g><!--link BV_VerifyingSku to BV_SkuMissing--><g class="link" data-entity-1="ent0009" data-entity-2="ent0012" data-link-type="dependency" data-source-line="49" id="lnk15"><path d="M1474.86,272.81 C1418.89,276.7 1329.55,288.66 1261.88,325 C1244.16,334.52 1247.91,348.08 1229.88,357 C1168.66,387.29 975.3588,402.314 882.4188,407.994" fill="none" id="BV_VerifyingSku-to-BV_SkuMissing" style="stroke:#181818;stroke-width:1;"/><polygon fill="#181818" points="876.43,408.36,885.6572,411.8035,881.4207,408.055,885.1692,403.8184,876.43,408.36" style="stroke:#181818;stroke-width:1;"/><text fill="#000000" font-family="sans-serif" font-size="13" lengthAdjust="spacing" textLength="90.7207" x="1262.88" y="346.0684">SKU not found</text></g><!--link BV_VerifyingSku to BV_SkuVerificationFailed--><g class="link" data-entity-1="ent0009" data-entity-2="ent0010" data-link-type="dependency" data-source-line="50" id="lnk16"><path d="M1475,288.39 C1450.59,297.55 1421.79,310 1397.88,325 C1379.75,336.37 1379.34,344.61 1361.88,357 C1346.79,367.71 1334.6469,375.106 1318.7769,383.766" fill="none" id="BV_VerifyingSku-to-BV_SkuVerificationFailed" style="stroke:#181818;stroke-width:1;"/><polygon fill="#181818" points="1313.51,386.64,1323.3263,385.8402,1317.8991,384.245,1319.4943,378.8177,1313.51,386.64" style="stroke:#181818;stroke-width:1;"/><text fill="#000000" font-family="sans-serif" font-size="13" lengthAdjust="spacing" textLength="132.9644" x="1398.88" y="346.0684">SKU diff is not empty</text></g><!--link BV_SkuVerificationFailed to BV_WaitingForSkuAssignment--><g class="link" data-entity-1="ent0010" data-entity-2="ent0011" data-link-type="dependency" data-source-line="51" id="lnk17"><path d="M1232.29,437.4 C1202.86,459.42 1164.6039,488.0652 1135.2039,510.0652" fill="none" id="BV_SkuVerificationFailed-to-BV_WaitingForSkuAssignment" style="stroke:#181818;stroke-width:1;"/><polygon fill="#181818" points="1130.4,513.66,1140.0024,511.4705,1134.4033,510.6644,1135.2094,505.0652,1130.4,513.66" style="stroke:#181818;stroke-width:1;"/><text fill="#000000" font-family="sans-serif" font-size="13" lengthAdjust="spacing" textLength="101.1816" x="1192.38" y="480.5684">SKU not present</text></g><!--link BV_SkuVerificationFailed to BV_UpdatingInventory--><g class="link" data-entity-1="ent0010" data-entity-2="ent0008" data-link-type="dependency" data-source-line="52" id="lnk18"><path d="M1294.82,437.48 C1329.27,468.62 1377.32,523.25 1345.88,564 C1301.06,622.1 1096.1398,656.0353 982.6298,670.8153" fill="none" id="BV_SkuVerificationFailed-to-BV_UpdatingInventory" style="stroke:#181818;stroke-width:1;"/><polygon fill="#181818" points="976.68,671.59,986.1211,674.3944,981.6381,670.9444,985.0882,666.4614,976.68,671.59" style="stroke:#181818;stroke-width:1;"/><text fill="#000000" font-family="sans-serif" font-size="13" lengthAdjust="spacing" textLength="97.6841" x="1357.09" y="544.0684">Update timeout</text></g><!--link BV_SkuVerificationFailed to BV_SkuVerificationFailed--><g class="link" data-entity-1="ent0010" data-entity-2="ent0010" data-link-type="dependency" data-source-line="53" id="lnk19"><path d="M1346.1,400.28 C1365.97,401.15 1380.76,405.05 1380.76,412 C1380.76,418.95 1371.9643,422.5875 1352.0943,423.4575" fill="none" id="BV_SkuVerificationFailed-to-BV_SkuVerificationFailed" style="stroke:#181818;stroke-width:1;"/><polygon fill="#181818" points="1346.1,423.72,1355.2664,427.3225,1351.0952,423.5013,1354.9164,419.3301,1346.1,423.72" style="stroke:#181818;stroke-width:1;"/><text fill="#000000" font-family="sans-serif" font-size="13" lengthAdjust="spacing" textLength="127.7783" x="1386.76" y="417.0684">Wait update timeout</text></g><!--link BV_WaitingForSkuAssignment to BV_UpdatingInventory--><g class="link" data-entity-1="ent0011" data-entity-2="ent0008" data-link-type="dependency" data-source-line="54" id="lnk20"><path d="M1064.09,564.39 C1028.59,590 977.9557,626.5493 942.4757,652.1493" fill="none" id="BV_WaitingForSkuAssignment-to-BV_UpdatingInventory" style="stroke:#181818;stroke-width:1;"/><polygon fill="#181818" points="937.61,655.66,947.249,653.6377,941.6647,652.7344,942.568,647.1501,937.61,655.66" style="stroke:#181818;stroke-width:1;"/><text fill="#000000" font-family="sans-serif" font-size="13" lengthAdjust="spacing" textLength="76.1528" x="1019.5647" y="607.5684">SKU present</text><text fill="#000000" font-family="sans-serif" font-size="13" lengthAdjust="spacing" textLength="76.7622" x="1019.26" y="622.8789">OR matched</text></g><!--link BV_WaitingForSkuAssignment to BV_WaitingForSkuAssignment--><g class="link" data-entity-1="ent0011" data-entity-2="ent0011" data-link-type="dependency" data-source-line="55" id="lnk21"><path d="M1196.82,527.55 C1216.93,528.8 1231.33,532.61 1231.33,539 C1231.33,545.39 1222.9184,548.8278 1202.8084,550.0778" fill="none" id="BV_WaitingForSkuAssignment-to-BV_WaitingForSkuAssignment" style="stroke:#181818;stroke-width:1;"/><polygon fill="#181818" points="1196.82,550.45,1206.0508,553.8839,1201.8104,550.1398,1205.5545,545.8994,1196.82,550.45" style="stroke:#181818;stroke-width:1;"/><text fill="#000000" font-family="sans-serif" font-size="13" lengthAdjust="spacing" textLength="102.6035" x="1237.33" y="544.0684">wait assignment</text></g><!--link BV_SkuMissing to BV_UpdatingInventory--><g class="link" data-entity-1="ent0012" data-entity-2="ent0008" data-link-type="dependency" data-source-line="56" id="lnk22"><path d="M825.69,437.4 C823.75,467.76 822.94,520.88 835.88,564 C846.22,598.43 865.1907,628.5678 881.4907,650.9778" fill="none" id="BV_SkuMissing-to-BV_UpdatingInventory" style="stroke:#181818;stroke-width:1;"/><polygon fill="#181818" points="885.02,655.83,882.9609,646.1988,882.0789,651.7865,876.4912,650.9045,885.02,655.83" style="stroke:#181818;stroke-width:1;"/><text fill="#000000" font-family="sans-serif" font-size="13" lengthAdjust="spacing" textLength="144.8916" x="836.88" y="544.0684">SKU present and found</text></g><!--link BV_SkuMissing to BV_SkuMissing--><g class="link" data-entity-1="ent0012" data-entity-2="ent0012" data-link-type="dependency" data-source-line="57" id="lnk23"><path d="M876.14,400.15 C895.14,399.56 911.01,403.5 911.01,412 C911.01,420.5 901.1371,424.6262 882.1371,424.0362" fill="none" id="BV_SkuMissing-to-BV_SkuMissing" style="stroke:#181818;stroke-width:1;"/><polygon fill="#181818" points="876.14,423.85,885.0115,428.1274,881.1376,424.0052,885.2598,420.1313,876.14,423.85" style="stroke:#181818;stroke-width:1;"/><text fill="#000000" font-family="sans-serif" font-size="13" lengthAdjust="spacing" textLength="169.9204" x="917.01" y="417.0684">SKU present and not found</text></g><!--link BV_SkuMissing to BV_WaitingForSkuAssignment--><g class="link" data-entity-1="ent0012" data-entity-2="ent0011" data-link-type="dependency" data-source-line="58" id="lnk24"><path d="M876.46,435.49 C923.99,457.49 990.7053,488.3791 1039.6253,511.0291" fill="none" id="BV_SkuMissing-to-BV_WaitingForSkuAssignment" style="stroke:#181818;stroke-width:1;"/><polygon fill="#181818" points="1045.07,513.55,1038.5835,506.1388,1040.5327,511.4492,1035.2223,513.3984,1045.07,513.55" style="stroke:#181818;stroke-width:1;"/><text fill="#000000" font-family="sans-serif" font-size="13" lengthAdjust="spacing" textLength="101.1816" x="980.05" y="480.5684">SKU not present</text></g><!--link BV_WaitingForSkuAssignment to bv_validation_enabled--><g class="link" data-entity-1="ent0011" data-entity-2="ent0013" data-link-type="dependency" data-source-line="60" id="lnk25"><path d="M1196.74,558.88 C1379.23,593.74 1750.4966,664.6438 1815.3866,677.0438" fill="none" id="BV_WaitingForSkuAssignment-to-bv_validation_enabled" style="stroke:#181818;stroke-width:1;"/><polygon fill="#181818" points="1821.28,678.17,1813.1907,672.5518,1816.3689,677.2315,1811.6892,680.4096,1821.28,678.17" style="stroke:#181818;stroke-width:1;"/><text fill="#000000" font-family="sans-serif" font-size="13" lengthAdjust="spacing" textLength="151.5693" x="1531.04" y="615.0684">BOM validation disabled</text></g><!--link BV_MatchingSku to bv_validation_enabled--><g class="link" data-entity-1="ent0007" data-entity-2="ent0013" data-link-type="dependency" data-source-line="61" id="lnk26"><path d="M1667.69,145.33 C1747.48,150.49 1887.88,173.19 1887.88,269 C1887.88,269 1887.88,269 1887.88,540 C1887.88,595.11 1853.0074,649.1205 1839.2174,668.5105" fill="none" id="BV_MatchingSku-to-bv_validation_enabled" style="stroke:#181818;stroke-width:1;"/><polygon fill="#181818" points="1835.74,673.4,1844.2158,668.3839,1838.6378,669.3254,1837.6964,663.7474,1835.74,673.4" style="stroke:#181818;stroke-width:1;"/><text fill="#000000" font-family="sans-serif" font-size="13" lengthAdjust="spacing" textLength="151.5693" x="1909.11" y="409.5684">BOM validation disabled</text><text fill="#000000" font-family="sans-serif" font-size="13" lengthAdjust="spacing" textLength="192.0293" x="1888.88" y="424.8789">OR (SKU Present and matched)</text></g><!--link BV_VerifyingSku to bv_validation_enabled--><g class="link" data-entity-1="ent0009" data-entity-2="ent0013" data-link-type="dependency" data-source-line="62" id="lnk27"><path d="M1555.16,295.27 C1564.66,304.23 1575.12,314.72 1583.88,325 C1694.91,455.3 1801.0133,629.9389 1823.5733,667.7089" fill="none" id="BV_VerifyingSku-to-bv_validation_enabled" style="stroke:#181818;stroke-width:1;"/><polygon fill="#181818" points="1826.65,672.86,1825.4689,663.0822,1824.0861,668.5674,1818.6008,667.1845,1826.65,672.86" style="stroke:#181818;stroke-width:1;"/><text fill="#000000" font-family="sans-serif" font-size="13" lengthAdjust="spacing" textLength="107.9355" x="1703.48" y="480.5684">SKU diff is empty</text></g><!--link bv_validation_enabled to Validation_V_RebootHost--><g class="link" data-entity-1="ent0013" data-entity-2="ent0014" data-link-type="dependency" data-source-line="64" id="lnk28"><path d="M1826.06,688.75 C1812.21,708.14 1775.2976,759.8177 1751.8176,792.6877" fill="none" id="bv_validation_enabled-to-Validation_V_RebootHost" style="stroke:#181818;stroke-width:1;"/><polygon fill="#181818" points="1748.33,797.57,1756.8162,792.5716,1751.2363,793.5014,1750.3065,787.9215,1748.33,797.57" style="stroke:#181818;stroke-width:1;"/><text fill="#000000" font-family="sans-serif" font-size="13" lengthAdjust="spacing" textLength="61.458" x="1790.84" y="749.5684">validation</text><text fill="#000000" font-family="sans-serif" font-size="13" lengthAdjust="spacing" textLength="49.8545" x="1796.6418" y="764.8789">enabled</text></g><!--link bv_validation_enabled to HostInit_HI_Discovered--><g class="link" data-entity-1="ent0013" data-entity-2="ent0015" data-link-type="dependency" data-source-line="65" id="lnk29"><path d="M1835.71,688.75 C1849.56,708.14 1886.4734,759.817 1909.9434,792.687" fill="none" id="bv_validation_enabled-to-HostInit_HI_Discovered" style="stroke:#181818;stroke-width:1;"/><polygon fill="#181818" points="1913.43,797.57,1911.4555,787.9211,1910.5245,793.5008,1904.9448,792.5699,1913.43,797.57" style="stroke:#181818;stroke-width:1;"/><text fill="#000000" font-family="sans-serif" font-size="13" lengthAdjust="spacing" textLength="61.458" x="1890.84" y="749.5684">validation</text><text fill="#000000" font-family="sans-serif" font-size="13" lengthAdjust="spacing" textLength="53.1108" x="1895.0136" y="764.8789">disabled</text></g></g></svg>